<?xml version="1.0" encoding="UTF-8" standalone="no"?>
<!-- Created with Inkscape (http://www.inkscape.org/) -->

<svg
   xmlns:dc="http://purl.org/dc/elements/1.1/"
   xmlns:cc="http://creativecommons.org/ns#"
   xmlns:rdf="http://www.w3.org/1999/02/22-rdf-syntax-ns#"
   xmlns:svg="http://www.w3.org/2000/svg"
   xmlns="http://www.w3.org/2000/svg"
   xmlns:sodipodi="http://sodipodi.sourceforge.net/DTD/sodipodi-0.dtd"
   xmlns:inkscape="http://www.inkscape.org/namespaces/inkscape"
   id="svg2"
   version="1.1"
   inkscape:version="0.48.4 r9939"
   width="2361.25"
   height="1263.75"
   xml:space="preserve"
   sodipodi:docname="ModLab Logos 1 Sheet.pdf"><metadata
     id="metadata8"><rdf:RDF><cc:Work
         rdf:about=""><dc:format>image/svg+xml</dc:format><dc:type
           rdf:resource="http://purl.org/dc/dcmitype/StillImage" /><dc:title></dc:title></cc:Work></rdf:RDF></metadata><defs
     id="defs6"><clipPath
       clipPathUnits="userSpaceOnUse"
       id="clipPath18"><path
         d="m 0,1011 1889,0 L 1889,0 0,0 0,1011 z"
         id="path20" /></clipPath><clipPath
       clipPathUnits="userSpaceOnUse"
       id="clipPath170"><path
         d="m 0,1011 1889,0 L 1889,0 0,0 0,1011 z"
         id="path172" /></clipPath></defs><sodipodi:namedview
     pagecolor="#ffffff"
     bordercolor="#666666"
     borderopacity="1"
     objecttolerance="10"
     gridtolerance="10"
     guidetolerance="10"
     inkscape:pageopacity="0"
     inkscape:pageshadow="2"
     inkscape:window-width="1289"
     inkscape:window-height="878"
     id="namedview4"
     showgrid="false"
     inkscape:zoom="0.50549338"
     inkscape:cx="1180.625"
     inkscape:cy="549.9467"
     inkscape:window-x="0"
     inkscape:window-y="27"
     inkscape:window-maximized="0"
     inkscape:current-layer="g14" /><g
     id="g10"
     inkscape:groupmode="layer"
     inkscape:label="ModLab Logos 1 Sheet"
     transform="matrix(1.25,0,0,-1.25,0,1263.75)"><path
       d="m 465.605,566.229 -164.633,0 0,65.967 164.633,0 0,-65.967 z"
       style="fill:#100f0d;fill-opacity:1;fill-rule:nonzero;stroke:none"
       id="path12" /><g
       id="g14"><g
         id="g16"
         clip-path="url(#clipPath18)"><g
           id="g22"
           transform="translate(465.0884,569.1505)"><path
             d="m 0,0 c 0,-1.557 -1.262,-2.818 -2.818,-2.818 l -161.131,0 0,65.782 161.131,0 C -1.262,62.964 0,61.702 0,60.146 L 0,0 z m 1.704,68.488 -40.948,0 -16.823,27.264 c -0.03,0.024 -0.064,0.029 -0.093,0.059 4.597,8.351 8.311,17.247 11.048,26.559 0.421,-0.088 0.818,-0.258 1.269,-0.258 l 41.87,9.984 c 3.679,0 6.363,2.982 6.363,6.673 l 0,42.163 c 0.013,3.679 -2.671,6.65 -6.351,6.65 l -42.029,9.984 c -0.45,0 -0.759,-0.17 -1.186,-0.258 -2.861,9.762 -6.78,19.055 -11.686,27.747 l 21.235,34.378 c 2.604,2.603 2.609,6.831 0.006,9.411 l -29.81,29.816 c -2.603,2.614 -6.825,2.614 -9.404,0.023 l -34.969,-21.587 c -8.137,4.392 -16.78,7.93 -25.817,10.568 l -9.493,40.888 c 0,3.668 -2.971,7.434 -6.672,7.434 l -42.152,0 c -3.678,0 -6.674,-3.773 -6.674,-7.434 l -9.492,-40.496 c -9.533,-2.784 -18.639,-6.784 -27.16,-11.516 -0.321,0.673 -0.697,1.228 -1.252,1.784 l -36.876,22.716 c -2.603,2.614 -6.831,2.579 -9.434,-0.023 l -29.816,-29.84 c -2.603,-2.603 -2.603,-6.814 0,-9.405 l 22.768,-36.905 c 0.614,-0.614 1.334,-1.058 2.082,-1.38 -4.503,-8.229 -8.124,-16.996 -10.819,-26.156 -0.427,0.088 -0.824,0.258 -1.276,0.258 l -43.005,-9.96 c -3.678,0 -7.479,-3.018 -7.479,-6.697 l 0,-42.163 c 0,-3.691 3.801,-6.662 7.479,-6.662 l 42.584,-9.984 c 0.444,0 1.053,0.17 1.474,0.258 2.691,-9.147 6.404,-17.903 10.891,-26.12 l -17.093,-27.773 -42.649,0 c -2.566,0 -4.646,-2.08 -4.646,-4.646 l 0,-67.539 c 0,-2.565 2.08,-4.645 4.646,-4.645 l 351.389,0 c 2.566,0 4.646,2.08 4.646,4.645 l 0,67.539 c 0,2.566 -2.08,4.646 -4.646,4.646"
             style="fill:#fbc227;fill-opacity:1;fill-rule:nonzero;stroke:none"
             id="path24" /></g><g
           id="g26"
           transform="translate(364.1852,759.3821)"><path
             d="m 0,0 -38.577,65.648 c -0.85,1.446 -2.711,1.93 -4.157,1.08 L -58.317,57.57 c -1.446,-0.849 -1.929,-2.71 -1.08,-4.156 l 26.2,-44.587 c 0.857,-1.457 0.358,-3.334 -1.109,-4.174 l -37.273,-21.328 c -0.934,-0.534 -2.082,-0.534 -3.016,0 l -37.273,21.328 c -1.468,0.84 -1.967,2.717 -1.11,4.174 l 26.2,44.587 c 0.85,1.446 0.367,3.307 -1.079,4.156 l -15.584,9.158 c -1.446,0.85 -3.307,0.366 -4.157,-1.08 L -146.175,0 c -0.856,-1.458 -0.357,-3.334 1.11,-4.174 l 41.855,-23.95 c 0.327,-0.186 0.194,-0.685 -0.182,-0.685 l -12.382,0 c -1.598,0 -2.894,-1.296 -2.894,-2.894 l 0,-14.88 c 0,-1.598 1.296,-2.894 2.894,-2.894 l 10.323,0 c 0.203,0 0.367,-0.164 0.367,-0.367 l 0,-68.523 c 0,-2.596 2.863,-4.184 5.054,-2.793 7.617,4.837 16.909,7.683 26.943,7.683 10.087,0 19.425,-2.876 27.065,-7.761 2.134,-1.364 4.931,0.193 4.931,2.725 l 0,68.669 c 0,0.203 0.165,0.367 0.367,0.367 l 10.323,0 c 1.598,0 2.894,1.296 2.894,2.894 l 0,14.88 c 0,1.598 -1.296,2.894 -2.894,2.894 l -12.381,0 c -0.377,0 -0.509,0.499 -0.183,0.685 L -1.11,-4.174 C 0.358,-3.334 0.857,-1.458 0,0"
             style="fill:#100f0d;fill-opacity:1;fill-rule:nonzero;stroke:none"
             id="path28" /></g><g
           id="g30"
           transform="translate(181.8052,617.2001)"><path
             d="m 0,0 c 0.128,-0.515 0.193,-0.978 0.193,-1.389 l 0,-3.935 0,-31.478 0,-6.713 c 0,-0.412 -0.142,-0.759 -0.424,-1.042 -0.284,-0.283 -0.631,-0.424 -1.042,-0.424 l -10.724,0 c -0.413,0 -0.746,0.141 -1.004,0.424 -0.257,0.283 -0.385,0.63 -0.385,1.042 l 0,10.57 0,19.983 0,8.873 -8.642,0 0,-9.799 0,-23.84 0,-5.787 c 0,-0.412 -0.128,-0.759 -0.385,-1.042 -0.258,-0.283 -0.592,-0.424 -1.003,-0.424 l -9.721,0 c -0.413,0 -0.76,0.141 -1.042,0.424 -0.283,0.283 -0.424,0.63 -0.424,1.042 l 0,6.867 0,24.92 0,7.639 -8.642,0 0,-13.271 0,-18.825 0,-7.33 c 0,-0.978 -0.489,-1.466 -1.466,-1.466 l -10.647,0 c -0.977,0 -1.466,0.488 -1.466,1.466 l 0,10.801 0,33.64 0,6.635 c 0,0.411 0.141,0.758 0.424,1.042 0.283,0.282 0.63,0.424 1.042,0.424 l 4.475,0 36.725,0 3.858,0 c 0.411,0 0.887,-0.065 1.427,-0.193 0.54,-0.129 0.99,-0.27 1.351,-0.424 L -0.424,1.311 C -0.27,0.951 -0.129,0.513 0,0"
             style="fill:#100f0d;fill-opacity:1;fill-rule:nonzero;stroke:none"
             id="path32" /></g><path
           d="m 221.038,613.111 -18.131,0 0,-27.853 18.131,0 0,27.853 z m 13.039,5.4 c 0.154,-0.36 0.295,-0.797 0.424,-1.311 0.128,-0.515 0.193,-0.978 0.193,-1.389 l 0,-1.466 0,-27.698 0,-4.012 c 0,-0.412 -0.065,-0.875 -0.193,-1.389 -0.129,-0.514 -0.27,-0.952 -0.424,-1.311 l -7.098,-7.098 c -0.361,-0.207 -0.811,-0.361 -1.35,-0.463 -0.541,-0.104 -1.017,-0.155 -1.428,-0.155 l -1.62,0 -18.672,0 -4.166,0 c -0.412,0 -0.875,0.051 -1.388,0.155 -0.515,0.102 -0.953,0.256 -1.312,0.463 l -7.098,7.098 c -0.207,0.359 -0.361,0.797 -0.463,1.311 -0.104,0.514 -0.154,0.977 -0.154,1.389 l 0,1.62 0,27.544 0,4.012 c 0,0.411 0.05,0.874 0.154,1.389 0.102,0.514 0.256,0.951 0.463,1.311 l 7.098,7.099 c 0.359,0.154 0.797,0.295 1.312,0.424 0.513,0.128 0.976,0.193 1.388,0.193 l 3.318,0 16.202,0 4.938,0 c 0.411,0 0.887,-0.065 1.428,-0.193 0.539,-0.129 0.989,-0.27 1.35,-0.424 l 7.098,-7.099 z"
           style="fill:#100f0d;fill-opacity:1;fill-rule:nonzero;stroke:none"
           id="path34" /><g
           id="g36"
           transform="translate(262.7791,613.1107)"><path
             d="m 0,0 -6.635,0 0,-7.87 0,-13.81 0,-6.173 6.943,0 3.781,0 7.407,0 0,5.71 0,13.81 0,8.333 L 4.167,0 0,0 z m 24.535,5.401 c 0.154,-0.36 0.295,-0.798 0.424,-1.312 0.128,-0.514 0.193,-0.977 0.193,-1.388 l 0,-2.701 0,-28.392 0,-2.084 c 0,-0.412 -0.065,-0.875 -0.193,-1.388 -0.129,-0.515 -0.27,-0.953 -0.424,-1.312 l -7.098,-7.098 c -0.36,-0.207 -0.81,-0.361 -1.35,-0.463 -0.541,-0.104 -1.017,-0.154 -1.428,-0.154 l -3.086,0 -24.921,0 -5.4,0 c -0.978,0 -1.466,0.488 -1.466,1.466 l 0,6.558 0,38.113 0,6.404 c 0,0.411 0.141,0.759 0.424,1.042 0.282,0.282 0.629,0.424 1.042,0.424 l 4.783,0 21.989,0 6.635,0 c 0.411,0 0.887,-0.065 1.428,-0.193 0.54,-0.128 0.99,-0.27 1.35,-0.424 l 7.098,-7.098 z"
             style="fill:#100f0d;fill-opacity:1;fill-rule:nonzero;stroke:none"
             id="path38" /></g><g
           id="g40"
           transform="translate(347.6543,585.3592)"><path
             d="M 0,0 C 0.411,0 0.745,-0.142 1.003,-0.424 1.26,-0.707 1.389,-1.055 1.389,-1.466 l 0,-10.184 c 0,-0.412 -0.129,-0.76 -0.386,-1.042 C 0.745,-12.975 0.411,-13.116 0,-13.116 l -33.33,0 c -0.978,0 -1.466,0.488 -1.466,1.466 l 0,51.076 c 0,0.976 0.488,1.466 1.466,1.466 l 10.647,0 c 0.976,0 1.466,-0.49 1.466,-1.466 l 0,-38.037 c 0,-0.412 0.141,-0.746 0.424,-1.003 C -20.511,0.128 -20.164,0 -19.751,0 L 0,0 z"
             style="fill:#fbc227;fill-opacity:1;fill-rule:nonzero;stroke:none"
             id="path42" /></g><path
           d="m 388.451,614.215 -18.208,0 0,-13.656 18.208,0 0,13.656 z m 12.962,4.398 c 0.154,-0.361 0.295,-0.81 0.424,-1.351 0.128,-0.539 0.193,-1.016 0.193,-1.427 l 0,-0.848 0,-0.695 0,-40.583 c 0,-0.412 -0.142,-0.746 -0.424,-1.003 -0.283,-0.258 -0.631,-0.386 -1.042,-0.386 l -10.724,0 c -0.413,0 -0.746,0.128 -1.003,0.386 -0.258,0.257 -0.386,0.591 -0.386,1.003 l 0,13.888 c 0,0.411 -0.142,0.745 -0.424,1.003 -0.283,0.257 -0.631,0.385 -1.042,0.385 l -15.276,0 c -0.413,0 -0.76,-0.128 -1.042,-0.385 -0.283,-0.258 -0.424,-0.592 -0.424,-1.003 l 0,-13.888 c 0,-0.412 -0.129,-0.746 -0.386,-1.003 -0.258,-0.258 -0.592,-0.386 -1.003,-0.386 l -10.724,0 c -0.413,0 -0.76,0.128 -1.042,0.386 -0.283,0.257 -0.424,0.591 -0.424,1.003 l 0,40.892 0,1.234 0,0.232 c 0.05,0.411 0.128,0.848 0.231,1.311 0.102,0.463 0.232,0.874 0.386,1.235 l 7.098,7.098 c 0.359,0.154 0.797,0.295 1.312,0.424 0.513,0.128 0.976,0.193 1.389,0.193 l 1.157,0 4.397,0 15.74,0 2.314,0 0.849,0 c 0.411,0 0.887,-0.065 1.428,-0.193 0.54,-0.129 0.989,-0.27 1.35,-0.424 l 7.098,-7.098 z"
           style="fill:#fbc227;fill-opacity:1;fill-rule:nonzero;stroke:none"
           id="path44" /><path
           d="m 422.214,584.048 20.755,0 0,10.493 -20.755,0 0,-10.493 z m 0,20.831 20.755,0 0,9.644 -20.755,0 0,-9.644 z m 32.482,13.656 c 0.154,-0.36 0.295,-0.81 0.424,-1.35 0.128,-0.54 0.193,-1.016 0.193,-1.427 l 0,-1.697 0,-0.772 0,-6.095 c 0,-0.412 -0.09,-0.862 -0.27,-1.35 -0.181,-0.49 -0.399,-0.888 -0.656,-1.196 l -3.317,-4.244 c -0.259,-0.308 -0.374,-0.694 -0.348,-1.157 0.026,-0.463 0.167,-0.823 0.425,-1.08 l 3.163,-3.858 c 0.257,-0.308 0.488,-0.707 0.694,-1.196 0.205,-0.489 0.309,-0.939 0.309,-1.35 l 0,-6.404 0,-1.697 0,-1.003 c 0,-0.412 -0.065,-0.875 -0.193,-1.389 -0.129,-0.515 -0.27,-0.952 -0.424,-1.312 l -7.099,-7.097 c -0.36,-0.207 -0.809,-0.361 -1.35,-0.464 -0.54,-0.103 -1.016,-0.154 -1.427,-0.154 l -1.775,0 -7.638,0 -23.995,0 c -0.977,0 -1.466,0.488 -1.466,1.466 l 0,51.076 c 0,0.411 0.142,0.758 0.425,1.042 0.282,0.282 0.629,0.424 1.041,0.424 l 33.254,0 0.154,0 c 0.411,0 0.887,-0.065 1.427,-0.193 0.541,-0.129 0.99,-0.27 1.35,-0.424 l 7.099,-7.099 z"
           style="fill:#fbc227;fill-opacity:1;fill-rule:nonzero;stroke:none"
           id="path46" /><path
           d="m 1212.231,164.921 -298.503,0 0,74.587 298.503,0 0,-74.587 z"
           style="fill:#2a3b3e;fill-opacity:1;fill-rule:nonzero;stroke:none"
           id="path48" /><path
           d="m 1510.734,164.921 -298.503,0 0,74.587 298.503,0 0,-74.587 z"
           style="fill:#eaebea;fill-opacity:1;fill-rule:nonzero;stroke:none"
           id="path50" /><path
           d="m 1809.237,164.921 -298.503,0 0,74.587 298.503,0 0,-74.587 z"
           style="fill:#da2b25;fill-opacity:1;fill-rule:nonzero;stroke:none"
           id="path52" /><path
           d="m 1808.897,257.966 -895.169,0 0,104.199 895.169,0 0,-104.199 z"
           style="fill:#fbc227;fill-opacity:1;fill-rule:nonzero;stroke:none"
           id="path54" /><g
           id="g56"
           transform="translate(610.3567,837.4466)"><path
             d="m 0,0 -1.825,0 0,-2.165 0,-3.799 0,-1.698 1.91,0 1.04,0 2.038,0 0,1.57 0,3.8 L 3.163,0 1.146,0 0,0 z"
             style="fill:#2a3b3e;fill-opacity:1;fill-rule:nonzero;stroke:none"
             id="path58" /></g><path
           d="m 593.886,829.784 4.988,0 0,7.662 -4.988,0 0,-7.662 z"
           style="fill:#2a3b3e;fill-opacity:1;fill-rule:nonzero;stroke:none"
           id="path60" /><g
           id="g62"
           transform="translate(666.012,825.3531)"><path
             d="m 0,0 c 0,-0.428 -0.347,-0.775 -0.775,-0.775 l -44.327,0 0,18.096 44.327,0 C -0.347,17.321 0,16.974 0,16.546 L 0,0 z m -55.277,19.002 c -0.603,-0.383 -1.39,0.054 -1.39,0.768 l 0,18.851 c 0,0.055 -0.045,0.101 -0.101,0.101 l -2.84,0 c -0.439,0 -0.796,0.356 -0.796,0.796 l 0,4.093 c 0,0.44 0.357,0.796 0.796,0.796 l 3.406,0 c 0.104,0 0.14,0.137 0.05,0.189 l -11.514,6.588 c -0.404,0.231 -0.541,0.748 -0.305,1.149 l 10.612,18.06 c 0.234,0.397 0.746,0.53 1.144,0.297 l 4.287,-2.52 c 0.398,-0.233 0.531,-0.745 0.297,-1.143 l -7.208,-12.266 c -0.235,-0.401 -0.098,-0.917 0.305,-1.148 l 10.254,-5.867 c 0.257,-0.148 0.573,-0.148 0.83,0 l 10.254,5.867 c 0.404,0.231 0.541,0.747 0.305,1.148 l -7.208,12.266 c -0.233,0.398 -0.1,0.91 0.297,1.143 l 4.288,2.52 c 0.397,0.233 0.909,0.1 1.143,-0.297 l 10.613,-18.06 c 0.235,-0.401 0.098,-0.918 -0.306,-1.149 l -11.514,-6.588 c -0.09,-0.052 -0.053,-0.189 0.05,-0.189 l 3.406,0 c 0.44,0 0.796,-0.356 0.796,-0.796 l 0,-4.093 c 0,-0.44 -0.356,-0.796 -0.796,-0.796 l -2.84,0 c -0.055,0 -0.101,-0.046 -0.101,-0.101 l 0,-18.891 c 0,-0.697 -0.769,-1.125 -1.356,-0.75 -2.102,1.344 -4.671,2.135 -7.446,2.135 -2.76,0 -5.316,-0.783 -7.412,-2.113 m 6.541,-6.909 0,-7.81 0,-0.573 c 0,-0.114 -0.018,-0.241 -0.053,-0.382 -0.036,-0.142 -0.074,-0.263 -0.117,-0.361 l -1.952,-1.953 c -0.1,-0.057 -0.223,-0.099 -0.372,-0.127 -0.148,-0.029 -0.279,-0.043 -0.392,-0.043 l -0.85,0 -6.855,0 -1.486,0 c -0.269,0 -0.403,0.134 -0.403,0.403 l 0,1.805 0,10.485 0,1.762 c 0,0.113 0.039,0.208 0.116,0.286 0.078,0.078 0.174,0.117 0.287,0.117 l 1.316,0 6.049,0 1.826,0 c 0.113,0 0.244,-0.018 0.392,-0.053 0.149,-0.036 0.272,-0.075 0.372,-0.117 l 1.952,-1.953 c 0.043,-0.099 0.081,-0.219 0.117,-0.361 0.035,-0.141 0.053,-0.269 0.053,-0.382 l 0,-0.743 z m -14.646,0.34 0,-7.62 0,-1.103 c 0,-0.114 -0.017,-0.241 -0.053,-0.382 -0.035,-0.142 -0.074,-0.263 -0.116,-0.361 l -1.953,-1.953 c -0.099,-0.057 -0.223,-0.099 -0.371,-0.127 -0.149,-0.029 -0.28,-0.043 -0.393,-0.043 l -0.446,0 -5.136,0 -1.146,0 c -0.114,0 -0.241,0.014 -0.383,0.043 -0.141,0.028 -0.262,0.07 -0.36,0.127 l -1.953,1.953 c -0.057,0.098 -0.099,0.219 -0.127,0.361 -0.029,0.141 -0.043,0.268 -0.043,0.382 l 0,0.445 0,7.578 0,1.103 c 0,0.113 0.014,0.241 0.043,0.382 0.028,0.142 0.07,0.262 0.127,0.361 l 1.953,1.953 c 0.098,0.042 0.219,0.081 0.36,0.117 0.142,0.035 0.269,0.053 0.383,0.053 l 0.912,0 4.457,0 1.359,0 c 0.113,0 0.244,-0.018 0.393,-0.053 0.148,-0.036 0.272,-0.075 0.371,-0.117 l 1.953,-1.953 c 0.042,-0.099 0.081,-0.219 0.116,-0.361 0.036,-0.141 0.053,-0.269 0.053,-0.382 l 0,-0.403 z m -14.496,-0.679 0,-8.66 0,-1.847 c 0,-0.113 -0.039,-0.208 -0.117,-0.286 -0.078,-0.078 -0.173,-0.117 -0.286,-0.117 l -2.951,0 c -0.113,0 -0.205,0.039 -0.276,0.117 -0.071,0.078 -0.106,0.173 -0.106,0.286 l 0,2.908 0,5.498 0,2.44 -2.377,0 0,-2.695 0,-6.559 0,-1.592 c 0,-0.113 -0.035,-0.208 -0.106,-0.286 -0.071,-0.078 -0.163,-0.117 -0.276,-0.117 l -2.674,0 c -0.114,0 -0.209,0.039 -0.287,0.117 -0.078,0.078 -0.117,0.173 -0.117,0.286 l 0,1.89 0,6.855 0,2.101 -2.377,0 0,-3.65 0,-5.179 0,-2.017 c 0,-0.269 -0.135,-0.403 -0.403,-0.403 l -2.929,0 c -0.269,0 -0.403,0.134 -0.403,0.403 l 0,2.972 0,9.254 0,1.826 c 0,0.113 0.038,0.208 0.116,0.286 0.078,0.078 0.173,0.117 0.287,0.117 l 1.231,0 10.103,0 1.061,0 c 0.113,0 0.244,-0.018 0.393,-0.053 0.148,-0.036 0.272,-0.075 0.371,-0.117 l 1.953,-1.953 c 0.042,-0.099 0.081,-0.219 0.117,-0.361 0.035,-0.141 0.053,-0.269 0.053,-0.382 l 0,-1.082 z m 78.347,7.087 -11.265,0 -4.628,7.5 c -0.008,0.007 -0.018,0.008 -0.026,0.016 1.265,2.298 2.287,4.745 3.04,7.307 0.115,-0.024 0.225,-0.071 0.349,-0.071 l 11.518,2.746 c 1.012,0 1.751,0.821 1.751,1.836 l 0,11.599 c 0.003,1.012 -0.735,1.83 -1.747,1.83 l -11.563,2.746 c -0.123,0 -0.209,-0.046 -0.326,-0.071 -0.787,2.686 -1.865,5.242 -3.215,7.633 l 5.842,9.458 c 0.716,0.716 0.718,1.879 0.002,2.589 L -18,82.161 c -0.716,0.72 -1.878,0.72 -2.587,0.007 l -9.62,-5.939 c -2.238,1.208 -4.616,2.182 -7.102,2.907 l -2.612,11.249 c 0,1.009 -0.817,2.045 -1.835,2.045 l -11.596,0 c -1.012,0 -1.836,-1.038 -1.836,-2.045 L -57.8,79.244 c -2.622,-0.766 -5.127,-1.866 -7.471,-3.168 -0.089,0.185 -0.192,0.338 -0.345,0.491 l -10.144,6.249 c -0.716,0.719 -1.88,0.71 -2.596,-0.006 l -8.202,-8.209 c -0.716,-0.716 -0.716,-1.875 0,-2.587 l 6.263,-10.153 c 0.169,-0.169 0.367,-0.291 0.573,-0.38 -1.239,-2.264 -2.235,-4.675 -2.976,-7.195 -0.118,0.024 -0.227,0.071 -0.351,0.071 l -11.831,-2.74 c -1.012,0 -2.057,-0.831 -2.057,-1.843 l 0,-11.599 c 0,-1.015 1.045,-1.832 2.057,-1.832 l 11.715,-2.747 c 0.122,0 0.29,0.047 0.405,0.071 0.741,-2.516 1.762,-4.925 2.997,-7.186 l -4.703,-7.64 -11.732,0 c -0.706,0 -1.278,-0.572 -1.278,-1.278 l 0,-18.58 c 0,-0.706 0.572,-1.278 1.278,-1.278 l 96.667,0 c 0.706,0 1.278,0.572 1.278,1.278 l 0,18.58 c 0,0.706 -0.572,1.278 -1.278,1.278"
             style="fill:#2a3b3e;fill-opacity:1;fill-rule:nonzero;stroke:none"
             id="path64" /></g><g
           id="g66"
           transform="translate(633.7059,829.8121)"><path
             d="M 0,0 -5.434,0 C -5.547,0 -5.643,0.035 -5.72,0.106 -5.798,0.177 -5.837,0.269 -5.837,0.382 l 0,10.464 c 0,0.269 -0.134,0.403 -0.403,0.403 l -2.929,0 c -0.269,0 -0.403,-0.134 -0.403,-0.403 l 0,-14.051 c 0,-0.269 0.134,-0.403 0.403,-0.403 l 9.169,0 c 0.113,0 0.205,0.039 0.276,0.117 0.071,0.077 0.106,0.173 0.106,0.286 l 0,2.802 c 0,0.113 -0.035,0.208 -0.106,0.286 C 0.205,-0.039 0.113,0 0,0"
             style="fill:#2a3b3e;fill-opacity:1;fill-rule:nonzero;stroke:none"
             id="path68" /></g><path
           d="m 644.929,833.994 -5.009,0 0,3.757 5.009,0 0,-3.757 z m 3.566,4.966 -1.953,1.953 c -0.099,0.042 -0.223,0.081 -0.371,0.117 -0.149,0.035 -0.28,0.053 -0.393,0.053 l -0.233,0 -0.637,0 -4.33,0 -1.21,0 -0.318,0 c -0.114,0 -0.241,-0.018 -0.382,-0.053 -0.142,-0.036 -0.262,-0.075 -0.361,-0.117 l -1.953,-1.953 c -0.042,-0.099 -0.078,-0.212 -0.106,-0.339 -0.028,-0.128 -0.05,-0.248 -0.064,-0.361 l 0,-0.064 0,-0.34 0,-11.249 c 0,-0.113 0.039,-0.205 0.117,-0.276 0.078,-0.071 0.173,-0.106 0.287,-0.106 l 2.95,0 c 0.113,0 0.205,0.035 0.276,0.106 0.071,0.071 0.106,0.163 0.106,0.276 l 0,3.821 c 0,0.113 0.039,0.205 0.117,0.276 0.077,0.07 0.173,0.106 0.286,0.106 l 4.203,0 c 0.113,0 0.208,-0.036 0.286,-0.106 0.078,-0.071 0.117,-0.163 0.117,-0.276 l 0,-3.821 c 0,-0.113 0.035,-0.205 0.106,-0.276 0.071,-0.071 0.163,-0.106 0.276,-0.106 l 2.95,0 c 0.114,0 0.209,0.035 0.287,0.106 0.078,0.071 0.117,0.163 0.117,0.276 l 0,11.165 0,0.191 0,0.233 c 0,0.113 -0.018,0.244 -0.053,0.393 -0.036,0.148 -0.075,0.272 -0.117,0.371"
           style="fill:#2a3b3e;fill-opacity:1;fill-rule:nonzero;stroke:none"
           id="path70" /><path
           d="m 659.927,835.182 -5.71,0 0,2.653 5.71,0 0,-2.653 z m 0,-5.731 -5.71,0 0,2.887 5.71,0 0,-2.887 z m 3.226,9.488 -1.953,1.953 c -0.099,0.042 -0.223,0.081 -0.371,0.116 -0.149,0.036 -0.28,0.054 -0.393,0.054 l -0.042,0 -9.148,0 c -0.114,0 -0.209,-0.04 -0.287,-0.117 -0.078,-0.078 -0.117,-0.174 -0.117,-0.287 l 0,-14.051 c 0,-0.269 0.135,-0.403 0.404,-0.403 l 6.601,0 2.101,0 0.488,0 c 0.113,0 0.244,0.014 0.393,0.042 0.148,0.029 0.272,0.071 0.371,0.128 l 1.953,1.952 c 0.042,0.099 0.081,0.22 0.117,0.361 0.035,0.141 0.053,0.269 0.053,0.382 l 0,0.276 0,0.467 0,1.762 c 0,0.113 -0.029,0.237 -0.085,0.371 -0.057,0.135 -0.121,0.244 -0.191,0.329 l -0.87,1.062 c -0.071,0.07 -0.11,0.169 -0.117,0.297 -0.008,0.127 0.024,0.233 0.095,0.318 l 0.913,1.167 c 0.071,0.085 0.131,0.195 0.181,0.329 0.049,0.135 0.074,0.259 0.074,0.372 l 0,1.677 0,0.212 0,0.467 c 0,0.113 -0.018,0.244 -0.053,0.393 -0.036,0.148 -0.075,0.272 -0.117,0.371"
           style="fill:#2a3b3e;fill-opacity:1;fill-rule:nonzero;stroke:none"
           id="path72" /><g
           id="g74"
           transform="translate(610.3567,706.854)"><path
             d="m 0,0 -1.825,0 0,-2.165 0,-3.799 0,-1.698 1.91,0 1.04,0 2.038,0 0,1.571 0,3.799 L 3.163,0 1.146,0 0,0 z"
             style="fill:#eaebea;fill-opacity:1;fill-rule:nonzero;stroke:none"
             id="path76" /></g><path
           d="m 593.886,699.192 4.988,0 0,7.662 -4.988,0 0,-7.662 z"
           style="fill:#eaebea;fill-opacity:1;fill-rule:nonzero;stroke:none"
           id="path78" /><g
           id="g80"
           transform="translate(666.012,694.7606)"><path
             d="m 0,0 c 0,-0.428 -0.347,-0.775 -0.775,-0.775 l -44.327,0 0,18.096 44.327,0 C -0.347,17.321 0,16.974 0,16.546 L 0,0 z m -55.277,19.002 c -0.603,-0.383 -1.39,0.054 -1.39,0.768 l 0,18.851 c 0,0.055 -0.045,0.101 -0.101,0.101 l -2.84,0 c -0.439,0 -0.796,0.356 -0.796,0.796 l 0,4.093 c 0,0.44 0.357,0.796 0.796,0.796 l 3.406,0 c 0.104,0 0.14,0.138 0.05,0.189 l -11.514,6.589 c -0.404,0.231 -0.541,0.747 -0.305,1.148 l 10.612,18.06 c 0.234,0.397 0.746,0.53 1.144,0.297 l 4.287,-2.52 c 0.398,-0.233 0.531,-0.745 0.297,-1.143 l -7.208,-12.266 c -0.235,-0.401 -0.098,-0.917 0.305,-1.148 l 10.254,-5.867 c 0.257,-0.147 0.573,-0.147 0.83,0 l 10.254,5.867 c 0.404,0.231 0.541,0.747 0.305,1.148 l -7.208,12.266 c -0.233,0.398 -0.1,0.91 0.297,1.143 l 4.288,2.52 c 0.397,0.233 0.909,0.1 1.143,-0.297 l 10.613,-18.06 c 0.235,-0.401 0.098,-0.917 -0.306,-1.148 l -11.514,-6.589 c -0.09,-0.051 -0.053,-0.189 0.05,-0.189 l 3.406,0 c 0.44,0 0.796,-0.356 0.796,-0.796 l 0,-4.093 c 0,-0.44 -0.356,-0.796 -0.796,-0.796 l -2.84,0 c -0.055,0 -0.101,-0.046 -0.101,-0.101 l 0,-18.891 c 0,-0.697 -0.769,-1.125 -1.356,-0.75 -2.102,1.344 -4.671,2.135 -7.446,2.135 -2.76,0 -5.316,-0.783 -7.412,-2.113 m 6.541,-6.909 0,-7.81 0,-0.573 c 0,-0.114 -0.018,-0.241 -0.053,-0.382 -0.036,-0.142 -0.074,-0.262 -0.117,-0.361 l -1.952,-1.953 c -0.1,-0.057 -0.223,-0.099 -0.372,-0.127 -0.148,-0.029 -0.279,-0.043 -0.392,-0.043 l -0.85,0 -6.855,0 -1.486,0 c -0.269,0 -0.403,0.135 -0.403,0.403 l 0,1.805 0,10.485 0,1.762 c 0,0.113 0.039,0.208 0.116,0.286 0.078,0.078 0.174,0.117 0.287,0.117 l 1.316,0 6.049,0 1.826,0 c 0.113,0 0.244,-0.018 0.392,-0.053 0.149,-0.036 0.272,-0.075 0.372,-0.117 l 1.952,-1.953 c 0.043,-0.099 0.081,-0.219 0.117,-0.361 0.035,-0.141 0.053,-0.269 0.053,-0.382 l 0,-0.743 z m -14.646,0.34 0,-7.62 0,-1.103 c 0,-0.114 -0.017,-0.241 -0.053,-0.382 -0.035,-0.142 -0.074,-0.262 -0.116,-0.361 l -1.953,-1.953 c -0.099,-0.057 -0.223,-0.099 -0.371,-0.127 -0.149,-0.029 -0.28,-0.043 -0.393,-0.043 l -0.446,0 -5.136,0 -1.146,0 c -0.114,0 -0.241,0.014 -0.383,0.043 -0.141,0.028 -0.262,0.07 -0.36,0.127 l -1.953,1.953 c -0.057,0.099 -0.099,0.219 -0.127,0.361 -0.029,0.141 -0.043,0.268 -0.043,0.382 l 0,0.445 0,7.578 0,1.103 c 0,0.113 0.014,0.241 0.043,0.382 0.028,0.142 0.07,0.262 0.127,0.361 l 1.953,1.953 c 0.098,0.042 0.219,0.081 0.36,0.117 0.142,0.035 0.269,0.053 0.383,0.053 l 0.912,0 4.457,0 1.359,0 c 0.113,0 0.244,-0.018 0.393,-0.053 0.148,-0.036 0.272,-0.075 0.371,-0.117 l 1.953,-1.953 c 0.042,-0.099 0.081,-0.219 0.116,-0.361 0.036,-0.141 0.053,-0.269 0.053,-0.382 l 0,-0.403 z m -14.496,-0.679 0,-8.66 0,-1.847 c 0,-0.113 -0.039,-0.208 -0.117,-0.286 -0.078,-0.078 -0.173,-0.117 -0.286,-0.117 l -2.951,0 c -0.113,0 -0.205,0.039 -0.276,0.117 -0.071,0.078 -0.106,0.173 -0.106,0.286 l 0,2.908 0,5.498 0,2.44 -2.377,0 0,-2.695 0,-6.559 0,-1.592 c 0,-0.113 -0.035,-0.208 -0.106,-0.286 -0.071,-0.078 -0.163,-0.117 -0.276,-0.117 l -2.674,0 c -0.114,0 -0.209,0.039 -0.287,0.117 -0.078,0.078 -0.117,0.173 -0.117,0.286 l 0,1.89 0,6.855 0,2.101 -2.377,0 0,-3.65 0,-5.179 0,-2.017 c 0,-0.268 -0.135,-0.403 -0.403,-0.403 l -2.929,0 c -0.269,0 -0.403,0.135 -0.403,0.403 l 0,2.972 0,9.254 0,1.826 c 0,0.113 0.038,0.208 0.116,0.286 0.078,0.078 0.173,0.117 0.287,0.117 l 1.231,0 10.103,0 1.061,0 c 0.113,0 0.244,-0.018 0.393,-0.053 0.148,-0.036 0.272,-0.075 0.371,-0.117 l 1.953,-1.953 c 0.042,-0.099 0.081,-0.219 0.117,-0.361 0.035,-0.141 0.053,-0.269 0.053,-0.382 l 0,-1.082 z m 78.347,7.087 -11.265,0 -4.628,7.5 c -0.008,0.007 -0.018,0.008 -0.026,0.016 1.265,2.298 2.287,4.745 3.04,7.307 0.116,-0.024 0.225,-0.071 0.349,-0.071 l 11.518,2.746 c 1.012,0 1.751,0.821 1.751,1.836 l 0,11.599 c 0.003,1.012 -0.735,1.83 -1.747,1.83 l -11.563,2.746 c -0.123,0 -0.209,-0.046 -0.326,-0.07 -0.787,2.685 -1.865,5.242 -3.215,7.633 l 5.842,9.457 c 0.716,0.716 0.718,1.879 0.002,2.589 L -18,82.161 c -0.716,0.72 -1.878,0.72 -2.587,0.007 l -9.62,-5.939 c -2.238,1.208 -4.616,2.182 -7.102,2.907 l -2.612,11.249 c 0,1.009 -0.817,2.045 -1.835,2.045 l -11.596,0 c -1.012,0 -1.836,-1.038 -1.836,-2.045 L -57.8,79.244 c -2.622,-0.766 -5.127,-1.866 -7.471,-3.168 -0.089,0.185 -0.192,0.338 -0.345,0.491 l -10.144,6.249 c -0.716,0.719 -1.88,0.71 -2.596,-0.006 l -8.202,-8.209 c -0.716,-0.716 -0.716,-1.875 0,-2.587 l 6.263,-10.153 c 0.169,-0.169 0.367,-0.291 0.573,-0.38 -1.238,-2.264 -2.235,-4.675 -2.976,-7.195 -0.118,0.024 -0.227,0.071 -0.351,0.071 l -11.831,-2.74 c -1.012,0 -2.057,-0.831 -2.057,-1.843 l 0,-11.599 c 0,-1.015 1.045,-1.832 2.057,-1.832 l 11.715,-2.747 c 0.122,0 0.29,0.047 0.405,0.071 0.741,-2.516 1.762,-4.925 2.997,-7.186 l -4.703,-7.64 -11.732,0 c -0.706,0 -1.278,-0.572 -1.278,-1.278 l 0,-18.58 c 0,-0.706 0.572,-1.278 1.278,-1.278 l 96.667,0 c 0.706,0 1.278,0.572 1.278,1.278 l 0,18.58 c 0,0.706 -0.572,1.278 -1.278,1.278"
             style="fill:#eaebea;fill-opacity:1;fill-rule:nonzero;stroke:none"
             id="path82" /></g><g
           id="g84"
           transform="translate(633.7059,699.2196)"><path
             d="M 0,0 -5.434,0 C -5.547,0 -5.643,0.035 -5.72,0.106 -5.798,0.177 -5.837,0.269 -5.837,0.382 l 0,10.464 c 0,0.269 -0.134,0.403 -0.403,0.403 l -2.929,0 c -0.269,0 -0.403,-0.134 -0.403,-0.403 l 0,-14.051 c 0,-0.269 0.134,-0.403 0.403,-0.403 l 9.169,0 c 0.113,0 0.205,0.039 0.276,0.116 0.071,0.078 0.106,0.174 0.106,0.287 l 0,2.802 c 0,0.113 -0.035,0.208 -0.106,0.286 C 0.205,-0.039 0.113,0 0,0"
             style="fill:#eaebea;fill-opacity:1;fill-rule:nonzero;stroke:none"
             id="path86" /></g><path
           d="m 644.929,703.401 -5.009,0 0,3.757 5.009,0 0,-3.757 z m 3.566,4.967 -1.953,1.952 c -0.099,0.043 -0.223,0.082 -0.371,0.117 -0.149,0.035 -0.28,0.053 -0.393,0.053 l -0.233,0 -0.637,0 -4.33,0 -1.21,0 -0.318,0 c -0.114,0 -0.241,-0.018 -0.382,-0.053 -0.142,-0.035 -0.262,-0.074 -0.361,-0.117 l -1.953,-1.952 c -0.042,-0.1 -0.078,-0.213 -0.106,-0.34 -0.028,-0.127 -0.05,-0.248 -0.064,-0.361 l 0,-0.063 0,-0.34 0,-11.249 c 0,-0.114 0.039,-0.206 0.117,-0.276 0.078,-0.071 0.173,-0.106 0.287,-0.106 l 2.95,0 c 0.113,0 0.205,0.035 0.276,0.106 0.071,0.07 0.106,0.162 0.106,0.276 l 0,3.82 c 0,0.113 0.039,0.205 0.117,0.276 0.077,0.071 0.173,0.106 0.286,0.106 l 4.203,0 c 0.113,0 0.208,-0.035 0.286,-0.106 0.078,-0.071 0.117,-0.163 0.117,-0.276 l 0,-3.82 c 0,-0.114 0.035,-0.206 0.106,-0.276 0.071,-0.071 0.163,-0.106 0.276,-0.106 l 2.95,0 c 0.114,0 0.209,0.035 0.287,0.106 0.078,0.07 0.117,0.162 0.117,0.276 l 0,11.164 0,0.191 0,0.234 c 0,0.113 -0.018,0.244 -0.053,0.392 -0.036,0.149 -0.075,0.272 -0.117,0.372"
           style="fill:#eaebea;fill-opacity:1;fill-rule:nonzero;stroke:none"
           id="path88" /><path
           d="m 659.927,704.59 -5.71,0 0,2.653 5.71,0 0,-2.653 z m 0,-5.731 -5.71,0 0,2.887 5.71,0 0,-2.887 z m 3.226,9.487 -1.953,1.953 c -0.099,0.043 -0.223,0.081 -0.371,0.117 -0.149,0.035 -0.28,0.053 -0.393,0.053 l -0.042,0 -9.148,0 c -0.114,0 -0.209,-0.039 -0.287,-0.117 -0.078,-0.078 -0.117,-0.173 -0.117,-0.286 l 0,-14.051 c 0,-0.269 0.135,-0.404 0.404,-0.404 l 6.601,0 2.101,0 0.488,0 c 0.113,0 0.244,0.014 0.393,0.043 0.148,0.028 0.272,0.07 0.371,0.127 l 1.953,1.953 c 0.042,0.099 0.081,0.219 0.117,0.361 0.035,0.141 0.053,0.268 0.053,0.382 l 0,0.276 0,0.467 0,1.761 c 0,0.113 -0.029,0.237 -0.085,0.372 -0.057,0.134 -0.121,0.244 -0.191,0.329 l -0.87,1.061 c -0.071,0.071 -0.11,0.17 -0.117,0.297 -0.008,0.127 0.024,0.234 0.095,0.318 l 0.913,1.168 c 0.071,0.085 0.131,0.194 0.181,0.329 0.049,0.134 0.074,0.258 0.074,0.371 l 0,1.677 0,0.212 0,0.467 c 0,0.113 -0.018,0.244 -0.053,0.393 -0.036,0.149 -0.075,0.272 -0.117,0.371"
           style="fill:#eaebea;fill-opacity:1;fill-rule:nonzero;stroke:none"
           id="path90" /><g
           id="g92"
           transform="translate(610.3567,576.2615)"><path
             d="m 0,0 -1.825,0 0,-2.165 0,-3.799 0,-1.698 1.91,0 1.04,0 2.038,0 0,1.57 0,3.8 L 3.163,0 1.146,0 0,0 z"
             style="fill:#da2b25;fill-opacity:1;fill-rule:nonzero;stroke:none"
             id="path94" /></g><path
           d="m 593.886,568.599 4.988,0 0,7.662 -4.988,0 0,-7.662 z"
           style="fill:#da2b25;fill-opacity:1;fill-rule:nonzero;stroke:none"
           id="path96" /><g
           id="g98"
           transform="translate(666.012,564.168)"><path
             d="m 0,0 c 0,-0.428 -0.347,-0.775 -0.775,-0.775 l -44.327,0 0,18.096 44.327,0 C -0.347,17.321 0,16.974 0,16.546 L 0,0 z m -55.277,19.002 c -0.603,-0.383 -1.39,0.054 -1.39,0.768 l 0,18.851 c 0,0.055 -0.045,0.101 -0.101,0.101 l -2.84,0 c -0.439,0 -0.796,0.356 -0.796,0.796 l 0,4.093 c 0,0.44 0.357,0.796 0.796,0.796 l 3.406,0 c 0.104,0 0.14,0.138 0.05,0.189 l -11.514,6.589 c -0.404,0.231 -0.541,0.747 -0.305,1.148 l 10.612,18.06 c 0.234,0.397 0.746,0.53 1.144,0.297 l 4.287,-2.52 c 0.398,-0.233 0.531,-0.745 0.297,-1.143 l -7.208,-12.266 c -0.235,-0.401 -0.098,-0.917 0.305,-1.148 l 10.254,-5.867 c 0.257,-0.147 0.573,-0.147 0.83,0 l 10.254,5.867 c 0.404,0.231 0.541,0.747 0.305,1.148 l -7.208,12.266 c -0.233,0.398 -0.1,0.91 0.297,1.143 l 4.288,2.52 c 0.397,0.233 0.909,0.1 1.143,-0.297 l 10.613,-18.06 c 0.235,-0.401 0.098,-0.917 -0.306,-1.148 l -11.514,-6.589 c -0.09,-0.051 -0.053,-0.189 0.05,-0.189 l 3.406,0 c 0.44,0 0.796,-0.356 0.796,-0.796 l 0,-4.093 c 0,-0.44 -0.356,-0.796 -0.796,-0.796 l -2.84,0 c -0.055,0 -0.101,-0.046 -0.101,-0.101 l 0,-18.891 c 0,-0.697 -0.769,-1.125 -1.356,-0.75 -2.102,1.344 -4.671,2.135 -7.446,2.135 -2.76,0 -5.316,-0.783 -7.412,-2.113 m 6.541,-6.908 0,-7.811 0,-0.573 c 0,-0.114 -0.018,-0.241 -0.053,-0.382 -0.036,-0.142 -0.074,-0.262 -0.117,-0.361 l -1.952,-1.953 c -0.1,-0.057 -0.223,-0.099 -0.372,-0.127 -0.148,-0.029 -0.279,-0.043 -0.392,-0.043 l -0.85,0 -6.855,0 -1.486,0 c -0.269,0 -0.403,0.135 -0.403,0.404 l 0,1.804 0,10.485 0,1.762 c 0,0.113 0.039,0.208 0.116,0.286 0.078,0.078 0.174,0.117 0.287,0.117 l 1.316,0 6.049,0 1.826,0 c 0.113,0 0.244,-0.018 0.392,-0.053 0.149,-0.036 0.272,-0.075 0.372,-0.117 l 1.952,-1.953 c 0.043,-0.099 0.081,-0.219 0.117,-0.36 0.035,-0.142 0.053,-0.27 0.053,-0.383 l 0,-0.742 z m -14.646,0.339 0,-7.62 0,-1.103 c 0,-0.114 -0.018,-0.241 -0.053,-0.382 -0.035,-0.142 -0.074,-0.262 -0.116,-0.361 l -1.953,-1.953 c -0.099,-0.057 -0.223,-0.099 -0.371,-0.127 -0.149,-0.029 -0.28,-0.043 -0.393,-0.043 l -0.446,0 -5.136,0 -1.146,0 c -0.114,0 -0.241,0.014 -0.383,0.043 -0.141,0.028 -0.262,0.07 -0.36,0.127 l -1.953,1.953 c -0.057,0.099 -0.099,0.219 -0.127,0.361 -0.029,0.141 -0.043,0.268 -0.043,0.382 l 0,0.445 0,7.578 0,1.103 c 0,0.113 0.014,0.241 0.043,0.383 0.028,0.141 0.07,0.261 0.127,0.36 l 1.953,1.953 c 0.098,0.042 0.219,0.081 0.36,0.117 0.142,0.035 0.269,0.053 0.383,0.053 l 0.912,0 4.457,0 1.359,0 c 0.113,0 0.244,-0.018 0.393,-0.053 0.148,-0.036 0.272,-0.075 0.371,-0.117 l 1.953,-1.953 c 0.042,-0.099 0.081,-0.219 0.116,-0.36 0.035,-0.142 0.053,-0.27 0.053,-0.383 l 0,-0.403 z m -14.496,-0.679 0,-8.66 0,-1.846 c 0,-0.114 -0.039,-0.209 -0.117,-0.287 -0.078,-0.078 -0.173,-0.117 -0.286,-0.117 l -2.951,0 c -0.113,0 -0.205,0.039 -0.276,0.117 -0.071,0.078 -0.106,0.173 -0.106,0.287 l 0,2.907 0,5.498 0,2.441 -2.377,0 0,-2.696 0,-6.559 0,-1.591 c 0,-0.114 -0.035,-0.209 -0.106,-0.287 -0.071,-0.078 -0.163,-0.117 -0.276,-0.117 l -2.674,0 c -0.114,0 -0.209,0.039 -0.287,0.117 -0.078,0.078 -0.117,0.173 -0.117,0.287 l 0,1.889 0,6.855 0,2.102 -2.377,0 0,-3.651 0,-5.179 0,-2.016 c 0,-0.269 -0.135,-0.404 -0.403,-0.404 l -2.929,0 c -0.269,0 -0.403,0.135 -0.403,0.404 l 0,2.971 0,9.254 0,1.826 c 0,0.113 0.038,0.208 0.116,0.286 0.078,0.078 0.173,0.117 0.287,0.117 l 1.231,0 10.103,0 1.061,0 c 0.113,0 0.244,-0.018 0.393,-0.053 0.148,-0.036 0.272,-0.075 0.371,-0.117 l 1.953,-1.953 c 0.042,-0.099 0.081,-0.219 0.117,-0.36 0.035,-0.142 0.053,-0.27 0.053,-0.383 l 0,-1.082 z m 78.347,7.087 -11.265,0 -4.628,7.5 c -0.008,0.007 -0.018,0.008 -0.026,0.017 1.265,2.297 2.287,4.744 3.04,7.306 0.115,-0.024 0.225,-0.071 0.349,-0.071 l 11.518,2.747 c 1.012,0 1.751,0.82 1.751,1.835 l 0,11.599 c 0.003,1.012 -0.735,1.83 -1.747,1.83 l -11.563,2.746 c -0.123,0 -0.209,-0.046 -0.326,-0.07 -0.787,2.685 -1.865,5.242 -3.215,7.633 l 5.842,9.457 c 0.716,0.716 0.718,1.879 0.002,2.589 L -18,82.161 c -0.716,0.72 -1.878,0.72 -2.587,0.007 l -9.62,-5.939 c -2.238,1.209 -4.616,2.182 -7.102,2.907 l -2.612,11.249 c 0,1.009 -0.817,2.045 -1.835,2.045 l -11.596,0 c -1.012,0 -1.836,-1.038 -1.836,-2.045 L -57.8,79.244 c -2.622,-0.766 -5.127,-1.866 -7.471,-3.168 -0.089,0.185 -0.192,0.338 -0.345,0.491 l -10.144,6.249 c -0.716,0.719 -1.88,0.71 -2.596,-0.006 l -8.202,-8.209 c -0.716,-0.716 -0.716,-1.875 0,-2.587 l 6.263,-10.153 c 0.169,-0.169 0.367,-0.291 0.573,-0.38 -1.239,-2.264 -2.235,-4.675 -2.976,-7.195 -0.118,0.024 -0.227,0.071 -0.351,0.071 l -11.831,-2.74 c -1.012,0 -2.057,-0.831 -2.057,-1.843 l 0,-11.599 c 0,-1.015 1.045,-1.832 2.057,-1.832 l 11.715,-2.747 c 0.122,0 0.29,0.047 0.405,0.071 0.741,-2.516 1.762,-4.925 2.997,-7.186 l -4.703,-7.64 -11.732,0 c -0.706,0 -1.278,-0.572 -1.278,-1.278 l 0,-18.58 c 0,-0.706 0.572,-1.278 1.278,-1.278 l 96.667,0 c 0.706,0 1.278,0.572 1.278,1.278 l 0,18.58 c 0,0.706 -0.572,1.278 -1.278,1.278"
             style="fill:#da2b25;fill-opacity:1;fill-rule:nonzero;stroke:none"
             id="path100" /></g><g
           id="g102"
           transform="translate(633.7059,568.627)"><path
             d="M 0,0 -5.434,0 C -5.547,0 -5.643,0.035 -5.72,0.106 -5.798,0.177 -5.837,0.269 -5.837,0.382 l 0,10.464 c 0,0.269 -0.134,0.403 -0.403,0.403 l -2.929,0 c -0.269,0 -0.403,-0.134 -0.403,-0.403 l 0,-14.051 c 0,-0.269 0.134,-0.403 0.403,-0.403 l 9.169,0 c 0.113,0 0.205,0.039 0.276,0.117 0.071,0.077 0.106,0.173 0.106,0.286 l 0,2.802 c 0,0.113 -0.035,0.208 -0.106,0.286 C 0.205,-0.039 0.113,0 0,0"
             style="fill:#da2b25;fill-opacity:1;fill-rule:nonzero;stroke:none"
             id="path104" /></g><path
           d="m 644.929,572.808 -5.009,0 0,3.757 5.009,0 0,-3.757 z m 3.566,4.967 -1.953,1.953 c -0.099,0.042 -0.223,0.081 -0.371,0.116 -0.149,0.036 -0.28,0.054 -0.393,0.054 l -0.233,0 -0.637,0 -4.33,0 -1.21,0 -0.318,0 c -0.114,0 -0.241,-0.018 -0.382,-0.054 -0.142,-0.035 -0.262,-0.074 -0.361,-0.116 l -1.953,-1.953 c -0.042,-0.099 -0.078,-0.212 -0.106,-0.34 -0.028,-0.127 -0.05,-0.247 -0.064,-0.36 l 0,-0.064 0,-0.34 0,-11.249 c 0,-0.113 0.039,-0.205 0.117,-0.276 0.078,-0.071 0.173,-0.106 0.287,-0.106 l 2.95,0 c 0.113,0 0.205,0.035 0.276,0.106 0.071,0.071 0.106,0.163 0.106,0.276 l 0,3.821 c 0,0.113 0.039,0.205 0.117,0.276 0.077,0.07 0.173,0.106 0.286,0.106 l 4.203,0 c 0.113,0 0.208,-0.036 0.286,-0.106 0.078,-0.071 0.117,-0.163 0.117,-0.276 l 0,-3.821 c 0,-0.113 0.035,-0.205 0.106,-0.276 0.071,-0.071 0.163,-0.106 0.276,-0.106 l 2.95,0 c 0.114,0 0.209,0.035 0.287,0.106 0.078,0.071 0.117,0.163 0.117,0.276 l 0,11.164 0,0.192 0,0.233 c 0,0.113 -0.018,0.244 -0.053,0.393 -0.036,0.148 -0.075,0.272 -0.117,0.371"
           style="fill:#da2b25;fill-opacity:1;fill-rule:nonzero;stroke:none"
           id="path106" /><path
           d="m 659.927,573.997 -5.71,0 0,2.653 5.71,0 0,-2.653 z m 0,-5.731 -5.71,0 0,2.887 5.71,0 0,-2.887 z m 3.226,9.488 -1.953,1.953 c -0.099,0.042 -0.223,0.081 -0.371,0.116 -0.149,0.035 -0.28,0.053 -0.393,0.053 l -0.042,0 -9.148,0 c -0.114,0 -0.209,-0.039 -0.287,-0.116 -0.078,-0.078 -0.117,-0.174 -0.117,-0.287 l 0,-14.051 c 0,-0.269 0.135,-0.403 0.404,-0.403 l 6.601,0 2.101,0 0.488,0 c 0.113,0 0.244,0.014 0.393,0.042 0.148,0.028 0.272,0.071 0.371,0.128 l 1.953,1.952 c 0.042,0.099 0.081,0.22 0.117,0.361 0.035,0.141 0.053,0.269 0.053,0.382 l 0,0.276 0,0.467 0,1.762 c 0,0.113 -0.029,0.237 -0.085,0.371 -0.057,0.135 -0.121,0.244 -0.191,0.329 l -0.87,1.061 c -0.071,0.071 -0.11,0.17 -0.117,0.298 -0.008,0.127 0.024,0.233 0.095,0.318 l 0.913,1.167 c 0.071,0.085 0.131,0.195 0.181,0.329 0.049,0.135 0.074,0.258 0.074,0.372 l 0,1.677 0,0.212 0,0.467 c 0,0.113 -0.018,0.244 -0.053,0.392 -0.036,0.149 -0.075,0.273 -0.117,0.372"
           style="fill:#da2b25;fill-opacity:1;fill-rule:nonzero;stroke:none"
           id="path108" /></g><text
         xml:space="preserve"
         style="font-size:25.60000038px;font-style:normal;font-weight:normal;line-height:125%;letter-spacing:0px;word-spacing:0px;fill:#000000;fill-opacity:1;stroke:none;font-family:Sans"
         x="1304.0725"
         y="-299.11371"
         id="text3231"
         sodipodi:linespacing="125%"
         transform="scale(1,-1)"><tspan
           sodipodi:role="line"
           id="tspan3233"
           x="1304.0725"
           y="-299.11371">#FBC227</tspan></text>
<text
         xml:space="preserve"
         style="font-size:25.60000038px;font-style:normal;font-weight:normal;line-height:125%;letter-spacing:0px;word-spacing:0px;fill:#000000;fill-opacity:1;stroke:none;font-family:Sans"
         x="993.88049"
         y="-121.10215"
         id="text3235"
         sodipodi:linespacing="125%"
         transform="scale(1,-1)"><tspan
           sodipodi:role="line"
           id="tspan3237"
           x="993.88049"
           y="-121.10215">#2A3B3E</tspan></text>
<text
         xml:space="preserve"
         style="font-size:25.60000038px;font-style:normal;font-weight:normal;line-height:125%;letter-spacing:0px;word-spacing:0px;fill:#000000;fill-opacity:1;stroke:none;font-family:Sans"
         x="1294.1195"
         y="-121.08967"
         id="text3239"
         sodipodi:linespacing="125%"
         transform="scale(1,-1)"><tspan
           sodipodi:role="line"
           id="tspan3241"
           x="1294.1195"
           y="-121.08967">#EAEBEA</tspan></text>
<text
         xml:space="preserve"
         style="font-size:25.60000038px;font-style:normal;font-weight:normal;line-height:125%;letter-spacing:0px;word-spacing:0px;fill:#000000;fill-opacity:1;stroke:none;font-family:Sans"
         x="1596.8209"
         y="-121.10215"
         id="text3243"
         sodipodi:linespacing="125%"
         transform="scale(1,-1)"><tspan
           sodipodi:role="line"
           id="tspan3245"
           x="1596.8209"
           y="-121.10215">#DA2B25</tspan></text>
<text
         xml:space="preserve"
         style="font-size:27.20000076px;font-style:normal;font-weight:normal;line-height:125%;letter-spacing:0px;word-spacing:0px;fill:#000000;fill-opacity:1;stroke:none;font-family:Sans"
         x="177.25256"
         y="-522.26196"
         id="text3247"
         sodipodi:linespacing="125%"
         transform="scale(1,-1)"><tspan
           sodipodi:role="line"
           id="tspan3249"
           x="177.25256"
           y="-522.26196">black: #100F0D</tspan></text>
</g><text
       transform="matrix(1,0,0,-1,110.7578,345.1689)"
       id="text110"><tspan
         style="fill:#231f20;fill-opacity:1;fill-rule:nonzero;stroke:none;font-family:Tungsten Semibold;font-variant:normal;font-weight:600;font-stretch:normal;font-size:36;writing-mode:lr;-inkscape-font-specification:Tungsten-Semibold"
         x="0 13.716 24.3 37.512 51.048 61.74 75.024"
         y="0"
         sodipodi:role="line"
         id="tspan112">HEADER </tspan></text>
<text
       transform="matrix(1,0,0,-1,110.7588,313.2881)"
       id="text114"><tspan
         style="fill:#4f4c4d;fill-opacity:1;fill-rule:nonzero;stroke:none;font-family:Roboto Slab;font-variant:normal;font-weight:normal;font-stretch:normal;font-size:11;writing-mode:lr;-inkscape-font-specification:RobotoSlab-Regular"
         x="0 6.4251 12.419 16.8388 22.7876 33.1826 35.9216 39.3008 45.9349 51.5867 58.4826 68.8776 71.6166 78.0648 84.0961 87.4313 93.4241 97.9781 100.7171 106.2765 109.6546 113.6806 116.4196 122.6731 132.9295 138.7485 142.8141 144.9811 147.7201 153.6249 159.6936 166.8073 172.4173 178.3353 184.2962 188.1374 193.9553 198.0836 204.8761 209.4301 212.1691 218.2147 224.9456 228.3237 234.8412 238.469 244.0878 249.9783 253.7953 260.7935 267.0195 269.7585 275.6765 279.2691 282.6483 286.6743 289.3253"
         y="0"
         sodipodi:role="line"
         id="tspan116">Lorem ipsum dolor sit amet, consectetur adipiscing elit. </tspan><tspan
         style="fill:#4f4c4d;fill-opacity:1;fill-rule:nonzero;stroke:none;font-family:Roboto Slab;font-variant:normal;font-weight:normal;font-stretch:normal;font-size:11;writing-mode:lr;-inkscape-font-specification:RobotoSlab-Regular"
         x="0 7.15 12.9987 18.6087 22.7568 26.3241 32.6117 39.4746 42.7746 49.6705 60.0655 62.8045 66.4543 72.4713 78.4707 85.3325 88.9251 92.554 98.164 100.8953 108.1223 111.6885 117.9156 125.0216 127.7507 131.5875 137.5803 142.3587 146.1955 152.1872 156.3463 158.5133 161.2523 167.7841 171.8101 174.5491 181.412 185.075 188.5774 194.8309 205.0994 211.0031 216.997 221.7754 228.5096 234.3539 238.9024 241.6414 247.5594 253.9614 256.7004 267.146 273.3676 279.9324 283.7747 293.9574 300.6344 306.2444"
         y="17.996"
         sodipodi:role="line"
         id="tspan118">Vestibulum iaculis nibh tortor, ut ullamcorper ex maximus </tspan><tspan
         style="fill:#4f4c4d;fill-opacity:1;fill-rule:nonzero;stroke:none;font-family:Roboto Slab;font-variant:normal;font-weight:normal;font-stretch:normal;font-size:11;writing-mode:lr;-inkscape-font-specification:RobotoSlab-Regular"
         x="0 6.9454 12.87 18.7473 21.3983 24.1373 30.8418 37.9984 44.0363 49.6463 55.5566 59.2207 62.5218 69.1988 74.8088 77.5478 84.1863 90.0746 96.5921 100.1594 106.4481 113.1251 118.7351 121.4741 128.0994 134.8908 139.7121 146.3891 151.9991 154.7381 160.6561 167.1373 169.3043 172.0433 178.0614 183.9904 186.7294 192.9576 196.4578 202.6849 209.6897 216.4184 219.7965 223.8225 226.5615 232.4069 236.8322 242.9757 248.5857 251.3181 255.4684 260.1819 263.8097 269.4197 273.5667 277.0845 283.2599 289.8577 295.7757"
         y="35.992"
         sodipodi:role="line"
         id="tspan120">nec. Phasellus dapibus purus ex, ac blandit eros tristique </tspan><tspan
         style="fill:#4f4c4d;fill-opacity:1;fill-rule:nonzero;stroke:none;font-family:Roboto Slab;font-variant:normal;font-weight:normal;font-stretch:normal;font-size:11;writing-mode:lr;-inkscape-font-specification:RobotoSlab-Regular"
         x="0 6.1754 12.9668 16.5946 22.2134 24.8644 27.6034 35.4827 42.2763 45.9019 51.5218 57.6983 64.2961 70.2141 72.9531 76.7954 82.7431 92.9137 99.539 106.216 111.826 114.565 121.5104 127.4361 133.3651 136.1041 139.6978 143.2101 149.4361 156.299 159.8003 165.8613 168.5937 172.1126 178.7126 181.4516 187.4686 193.3734 199.3728 206.2676 216.6934 222.3034 228.5272 235.7256 238.3766 241.1156 248.1754 252.6018 258.5946 262.4127 269.4967 272.2247 282.6714 288.5839 292.6704 296.8207 300.4474 306.0574"
         y="53.988"
         sodipodi:role="line"
         id="tspan122">quis. Quisque tempus nec ligula id accumsan. Proin mattis </tspan><tspan
         style="fill:#4f4c4d;fill-opacity:1;fill-rule:nonzero;stroke:none;font-family:Roboto Slab;font-variant:normal;font-weight:normal;font-stretch:normal;font-size:11;writing-mode:lr;-inkscape-font-specification:RobotoSlab-Regular"
         x="0 5.9653 12.595 18.5559 22.3927 28.3844 32.9384 35.6719 39.5098 45.5026 50.2799 54.1167 60.1095 64.1982 66.8492 69.5882 76.6491 81.1657 87.1838 93.0336 98.6436 104.5616 111.3662 115.3922 118.1312 125.0755 131.0012 136.9302 139.6692 143.2618 146.7752 153.0012 159.863 163.3654 169.4264 172.1588 178.1758 184.1048 186.8438 190.179 196.174 200.5938 206.5415 216.9365 219.6755 223.8258 227.6406 234.597 240.4864 244.0042 250.4414 257.3076 264.1122 268.1382"
         y="71.984"
         sodipodi:role="line"
         id="tspan124">auctor tortor. Praesent nec ligula ac lorem tincidunt </tspan><tspan
         style="fill:#4f4c4d;fill-opacity:1;fill-rule:nonzero;stroke:none;font-family:Roboto Slab;font-variant:normal;font-weight:normal;font-stretch:normal;font-size:11;writing-mode:lr;-inkscape-font-specification:RobotoSlab-Regular"
         x="0 6.017 11.9218 17.9212 24.816 35.2418 40.8518 47.0767 54.1607 56.8887 62.4987 68.4167 75.0167 77.7557 83.5857 90.2627 93.0017 97.7152 101.3419 106.9926 113.6696 119.2917 121.9427 124.6817 131.4214 138.0984 143.7084 150.4448 156.3628 163.3676 170.0963 173.7241 179.3165 184.9265 190.8379 193.5769 199.8876 203.3262 209.3278 215.1721 219.8856 224.4022 230.4632 233.1945 239.0399 243.4652 249.6087 255.2187 257.9511 263.8768 270.1204 275.9394 279.9654"
         y="89.98"
         sodipodi:role="line"
         id="tspan126">accumsan sed eu risus. Suspendisse viverra eros eget </tspan></text>
<text
       transform="matrix(1,0,0,-1,110.7588,205.3121)"
       id="text128"><tspan
         style="fill:#4f4c4d;fill-opacity:1;fill-rule:nonzero;stroke:none;font-family:Roboto Slab;font-variant:normal;font-weight:normal;font-stretch:normal;font-size:11;writing-mode:lr;-inkscape-font-specification:RobotoSlab-Regular"
         x="0 10.2564 16.0754 20.2037 26.8807 32.4907 35.2297 41.107 45.2188 51.744 57.6334 61.0115 65.1409 71.9323 76.0936 78.2606 80.9996 87.175 93.9664 97.5942 103.2042 105.9366 111.5466 117.5735 121.2376 124.8313 128.3139 134.2033 137.5825 141.7119 148.3394 155.0692 158.8851 165.9691 168.6982 174.548 180.158 184.184 186.9175 192.8355 196.1707 202.1195 212.3759 218.2939 225.0985 229.2268 236.1216 246.631 249.282 252.021 259.6726 265.7413 272.6856 278.6124 284.5414"
         y="0"
         sodipodi:role="line"
         id="tspan130">metus efﬁcitur, quis sollicitudin est elementum. Donec </tspan></text>
<text
       transform="matrix(1,0,0,-1,110.7588,187.3161)"
       id="text132"><tspan
         style="fill:#4f4c4d;fill-opacity:1;fill-rule:nonzero;stroke:none;font-family:Roboto Slab;font-variant:normal;font-weight:normal;font-stretch:normal;font-size:11;writing-mode:lr;-inkscape-font-specification:RobotoSlab-Regular"
         x="0 5.8289 12.6214 16.2481 21.9087 32.1673 38.4087 45.0087 47.7477 51.59 57.5377 67.7083 74.4425 80.4353 84.9893 87.7228 94.9498 98.5765 104.2063 107.6713 110.4103 117.3557 123.2803 129.2093 131.9483 138.8101 142.0419 146.1922 150.9057 154.3883 160.2777 163.7603 169.6101 175.2278 177.8788 180.6178 187.6468 192.1634 198.2013 203.8113 206.5437 212.5453 218.4633 221.9283 224.6618 230.5666 236.6353 243.749 249.359 255.277 261.4524 268.1525 274.0661 278.0921"
         y="0"
         sodipodi:role="line"
         id="tspan134">euismod tempor nisl nec ultricies. Cras vel consequat </tspan><tspan
         style="fill:#4f4c4d;fill-opacity:1;fill-rule:nonzero;stroke:none;font-family:Roboto Slab;font-variant:normal;font-weight:normal;font-stretch:normal;font-size:11;writing-mode:lr;-inkscape-font-specification:RobotoSlab-Regular"
         x="0 3.0767 9.7537 15.3637 19.2027 25.2681 27.4351 30.1741 35.992 40.018 42.757 48.367 54.3961 58.0602 61.6539 65.1354 71.0259 74.4051 78.5323 85.162 91.8907 95.7077 102.7917 105.5197 112.4651 118.3897 124.5662 131.164 136.9291"
         y="17.996"
         sodipodi:role="line"
         id="tspan136">justo, et sollicitudin neque.</tspan></text>
<text
       transform="matrix(1,0,0,-1,482.3604,345.1689)"
       id="text138"><tspan
         style="fill:#231f20;fill-opacity:1;fill-rule:nonzero;stroke:none;font-family:Tungsten Semibold;font-variant:normal;font-weight:600;font-stretch:normal;font-size:36;writing-mode:lr;-inkscape-font-specification:Tungsten-Semibold"
         x="0 13.716 24.3 37.512 51.048 61.74 75.024"
         y="0"
         sodipodi:role="line"
         id="tspan140">HEADER </tspan></text>
<text
       transform="matrix(1,0,0,-1,482.3613,313.2881)"
       id="text142"><tspan
         style="fill:#4f4c4d;fill-opacity:1;fill-rule:nonzero;stroke:none;font-family:Roboto Slab;font-variant:normal;font-weight:normal;font-stretch:normal;font-size:11;writing-mode:lr;-inkscape-font-specification:RobotoSlab-Regular"
         x="0 6.4251 12.419 16.8388 22.7876 33.1826 35.9216 39.3008 45.9349 51.5867 58.4826 68.8776 71.6166 78.0648 84.0961 87.4313 93.4241 97.9781 100.7171 106.2765 109.6546 113.6806 116.4196 122.6731 132.9295 138.7485 142.8141 144.9811 147.7201 153.6249 159.6936 166.8073 172.4173 178.3353 184.2962 188.1374 193.9553 198.0836 204.8761 209.4301 212.1691 218.2147 224.9456 228.3237 234.8412 238.469 244.0878 249.9783 253.7953 260.7935 267.0195 269.7585 275.6765 279.2691 282.6483 286.6743 289.3253"
         y="0"
         sodipodi:role="line"
         id="tspan144">Lorem ipsum dolor sit amet, consectetur adipiscing elit. </tspan><tspan
         style="fill:#4f4c4d;fill-opacity:1;fill-rule:nonzero;stroke:none;font-family:Roboto Slab;font-variant:normal;font-weight:normal;font-stretch:normal;font-size:11;writing-mode:lr;-inkscape-font-specification:RobotoSlab-Regular"
         x="0 7.15 12.9987 18.6087 22.7568 26.3241 32.6117 39.4746 42.7746 49.6705 60.0655 62.8045 66.4543 72.4713 78.4707 85.3325 88.9251 92.554 98.164 100.8953 108.1223 111.6885 117.9156 125.0216 127.7507 131.5875 137.5803 142.3587 146.1955 152.1872 156.3463 158.5133 161.2523 167.7841 171.8101 174.5491 181.412 185.075 188.5774 194.8309 205.0994 211.0031 216.997 221.7754 228.5096 234.3539 238.9024 241.6414 247.5594 253.9614 256.7004 267.146 273.3676 279.9324 283.7747 293.9574 300.6344 306.2444"
         y="17.996"
         sodipodi:role="line"
         id="tspan146">Vestibulum iaculis nibh tortor, ut ullamcorper ex maximus </tspan><tspan
         style="fill:#4f4c4d;fill-opacity:1;fill-rule:nonzero;stroke:none;font-family:Roboto Slab;font-variant:normal;font-weight:normal;font-stretch:normal;font-size:11;writing-mode:lr;-inkscape-font-specification:RobotoSlab-Regular"
         x="0 6.9454 12.87 18.7473 21.3983 24.1373 30.8418 37.9984 44.0363 49.6463 55.5566 59.2207 62.5218 69.1988 74.8088 77.5478 84.1863 90.0746 96.5921 100.1594 106.4481 113.1251 118.7351 121.4741 128.0994 134.8908 139.7121 146.3891 151.9991 154.7381 160.6561 167.1373 169.3043 172.0433 178.0614 183.9904 186.7294 192.9576 196.4578 202.6849 209.6897 216.4184 219.7965 223.8225 226.5615 232.4069 236.8322 242.9757 248.5857 251.3181 255.4684 260.1819 263.8097 269.4197 273.5667 277.0845 283.2599 289.8577 295.7757"
         y="35.992"
         sodipodi:role="line"
         id="tspan148">nec. Phasellus dapibus purus ex, ac blandit eros tristique </tspan><tspan
         style="fill:#4f4c4d;fill-opacity:1;fill-rule:nonzero;stroke:none;font-family:Roboto Slab;font-variant:normal;font-weight:normal;font-stretch:normal;font-size:11;writing-mode:lr;-inkscape-font-specification:RobotoSlab-Regular"
         x="0 6.1754 12.9668 16.5946 22.2134 24.8644 27.6034 35.4827 42.2763 45.9019 51.5218 57.6983 64.2961 70.2141 72.9531 76.7954 82.7431 92.9137 99.539 106.216 111.826 114.565 121.5104 127.4361 133.3651 136.1041 139.6978 143.2101 149.4361 156.299 159.8003 165.8613 168.5937 172.1126 178.7126 181.4516 187.4686 193.3734 199.3728 206.2676 216.6934 222.3034 228.5272 235.7256 238.3766 241.1156 248.1754 252.6018 258.5946 262.4127 269.4967 272.2247 282.6714 288.5839 292.6704 296.8207 300.4474 306.0574"
         y="53.988"
         sodipodi:role="line"
         id="tspan150">quis. Quisque tempus nec ligula id accumsan. Proin mattis </tspan><tspan
         style="fill:#4f4c4d;fill-opacity:1;fill-rule:nonzero;stroke:none;font-family:Roboto Slab;font-variant:normal;font-weight:normal;font-stretch:normal;font-size:11;writing-mode:lr;-inkscape-font-specification:RobotoSlab-Regular"
         x="0 5.9653 12.595 18.5559 22.3927 28.3844 32.9384 35.6719 39.5098 45.5026 50.2799 54.1167 60.1095 64.1982 66.8492 69.5882 76.6491 81.1657 87.1838 93.0336 98.6436 104.5616 111.3662 115.3922 118.1312 125.0755 131.0012 136.9302 139.6692 143.2618 146.7752 153.0012 159.863 163.3654 169.4264 172.1588 178.1758 184.1048 186.8438 190.179 196.174 200.5938 206.5415 216.9365 219.6755 223.8258 227.6406 234.597 240.4864 244.0042 250.4414 257.3076 264.1122 268.1382"
         y="71.984"
         sodipodi:role="line"
         id="tspan152">auctor tortor. Praesent nec ligula ac lorem tincidunt </tspan><tspan
         style="fill:#4f4c4d;fill-opacity:1;fill-rule:nonzero;stroke:none;font-family:Roboto Slab;font-variant:normal;font-weight:normal;font-stretch:normal;font-size:11;writing-mode:lr;-inkscape-font-specification:RobotoSlab-Regular"
         x="0 6.017 11.9218 17.9212 24.816 35.2418 40.8518 47.0767 54.1607 56.8887 62.4987 68.4167 75.0167 77.7557 83.5857 90.2627 93.0017 97.7152 101.3419 106.9926 113.6696 119.2917 121.9427 124.6817 131.4214 138.0984 143.7084 150.4448 156.3628 163.3676 170.0963 173.7241 179.3165 184.9265 190.8379 193.5769 199.8876 203.3262 209.3278 215.1721 219.8856 224.4022 230.4632 233.1945 239.0399 243.4652 249.6087 255.2187 257.9511 263.8768 270.1204 275.9394 279.9654"
         y="89.98"
         sodipodi:role="line"
         id="tspan154">accumsan sed eu risus. Suspendisse viverra eros eget </tspan></text>
<text
       transform="matrix(1,0,0,-1,482.3613,205.3121)"
       id="text156"><tspan
         style="fill:#4f4c4d;fill-opacity:1;fill-rule:nonzero;stroke:none;font-family:Roboto Slab;font-variant:normal;font-weight:normal;font-stretch:normal;font-size:11;writing-mode:lr;-inkscape-font-specification:RobotoSlab-Regular"
         x="0 10.2564 16.0754 20.2037 26.8807 32.4907 35.2297 41.107 45.2188 51.744 57.6334 61.0115 65.1409 71.9323 76.0936 78.2606 80.9996 87.175 93.9664 97.5942 103.2042 105.9366 111.5466 117.5735 121.2376 124.8313 128.3139 134.2033 137.5825 141.7119 148.3394 155.0692 158.8851 165.9691 168.6982 174.548 180.158 184.184 186.9175 192.8355 196.1707 202.1195 212.3759 218.2939 225.0985 229.2268 236.1216 246.631 249.282 252.021 259.6726 265.7413 272.6856 278.6124 284.5414"
         y="0"
         sodipodi:role="line"
         id="tspan158">metus efﬁcitur, quis sollicitudin est elementum. Donec </tspan></text>
<text
       transform="matrix(1,0,0,-1,482.3613,187.3161)"
       id="text160"><tspan
         style="fill:#4f4c4d;fill-opacity:1;fill-rule:nonzero;stroke:none;font-family:Roboto Slab;font-variant:normal;font-weight:normal;font-stretch:normal;font-size:11;writing-mode:lr;-inkscape-font-specification:RobotoSlab-Regular"
         x="0 5.8289 12.6214 16.2481 21.9087 32.1673 38.4087 45.0087 47.7477 51.59 57.5377 67.7083 74.4425 80.4353 84.9893 87.7228 94.9498 98.5765 104.2063 107.6713 110.4103 117.3557 123.2803 129.2093 131.9483 138.8101 142.0419 146.1922 150.9057 154.3883 160.2777 163.7603 169.6101 175.2278 177.8788 180.6178 187.6468 192.1634 198.2013 203.8113 206.5437 212.5453 218.4633 221.9283 224.6618 230.5666 236.6353 243.749 249.359 255.277 261.4524 268.1525 274.0661 278.0921"
         y="0"
         sodipodi:role="line"
         id="tspan162">euismod tempor nisl nec ultricies. Cras vel consequat </tspan><tspan
         style="fill:#4f4c4d;fill-opacity:1;fill-rule:nonzero;stroke:none;font-family:Roboto Slab;font-variant:normal;font-weight:normal;font-stretch:normal;font-size:11;writing-mode:lr;-inkscape-font-specification:RobotoSlab-Regular"
         x="0 3.0767 9.7537 15.3637 19.2027 25.2681 27.4351 30.1741 35.992 40.018 42.757 48.367 54.3961 58.0602 61.6539 65.1354 71.0259 74.4051 78.5323 85.162 91.8907 95.7077 102.7917 105.5197 112.4651 118.3897 124.5662 131.164 136.9291"
         y="17.996"
         sodipodi:role="line"
         id="tspan164">justo, et sollicitudin neque.</tspan></text>
<g
       id="g166"><g
         id="g168"
         clip-path="url(#clipPath170)"><g
           id="g174"
           transform="translate(79,475)"><path
             d="M 0,0 1740,0"
             style="fill:none;stroke:#4f4c4d;stroke-opacity:1;stroke-width:1;stroke-linecap:butt;stroke-linejoin:miter;stroke-miterlimit:10;stroke-dasharray:none"
             id="path176" /></g><path
           d="m 1312.06,662.978 -234.95,0 0,93.524 234.95,0 0,-93.524 z"
           style="fill:#100f0d;fill-opacity:1;fill-rule:nonzero;stroke:none"
           id="path178" /><g
           id="g180"
           transform="translate(1308.7565,668.5259)"><path
             d="m 0,0 c 0,-2.172 -1.761,-3.933 -3.933,-3.933 l -224.844,0 0,91.794 224.844,0 C -1.761,87.861 0,86.1 0,83.928 L 0,0 z m 2.378,95.569 -490.334,0 c -3.581,0 -6.483,-2.902 -6.483,-6.483 l 0,-94.244 c 0,-3.58 2.902,-6.483 6.483,-6.483 l 490.334,0 c 3.58,0 6.482,2.903 6.482,6.483 l 0,94.244 c 0,3.581 -2.902,6.483 -6.482,6.483"
             style="fill:#fbc227;fill-opacity:1;fill-rule:nonzero;stroke:none"
             id="path182" /></g><g
           id="g184"
           transform="translate(913.4582,735.5754)"><path
             d="m 0,0 c 0.178,-0.718 0.269,-1.365 0.269,-1.938 l 0,-5.491 0,-43.926 0,-9.366 c 0,-0.576 -0.198,-1.06 -0.592,-1.454 -0.395,-0.395 -0.88,-0.592 -1.453,-0.592 l -14.965,0 c -0.576,0 -1.041,0.197 -1.4,0.592 -0.36,0.394 -0.538,0.878 -0.538,1.454 l 0,14.749 0,27.885 0,12.381 -12.059,0 0,-13.674 0,-33.267 0,-8.074 c 0,-0.576 -0.179,-1.06 -0.538,-1.454 -0.36,-0.395 -0.826,-0.592 -1.399,-0.592 l -13.565,0 c -0.576,0 -1.06,0.197 -1.454,0.592 -0.396,0.394 -0.592,0.878 -0.592,1.454 l 0,9.581 0,34.775 0,10.659 -12.059,0 0,-18.518 0,-26.269 0,-10.228 c 0,-1.365 -0.683,-2.046 -2.045,-2.046 l -14.857,0 c -1.364,0 -2.046,0.681 -2.046,2.046 l 0,15.072 0,46.941 0,9.259 c 0,0.573 0.197,1.058 0.592,1.453 0.394,0.394 0.878,0.592 1.454,0.592 l 6.244,0 51.247,0 5.383,0 c 0.574,0 1.239,-0.09 1.992,-0.269 0.754,-0.18 1.381,-0.377 1.884,-0.592 L -0.592,1.83 C -0.377,1.327 -0.18,0.716 0,0"
             style="fill:#100f0d;fill-opacity:1;fill-rule:nonzero;stroke:none"
             id="path186" /></g><path
           d="m 968.204,729.869 -25.3,0 0,-38.866 25.3,0 0,38.866 z m 18.195,7.536 c 0.216,-0.502 0.412,-1.113 0.592,-1.83 0.178,-0.718 0.269,-1.364 0.269,-1.938 l 0,-2.045 0,-38.651 0,-5.598 c 0,-0.575 -0.091,-1.222 -0.269,-1.938 -0.18,-0.719 -0.376,-1.329 -0.592,-1.831 l -9.905,-9.904 c -0.503,-0.288 -1.131,-0.503 -1.884,-0.646 -0.754,-0.145 -1.418,-0.216 -1.992,-0.216 l -2.261,0 -26.054,0 -5.813,0 c -0.576,0 -1.222,0.071 -1.939,0.216 -0.718,0.143 -1.329,0.358 -1.83,0.646 l -9.905,9.904 c -0.288,0.502 -0.503,1.112 -0.646,1.831 -0.144,0.716 -0.215,1.363 -0.215,1.938 l 0,2.261 0,38.435 0,5.598 c 0,0.574 0.071,1.22 0.215,1.938 0.143,0.717 0.358,1.328 0.646,1.83 l 9.905,9.905 c 0.501,0.216 1.112,0.413 1.83,0.593 0.717,0.178 1.363,0.269 1.939,0.269 l 4.629,0 22.609,0 6.89,0 c 0.574,0 1.238,-0.091 1.992,-0.269 0.753,-0.18 1.381,-0.377 1.884,-0.593 l 9.905,-9.905 z"
           style="fill:#100f0d;fill-opacity:1;fill-rule:nonzero;stroke:none"
           id="path188" /><g
           id="g190"
           transform="translate(1026.4506,729.869)"><path
             d="m 0,0 -9.259,0 0,-10.981 0,-19.271 0,-8.614 9.689,0 5.276,0 10.335,0 0,7.967 0,19.272 L 16.041,0 5.814,0 0,0 z m 34.237,7.536 c 0.215,-0.502 0.411,-1.113 0.592,-1.83 0.178,-0.718 0.269,-1.364 0.269,-1.938 l 0,-3.768 0,-39.619 0,-2.907 c 0,-0.576 -0.091,-1.222 -0.269,-1.938 -0.181,-0.719 -0.377,-1.329 -0.592,-1.831 l -9.906,-9.904 c -0.502,-0.288 -1.13,-0.503 -1.883,-0.646 -0.754,-0.145 -1.419,-0.216 -1.992,-0.216 l -4.307,0 -34.775,0 -7.536,0 c -1.364,0 -2.046,0.681 -2.046,2.046 l 0,9.151 0,53.185 0,8.936 c 0,0.574 0.198,1.058 0.593,1.454 0.393,0.393 0.878,0.592 1.453,0.592 l 6.675,0 30.684,0 9.259,0 c 0.573,0 1.238,-0.091 1.992,-0.269 0.753,-0.18 1.381,-0.377 1.883,-0.593 l 9.906,-9.905 z"
             style="fill:#100f0d;fill-opacity:1;fill-rule:nonzero;stroke:none"
             id="path192" /></g><g
           id="g194"
           transform="translate(1144.887,691.144)"><path
             d="m 0,0 c 0.574,0 1.04,-0.198 1.4,-0.592 0.358,-0.395 0.538,-0.88 0.538,-1.454 l 0,-14.211 c 0,-0.575 -0.18,-1.06 -0.538,-1.453 -0.36,-0.395 -0.826,-0.592 -1.4,-0.592 l -46.51,0 c -1.364,0 -2.045,0.681 -2.045,2.045 l 0,71.273 c 0,1.362 0.681,2.045 2.045,2.045 l 14.857,0 c 1.363,0 2.046,-0.683 2.046,-2.045 l 0,-53.078 c 0,-0.575 0.197,-1.041 0.592,-1.399 C -28.621,0.178 -28.137,0 -27.561,0 L 0,0 z"
             style="fill:#fbc227;fill-opacity:1;fill-rule:nonzero;stroke:none"
             id="path196" /></g><path
           d="m 1201.815,731.41 -25.408,0 0,-19.056 25.408,0 0,19.056 z m 18.088,6.137 c 0.215,-0.503 0.412,-1.131 0.592,-1.885 0.178,-0.753 0.269,-1.418 0.269,-1.991 l 0,-1.184 0,-0.969 0,-56.631 c 0,-0.575 -0.199,-1.041 -0.592,-1.399 -0.395,-0.36 -0.88,-0.539 -1.454,-0.539 l -14.965,0 c -0.575,0 -1.041,0.179 -1.399,0.539 -0.36,0.358 -0.539,0.824 -0.539,1.399 l 0,19.379 c 0,0.574 -0.198,1.04 -0.592,1.4 -0.395,0.358 -0.879,0.538 -1.453,0.538 l -21.317,0 c -0.576,0 -1.06,-0.18 -1.454,-0.538 -0.395,-0.36 -0.592,-0.826 -0.592,-1.4 l 0,-19.379 c 0,-0.575 -0.179,-1.041 -0.538,-1.399 -0.36,-0.36 -0.826,-0.539 -1.4,-0.539 l -14.965,0 c -0.575,0 -1.06,0.179 -1.453,0.539 -0.395,0.358 -0.592,0.824 -0.592,1.399 l 0,57.061 0,1.723 0,0.323 c 0.071,0.574 0.178,1.184 0.323,1.83 0.143,0.646 0.323,1.22 0.538,1.723 l 9.905,9.904 c 0.501,0.216 1.112,0.413 1.83,0.593 0.717,0.178 1.363,0.269 1.938,0.269 l 1.615,0 6.137,0 21.963,0 3.23,0 1.184,0 c 0.574,0 1.238,-0.091 1.992,-0.269 0.754,-0.18 1.381,-0.377 1.884,-0.593 l 9.905,-9.904 z"
           style="fill:#fbc227;fill-opacity:1;fill-rule:nonzero;stroke:none"
           id="path198" /><path
           d="m 1248.928,689.314 28.961,0 0,14.642 -28.961,0 0,-14.642 z m 0,29.069 28.961,0 0,13.458 -28.961,0 0,-13.458 z m 45.327,19.056 c 0.215,-0.503 0.411,-1.13 0.592,-1.884 0.178,-0.754 0.268,-1.418 0.268,-1.992 l 0,-2.368 0,-1.077 0,-8.506 c 0,-0.574 -0.125,-1.202 -0.376,-1.884 -0.252,-0.683 -0.557,-1.238 -0.915,-1.668 l -4.63,-5.922 c -0.36,-0.43 -0.522,-0.969 -0.484,-1.615 0.035,-0.646 0.232,-1.148 0.592,-1.507 l 4.414,-5.383 c 0.358,-0.43 0.682,-0.987 0.969,-1.669 0.286,-0.683 0.43,-1.31 0.43,-1.884 l 0,-8.936 0,-2.368 0,-1.4 c 0,-0.575 -0.09,-1.221 -0.268,-1.938 -0.181,-0.718 -0.377,-1.329 -0.592,-1.83 l -9.906,-9.905 c -0.502,-0.288 -1.13,-0.503 -1.883,-0.646 -0.754,-0.144 -1.419,-0.215 -1.992,-0.215 l -2.477,0 -10.658,0 -33.483,0 c -1.364,0 -2.046,0.681 -2.046,2.045 l 0,71.273 c 0,0.573 0.198,1.058 0.593,1.453 0.393,0.394 0.878,0.592 1.453,0.592 l 46.402,0 0.216,0 c 0.573,0 1.238,-0.091 1.992,-0.269 0.753,-0.18 1.381,-0.377 1.883,-0.592 l 9.906,-9.905 z"
           style="fill:#fbc227;fill-opacity:1;fill-rule:nonzero;stroke:none"
           id="path200" /><g
           id="g202"
           transform="translate(1578.8457,868.4432)"><path
             d="m 0,0 -5.522,0 0,-6.549 0,-11.493 0,-5.136 5.779,0 3.146,0 6.164,0 0,4.751 0,11.493 0,6.934 -6.1,0 L 0,0 z"
             style="fill:#2a3b3e;fill-opacity:1;fill-rule:nonzero;stroke:none"
             id="path204" /></g><g
           id="g206"
           transform="translate(1747.2039,831.8602)"><path
             d="m 0,0 c 0,-1.295 -1.05,-2.345 -2.345,-2.345 l -134.09,0 0,54.742 134.09,0 C -1.05,52.397 0,51.347 0,50.052 L 0,0 z m -147.427,36.583 0,-23.628 0,-1.733 c 0,-0.343 -0.054,-0.729 -0.16,-1.156 -0.108,-0.428 -0.225,-0.793 -0.353,-1.092 l -5.908,-5.906 c -0.299,-0.172 -0.674,-0.301 -1.123,-0.386 -0.45,-0.086 -0.846,-0.128 -1.188,-0.128 l -2.568,0 -20.739,0 -4.494,0 c -0.814,0 -1.22,0.406 -1.22,1.22 l 0,5.457 0,31.718 0,5.329 c 0,0.342 0.117,0.631 0.353,0.867 0.235,0.235 0.524,0.353 0.867,0.353 l 3.98,0 18.299,0 5.522,0 c 0.342,0 0.738,-0.054 1.188,-0.16 0.449,-0.108 0.824,-0.225 1.123,-0.354 l 5.908,-5.907 c 0.128,-0.299 0.245,-0.664 0.353,-1.091 0.106,-0.428 0.16,-0.814 0.16,-1.156 l 0,-2.247 z m -44.303,1.027 0,-23.05 0,-3.338 c 0,-0.343 -0.054,-0.729 -0.161,-1.156 -0.107,-0.428 -0.224,-0.793 -0.353,-1.092 l -5.907,-5.906 c -0.3,-0.172 -0.674,-0.301 -1.123,-0.386 -0.45,-0.086 -0.846,-0.128 -1.188,-0.128 l -1.349,0 -15.538,0 -3.466,0 c -0.344,0 -0.729,0.042 -1.156,0.128 -0.429,0.085 -0.793,0.214 -1.092,0.386 l -5.907,5.906 c -0.171,0.299 -0.3,0.664 -0.385,1.092 -0.086,0.427 -0.128,0.813 -0.128,1.156 l 0,1.348 0,22.922 0,3.338 c 0,0.342 0.042,0.728 0.128,1.156 0.085,0.427 0.214,0.792 0.385,1.091 l 5.907,5.907 c 0.299,0.129 0.663,0.246 1.092,0.354 0.427,0.106 0.812,0.16 1.156,0.16 l 2.76,0 13.484,0 4.109,0 c 0.342,0 0.738,-0.054 1.188,-0.16 0.449,-0.108 0.823,-0.225 1.123,-0.354 l 5.907,-5.907 c 0.129,-0.299 0.246,-0.664 0.353,-1.091 0.107,-0.428 0.161,-0.814 0.161,-1.156 l 0,-1.22 z m -43.853,-2.054 0,-26.196 0,-5.586 c 0,-0.343 -0.118,-0.632 -0.353,-0.867 -0.236,-0.236 -0.525,-0.353 -0.866,-0.353 l -8.925,0 c -0.343,0 -0.621,0.117 -0.835,0.353 -0.214,0.235 -0.321,0.524 -0.321,0.867 l 0,8.796 0,16.63 0,7.383 -7.191,0 0,-8.154 0,-19.84 0,-4.815 c 0,-0.343 -0.107,-0.632 -0.321,-0.867 -0.215,-0.236 -0.493,-0.353 -0.834,-0.353 l -8.09,0 c -0.344,0 -0.633,0.117 -0.867,0.353 -0.236,0.235 -0.353,0.524 -0.353,0.867 l 0,5.714 0,20.739 0,6.356 -7.192,0 0,-11.043 0,-15.667 0,-6.099 c 0,-0.814 -0.407,-1.22 -1.22,-1.22 l -8.86,0 c -0.813,0 -1.22,0.406 -1.22,1.22 l 0,8.989 0,27.993 0,5.522 c 0,0.342 0.118,0.631 0.353,0.867 0.235,0.235 0.524,0.353 0.867,0.353 l 3.724,0 30.562,0 3.21,0 c 0.342,0 0.739,-0.054 1.188,-0.16 0.45,-0.108 0.824,-0.225 1.124,-0.354 l 5.907,-5.907 c 0.128,-0.299 0.246,-0.664 0.353,-1.091 0.106,-0.428 0.16,-0.814 0.16,-1.156 l 0,-3.274 z m 237.001,21.438 -292.419,0 c -2.136,0 -3.867,-1.73 -3.867,-3.866 l 0,-56.204 c 0,-2.135 1.731,-3.866 3.867,-3.866 l 292.419,0 c 2.135,0 3.866,1.731 3.866,3.866 l 0,56.204 c 0,2.136 -1.731,3.866 -3.866,3.866"
             style="fill:#2a3b3e;fill-opacity:1;fill-rule:nonzero;stroke:none"
             id="path208" /></g><path
           d="m 1529.021,845.265 15.089,0 0,23.178 -15.089,0 0,-23.178 z"
           style="fill:#2a3b3e;fill-opacity:1;fill-rule:nonzero;stroke:none"
           id="path210" /><g
           id="g212"
           transform="translate(1649.4772,845.3489)"><path
             d="m 0,0 -16.437,0 c -0.343,0 -0.632,0.106 -0.866,0.321 -0.236,0.214 -0.353,0.492 -0.353,0.835 l 0,31.654 c 0,0.812 -0.408,1.219 -1.22,1.219 l -8.861,0 c -0.813,0 -1.22,-0.407 -1.22,-1.219 l 0,-42.505 c 0,-0.814 0.407,-1.22 1.22,-1.22 l 27.737,0 c 0.342,0 0.62,0.118 0.835,0.353 0.214,0.235 0.321,0.524 0.321,0.867 l 0,8.475 c 0,0.342 -0.107,0.631 -0.321,0.867 C 0.62,-0.118 0.342,0 0,0"
             style="fill:#2a3b3e;fill-opacity:1;fill-rule:nonzero;stroke:none"
             id="path214" /></g><path
           d="m 1683.428,857.998 -15.153,0 0,11.364 15.153,0 0,-11.364 z m 10.786,15.024 -5.907,5.907 c -0.3,0.128 -0.674,0.246 -1.123,0.353 -0.45,0.106 -0.846,0.161 -1.188,0.161 l -0.706,0 -1.927,0 -13.098,0 -3.659,0 -0.963,0 c -0.343,0 -0.729,-0.055 -1.156,-0.161 -0.429,-0.107 -0.793,-0.225 -1.092,-0.353 l -5.906,-5.907 c -0.129,-0.3 -0.236,-0.642 -0.322,-1.027 -0.086,-0.386 -0.15,-0.75 -0.192,-1.092 l 0,-0.193 0,-1.027 0,-34.029 c 0,-0.343 0.117,-0.621 0.353,-0.835 0.235,-0.214 0.524,-0.321 0.867,-0.321 l 8.924,0 c 0.343,0 0.62,0.107 0.835,0.321 0.214,0.214 0.321,0.492 0.321,0.835 l 0,11.557 c 0,0.342 0.118,0.62 0.353,0.835 0.235,0.213 0.524,0.321 0.867,0.321 l 12.713,0 c 0.342,0 0.631,-0.108 0.866,-0.321 0.235,-0.215 0.354,-0.493 0.354,-0.835 l 0,-11.557 c 0,-0.343 0.106,-0.621 0.321,-0.835 0.213,-0.214 0.491,-0.321 0.834,-0.321 l 8.925,0 c 0.342,0 0.631,0.107 0.867,0.321 0.234,0.214 0.353,0.492 0.353,0.835 l 0,33.772 0,0.578 0,0.706 c 0,0.342 -0.054,0.739 -0.16,1.188 -0.108,0.45 -0.225,0.824 -0.354,1.124"
           style="fill:#2a3b3e;fill-opacity:1;fill-rule:nonzero;stroke:none"
           id="path216" /><path
           d="m 1728.796,861.593 -17.272,0 0,8.026 17.272,0 0,-8.026 z m 0,-17.335 -17.272,0 0,8.732 17.272,0 0,-8.732 z m 9.759,28.699 -5.907,5.908 c -0.299,0.128 -0.674,0.246 -1.123,0.353 -0.45,0.106 -0.846,0.16 -1.188,0.16 l -0.129,0 -27.672,0 c -0.343,0 -0.632,-0.118 -0.867,-0.353 -0.236,-0.236 -0.353,-0.525 -0.353,-0.867 l 0,-42.504 c 0,-0.814 0.406,-1.22 1.22,-1.22 l 19.968,0 6.356,0 1.477,0 c 0.342,0 0.738,0.042 1.188,0.128 0.449,0.086 0.824,0.214 1.123,0.386 l 5.907,5.906 c 0.129,0.299 0.246,0.664 0.354,1.092 0.106,0.427 0.16,0.813 0.16,1.156 l 0,0.834 0,1.413 0,5.329 c 0,0.342 -0.086,0.716 -0.257,1.124 -0.171,0.406 -0.364,0.738 -0.578,0.995 l -2.632,3.21 c -0.215,0.214 -0.332,0.514 -0.353,0.899 -0.023,0.385 0.074,0.706 0.289,0.963 l 2.76,3.532 c 0.214,0.256 0.396,0.587 0.546,0.995 0.15,0.406 0.225,0.78 0.225,1.123 l 0,5.073 0,0.642 0,1.412 c 0,0.342 -0.054,0.738 -0.16,1.188 -0.108,0.45 -0.225,0.824 -0.354,1.123"
           style="fill:#2a3b3e;fill-opacity:1;fill-rule:nonzero;stroke:none"
           id="path218" /><g
           id="g220"
           transform="translate(1578.8457,738.5587)"><path
             d="m 0,0 -5.522,0 0,-6.549 0,-11.493 0,-5.136 5.779,0 3.146,0 6.164,0 0,4.751 0,11.493 0,6.934 -6.1,0 L 0,0 z"
             style="fill:#eaebea;fill-opacity:1;fill-rule:nonzero;stroke:none"
             id="path222" /></g><g
           id="g224"
           transform="translate(1747.2039,701.9758)"><path
             d="m 0,0 c 0,-1.295 -1.05,-2.345 -2.345,-2.345 l -134.09,0 0,54.742 134.09,0 C -1.05,52.397 0,51.348 0,50.052 L 0,0 z m -147.427,36.583 0,-23.628 0,-1.733 c 0,-0.343 -0.054,-0.729 -0.16,-1.156 -0.108,-0.428 -0.225,-0.793 -0.353,-1.092 l -5.908,-5.906 c -0.299,-0.172 -0.674,-0.301 -1.123,-0.386 -0.45,-0.086 -0.846,-0.128 -1.188,-0.128 l -2.568,0 -20.739,0 -4.494,0 c -0.814,0 -1.22,0.406 -1.22,1.22 l 0,5.457 0,31.718 0,5.329 c 0,0.342 0.117,0.631 0.353,0.867 0.235,0.235 0.524,0.353 0.867,0.353 l 3.98,0 18.299,0 5.522,0 c 0.342,0 0.738,-0.054 1.188,-0.16 0.449,-0.108 0.824,-0.225 1.123,-0.354 l 5.908,-5.907 c 0.128,-0.299 0.245,-0.664 0.353,-1.091 0.106,-0.428 0.16,-0.814 0.16,-1.156 l 0,-2.247 z m -44.303,1.027 0,-23.05 0,-3.338 c 0,-0.343 -0.054,-0.729 -0.161,-1.156 -0.107,-0.428 -0.224,-0.793 -0.353,-1.092 l -5.907,-5.906 c -0.3,-0.172 -0.674,-0.301 -1.123,-0.386 -0.45,-0.086 -0.846,-0.128 -1.188,-0.128 l -1.349,0 -15.538,0 -3.466,0 c -0.344,0 -0.729,0.042 -1.156,0.128 -0.429,0.085 -0.793,0.214 -1.092,0.386 l -5.907,5.906 c -0.171,0.299 -0.3,0.664 -0.385,1.092 -0.086,0.427 -0.128,0.813 -0.128,1.156 l 0,1.348 0,22.922 0,3.338 c 0,0.342 0.042,0.728 0.128,1.156 0.085,0.427 0.214,0.792 0.385,1.091 l 5.907,5.907 c 0.299,0.129 0.663,0.246 1.092,0.354 0.427,0.106 0.812,0.16 1.156,0.16 l 2.76,0 13.484,0 4.109,0 c 0.342,0 0.738,-0.054 1.188,-0.16 0.449,-0.108 0.823,-0.225 1.123,-0.354 l 5.907,-5.907 c 0.129,-0.299 0.246,-0.664 0.353,-1.091 0.107,-0.428 0.161,-0.814 0.161,-1.156 l 0,-1.22 z m -43.853,-2.054 0,-26.196 0,-5.586 c 0,-0.343 -0.118,-0.632 -0.353,-0.867 -0.236,-0.236 -0.525,-0.353 -0.866,-0.353 l -8.925,0 c -0.343,0 -0.621,0.117 -0.835,0.353 -0.214,0.235 -0.321,0.524 -0.321,0.867 l 0,8.796 0,16.63 0,7.383 -7.191,0 0,-8.154 0,-19.84 0,-4.815 c 0,-0.343 -0.107,-0.632 -0.321,-0.867 -0.215,-0.236 -0.493,-0.353 -0.834,-0.353 l -8.09,0 c -0.344,0 -0.633,0.117 -0.867,0.353 -0.236,0.235 -0.353,0.524 -0.353,0.867 l 0,5.714 0,20.739 0,6.356 -7.192,0 0,-11.043 0,-15.667 0,-6.099 c 0,-0.814 -0.407,-1.22 -1.22,-1.22 l -8.86,0 c -0.813,0 -1.22,0.406 -1.22,1.22 l 0,8.989 0,27.993 0,5.522 c 0,0.342 0.118,0.631 0.353,0.867 0.235,0.235 0.524,0.353 0.867,0.353 l 3.724,0 30.562,0 3.21,0 c 0.342,0 0.739,-0.054 1.188,-0.16 0.45,-0.108 0.824,-0.225 1.124,-0.354 l 5.907,-5.907 c 0.128,-0.299 0.246,-0.664 0.353,-1.091 0.106,-0.428 0.16,-0.814 0.16,-1.156 l 0,-3.274 z m 237.001,21.438 -292.419,0 c -2.136,0 -3.867,-1.73 -3.867,-3.866 l 0,-56.204 c 0,-2.135 1.731,-3.866 3.867,-3.866 l 292.419,0 c 2.135,0 3.866,1.731 3.866,3.866 l 0,56.204 c 0,2.136 -1.731,3.866 -3.866,3.866"
             style="fill:#eaebea;fill-opacity:1;fill-rule:nonzero;stroke:none"
             id="path226" /></g><path
           d="m 1529.021,715.38 15.089,0 0,23.178 -15.089,0 0,-23.178 z"
           style="fill:#eaebea;fill-opacity:1;fill-rule:nonzero;stroke:none"
           id="path228" /><g
           id="g230"
           transform="translate(1649.4772,715.4644)"><path
             d="m 0,0 -16.437,0 c -0.343,0 -0.632,0.106 -0.866,0.321 -0.236,0.214 -0.353,0.492 -0.353,0.835 l 0,31.654 c 0,0.812 -0.408,1.219 -1.22,1.219 l -8.861,0 c -0.813,0 -1.22,-0.407 -1.22,-1.219 l 0,-42.505 c 0,-0.814 0.407,-1.22 1.22,-1.22 l 27.737,0 c 0.342,0 0.62,0.118 0.835,0.353 0.214,0.235 0.321,0.524 0.321,0.867 l 0,8.475 c 0,0.342 -0.107,0.631 -0.321,0.867 C 0.62,-0.118 0.342,0 0,0"
             style="fill:#eaebea;fill-opacity:1;fill-rule:nonzero;stroke:none"
             id="path232" /></g><path
           d="m 1683.428,728.113 -15.153,0 0,11.364 15.153,0 0,-11.364 z m 10.786,15.025 -5.907,5.906 c -0.3,0.129 -0.674,0.246 -1.123,0.353 -0.45,0.107 -0.846,0.161 -1.188,0.161 l -0.706,0 -1.927,0 -13.098,0 -3.659,0 -0.963,0 c -0.343,0 -0.729,-0.054 -1.156,-0.161 -0.429,-0.107 -0.793,-0.224 -1.092,-0.353 l -5.906,-5.906 c -0.129,-0.301 -0.236,-0.643 -0.322,-1.028 -0.086,-0.385 -0.15,-0.749 -0.192,-1.092 l 0,-0.192 0,-1.027 0,-34.03 c 0,-0.343 0.117,-0.62 0.353,-0.834 0.235,-0.215 0.524,-0.321 0.867,-0.321 l 8.924,0 c 0.343,0 0.62,0.106 0.835,0.321 0.214,0.214 0.321,0.491 0.321,0.834 l 0,11.557 c 0,0.343 0.118,0.621 0.353,0.835 0.235,0.214 0.524,0.321 0.867,0.321 l 12.713,0 c 0.342,0 0.631,-0.107 0.866,-0.321 0.235,-0.214 0.354,-0.492 0.354,-0.835 l 0,-11.557 c 0,-0.343 0.106,-0.62 0.321,-0.834 0.213,-0.215 0.491,-0.321 0.834,-0.321 l 8.925,0 c 0.342,0 0.631,0.106 0.867,0.321 0.234,0.214 0.353,0.491 0.353,0.834 l 0,33.773 0,0.578 0,0.706 c 0,0.342 -0.054,0.739 -0.16,1.188 -0.108,0.449 -0.225,0.823 -0.354,1.124"
           style="fill:#eaebea;fill-opacity:1;fill-rule:nonzero;stroke:none"
           id="path234" /><path
           d="m 1728.796,731.709 -17.272,0 0,8.026 17.272,0 0,-8.026 z m 0,-17.336 -17.272,0 0,8.732 17.272,0 0,-8.732 z m 9.759,28.7 -5.907,5.907 c -0.299,0.129 -0.674,0.246 -1.123,0.353 -0.45,0.107 -0.846,0.161 -1.188,0.161 l -0.129,0 -27.672,0 c -0.343,0 -0.632,-0.118 -0.867,-0.353 -0.236,-0.236 -0.353,-0.525 -0.353,-0.867 l 0,-42.505 c 0,-0.813 0.406,-1.219 1.22,-1.219 l 19.968,0 6.356,0 1.477,0 c 0.342,0 0.738,0.042 1.188,0.128 0.449,0.085 0.824,0.213 1.123,0.385 l 5.907,5.907 c 0.129,0.299 0.246,0.663 0.354,1.092 0.106,0.427 0.16,0.812 0.16,1.155 l 0,0.835 0,1.412 0,5.33 c 0,0.342 -0.086,0.716 -0.257,1.123 -0.171,0.407 -0.364,0.739 -0.578,0.995 l -2.632,3.211 c -0.215,0.214 -0.332,0.513 -0.353,0.899 -0.023,0.385 0.074,0.706 0.289,0.963 l 2.76,3.531 c 0.214,0.257 0.396,0.588 0.546,0.995 0.15,0.407 0.225,0.781 0.225,1.124 l 0,5.072 0,0.642 0,1.413 c 0,0.342 -0.054,0.738 -0.16,1.187 -0.108,0.45 -0.225,0.824 -0.354,1.124"
           style="fill:#eaebea;fill-opacity:1;fill-rule:nonzero;stroke:none"
           id="path236" /><g
           id="g238"
           transform="translate(1578.8457,608.6743)"><path
             d="m 0,0 -5.522,0 0,-6.549 0,-11.493 0,-5.136 5.779,0 3.146,0 6.164,0 0,4.751 0,11.493 0,6.934 -6.1,0 L 0,0 z"
             style="fill:#da2b25;fill-opacity:1;fill-rule:nonzero;stroke:none"
             id="path240" /></g><g
           id="g242"
           transform="translate(1747.2039,572.0913)"><path
             d="m 0,0 c 0,-1.295 -1.05,-2.345 -2.345,-2.345 l -134.09,0 0,54.742 134.09,0 C -1.05,52.397 0,51.348 0,50.052 L 0,0 z m -147.427,36.583 0,-23.628 0,-1.733 c 0,-0.343 -0.054,-0.729 -0.16,-1.156 -0.108,-0.428 -0.225,-0.793 -0.353,-1.092 l -5.908,-5.906 c -0.299,-0.172 -0.674,-0.301 -1.123,-0.386 -0.45,-0.086 -0.846,-0.128 -1.188,-0.128 l -2.568,0 -20.739,0 -4.494,0 c -0.814,0 -1.22,0.406 -1.22,1.22 l 0,5.457 0,31.718 0,5.329 c 0,0.342 0.117,0.631 0.353,0.867 0.235,0.235 0.524,0.353 0.867,0.353 l 3.98,0 18.299,0 5.522,0 c 0.342,0 0.738,-0.054 1.188,-0.16 0.449,-0.108 0.824,-0.225 1.123,-0.354 l 5.908,-5.907 c 0.128,-0.299 0.245,-0.664 0.353,-1.091 0.106,-0.428 0.16,-0.814 0.16,-1.156 l 0,-2.247 z m -44.303,1.027 0,-23.05 0,-3.338 c 0,-0.343 -0.054,-0.729 -0.161,-1.156 -0.107,-0.428 -0.224,-0.793 -0.353,-1.092 l -5.907,-5.906 c -0.3,-0.172 -0.674,-0.301 -1.123,-0.386 -0.45,-0.086 -0.846,-0.128 -1.188,-0.128 l -1.349,0 -15.538,0 -3.466,0 c -0.344,0 -0.729,0.042 -1.156,0.128 -0.429,0.085 -0.793,0.214 -1.092,0.386 l -5.907,5.906 c -0.171,0.299 -0.3,0.664 -0.385,1.092 -0.086,0.427 -0.128,0.813 -0.128,1.156 l 0,1.348 0,22.922 0,3.338 c 0,0.342 0.042,0.728 0.128,1.156 0.085,0.427 0.214,0.792 0.385,1.091 l 5.907,5.907 c 0.299,0.129 0.663,0.246 1.092,0.354 0.427,0.106 0.812,0.16 1.156,0.16 l 2.76,0 13.484,0 4.109,0 c 0.342,0 0.738,-0.054 1.188,-0.16 0.449,-0.108 0.823,-0.225 1.123,-0.354 l 5.907,-5.907 c 0.129,-0.299 0.246,-0.664 0.353,-1.091 0.107,-0.428 0.161,-0.814 0.161,-1.156 l 0,-1.22 z m -43.853,-2.054 0,-26.196 0,-5.586 c 0,-0.343 -0.118,-0.632 -0.353,-0.867 -0.236,-0.236 -0.525,-0.353 -0.866,-0.353 l -8.925,0 c -0.343,0 -0.621,0.117 -0.835,0.353 -0.214,0.235 -0.321,0.524 -0.321,0.867 l 0,8.796 0,16.63 0,7.383 -7.191,0 0,-8.154 0,-19.84 0,-4.815 c 0,-0.343 -0.107,-0.632 -0.321,-0.867 -0.215,-0.236 -0.493,-0.353 -0.834,-0.353 l -8.09,0 c -0.344,0 -0.633,0.117 -0.867,0.353 -0.236,0.235 -0.353,0.524 -0.353,0.867 l 0,5.714 0,20.739 0,6.356 -7.192,0 0,-11.043 0,-15.667 0,-6.099 c 0,-0.814 -0.407,-1.22 -1.22,-1.22 l -8.86,0 c -0.813,0 -1.22,0.406 -1.22,1.22 l 0,8.989 0,27.993 0,5.522 c 0,0.342 0.118,0.631 0.353,0.867 0.235,0.235 0.524,0.353 0.867,0.353 l 3.724,0 30.562,0 3.21,0 c 0.342,0 0.739,-0.054 1.188,-0.16 0.45,-0.108 0.824,-0.225 1.124,-0.354 l 5.907,-5.907 c 0.128,-0.299 0.246,-0.664 0.353,-1.091 0.106,-0.428 0.16,-0.814 0.16,-1.156 l 0,-3.274 z m 237.001,21.438 -292.419,0 c -2.136,0 -3.867,-1.73 -3.867,-3.866 l 0,-56.204 c 0,-2.135 1.731,-3.866 3.867,-3.866 l 292.419,0 c 2.135,0 3.866,1.731 3.866,3.866 l 0,56.204 c 0,2.136 -1.731,3.866 -3.866,3.866"
             style="fill:#da2b25;fill-opacity:1;fill-rule:nonzero;stroke:none"
             id="path244" /></g><path
           d="m 1529.021,585.496 15.089,0 0,23.178 -15.089,0 0,-23.178 z"
           style="fill:#da2b25;fill-opacity:1;fill-rule:nonzero;stroke:none"
           id="path246" /><g
           id="g248"
           transform="translate(1649.4772,585.58)"><path
             d="m 0,0 -16.437,0 c -0.343,0 -0.632,0.106 -0.866,0.321 -0.236,0.214 -0.353,0.492 -0.353,0.835 l 0,31.654 c 0,0.812 -0.408,1.219 -1.22,1.219 l -8.861,0 c -0.813,0 -1.22,-0.407 -1.22,-1.219 l 0,-42.505 c 0,-0.814 0.407,-1.22 1.22,-1.22 l 27.737,0 c 0.342,0 0.62,0.118 0.835,0.353 0.214,0.235 0.321,0.524 0.321,0.867 l 0,8.475 c 0,0.342 -0.107,0.631 -0.321,0.867 C 0.62,-0.118 0.342,0 0,0"
             style="fill:#da2b25;fill-opacity:1;fill-rule:nonzero;stroke:none"
             id="path250" /></g><path
           d="m 1683.428,598.229 -15.153,0 0,11.364 15.153,0 0,-11.364 z m 10.786,15.024 -5.907,5.907 c -0.3,0.128 -0.674,0.246 -1.123,0.353 -0.45,0.106 -0.846,0.161 -1.188,0.161 l -0.706,0 -1.927,0 -13.098,0 -3.659,0 -0.963,0 c -0.343,0 -0.729,-0.055 -1.156,-0.161 -0.429,-0.107 -0.793,-0.225 -1.092,-0.353 l -5.906,-5.907 c -0.129,-0.3 -0.236,-0.642 -0.322,-1.027 -0.086,-0.386 -0.15,-0.75 -0.192,-1.092 l 0,-0.192 0,-1.028 0,-34.029 c 0,-0.343 0.117,-0.621 0.353,-0.835 0.235,-0.214 0.524,-0.321 0.867,-0.321 l 8.924,0 c 0.343,0 0.62,0.107 0.835,0.321 0.214,0.214 0.321,0.492 0.321,0.835 l 0,11.557 c 0,0.342 0.118,0.62 0.353,0.835 0.235,0.213 0.524,0.321 0.867,0.321 l 12.713,0 c 0.342,0 0.631,-0.108 0.866,-0.321 0.235,-0.215 0.354,-0.493 0.354,-0.835 l 0,-11.557 c 0,-0.343 0.106,-0.621 0.321,-0.835 0.213,-0.214 0.491,-0.321 0.834,-0.321 l 8.925,0 c 0.342,0 0.631,0.107 0.867,0.321 0.234,0.214 0.353,0.492 0.353,0.835 l 0,33.772 0,0.578 0,0.707 c 0,0.342 -0.054,0.738 -0.16,1.187 -0.108,0.45 -0.225,0.824 -0.354,1.124"
           style="fill:#da2b25;fill-opacity:1;fill-rule:nonzero;stroke:none"
           id="path252" /><path
           d="m 1728.796,601.824 -17.272,0 0,8.026 17.272,0 0,-8.026 z m 0,-17.335 -17.272,0 0,8.732 17.272,0 0,-8.732 z m 9.759,28.7 -5.907,5.907 c -0.299,0.128 -0.674,0.246 -1.123,0.353 -0.45,0.106 -0.846,0.16 -1.188,0.16 l -0.129,0 -27.672,0 c -0.343,0 -0.632,-0.118 -0.867,-0.353 -0.236,-0.236 -0.353,-0.525 -0.353,-0.866 l 0,-42.505 c 0,-0.814 0.406,-1.22 1.22,-1.22 l 19.968,0 6.356,0 1.477,0 c 0.342,0 0.738,0.042 1.188,0.128 0.449,0.086 0.824,0.214 1.123,0.386 l 5.907,5.907 c 0.129,0.299 0.246,0.663 0.354,1.091 0.106,0.427 0.16,0.813 0.16,1.156 l 0,0.835 0,1.412 0,5.329 c 0,0.342 -0.086,0.716 -0.257,1.124 -0.171,0.406 -0.364,0.738 -0.578,0.995 l -2.632,3.21 c -0.215,0.214 -0.332,0.514 -0.353,0.899 -0.023,0.385 0.074,0.707 0.289,0.963 l 2.76,3.532 c 0.214,0.256 0.396,0.587 0.546,0.995 0.15,0.406 0.225,0.781 0.225,1.123 l 0,5.073 0,0.642 0,1.412 c 0,0.342 -0.054,0.738 -0.16,1.188 -0.108,0.45 -0.225,0.824 -0.354,1.124"
           style="fill:#da2b25;fill-opacity:1;fill-rule:nonzero;stroke:none"
           id="path254" /></g></g></g></svg>