<?xml version="1.0" encoding="UTF-8" standalone="no"?>
<!-- Created with Inkscape (http://www.inkscape.org/) -->

<svg
   xmlns:dc="http://purl.org/dc/elements/1.1/"
   xmlns:cc="http://creativecommons.org/ns#"
   xmlns:rdf="http://www.w3.org/1999/02/22-rdf-syntax-ns#"
   xmlns:svg="http://www.w3.org/2000/svg"
   xmlns="http://www.w3.org/2000/svg"
   xmlns:sodipodi="http://sodipodi.sourceforge.net/DTD/sodipodi-0.dtd"
   xmlns:inkscape="http://www.inkscape.org/namespaces/inkscape"
   width="744.09448819"
   height="1052.3622047"
   id="svg3525"
   version="1.1"
   inkscape:version="0.48.4 r9939"
   sodipodi:docname="Logo-Outlines.svg">
  <defs
     id="defs3527" />
  <sodipodi:namedview
     id="base"
     pagecolor="#ffffff"
     bordercolor="#666666"
     borderopacity="1.0"
     inkscape:pageopacity="0.0"
     inkscape:pageshadow="2"
     inkscape:zoom="2.8"
     inkscape:cx="393.6743"
     inkscape:cy="635.34079"
     inkscape:document-units="px"
     inkscape:current-layer="layer1"
     showgrid="false"
     inkscape:window-width="1366"
     inkscape:window-height="744"
     inkscape:window-x="0"
     inkscape:window-y="24"
     inkscape:window-maximized="1" />
  <metadata
     id="metadata3530">
    <rdf:RDF>
      <cc:Work
         rdf:about="">
        <dc:format>image/svg+xml</dc:format>
        <dc:type
           rdf:resource="http://purl.org/dc/dcmitype/StillImage" />
        <dc:title />
      </cc:Work>
    </rdf:RDF>
  </metadata>
  <g
     inkscape:label="Layer 1"
     inkscape:groupmode="layer"
     id="layer1">
    <g
       transform="matrix(1.25,0,0,-1.25,591.77384,511.4254)"
       id="g22"
       style="fill:none;stroke-width:0.80000000000000004;stroke-miterlimit:4;stroke-dasharray:none;stroke:#000000;stroke-opacity:1">
      <path
         style="fill:none;fill-opacity:1;fill-rule:nonzero;stroke:#000000;stroke-width:0.80000000000000004;stroke-miterlimit:4;stroke-dasharray:none;stroke-opacity:1"
         d="m 0,0 c 0,-1.557 -1.262,-2.818 -2.818,-2.818 l -161.131,0 0,65.782 161.131,0 C -1.262,62.964 0,61.702 0,60.146 L 0,0 z"
         id="path5096" />
      <path
         style="fill:none;stroke:#000000;stroke-width:0.80000001;stroke-miterlimit:4;stroke-opacity:1;stroke-dasharray:none"
         d="m -39.244,68.488 -16.823,27.264 c -0.03,0.024 -0.064,0.029 -0.093,0.059 4.597,8.351 8.311,17.247 11.048,26.559 0.421,-0.088 0.818,-0.258 1.269,-0.258 l 41.87,9.984 c 3.679,0 6.363,2.982 6.363,6.673 l 0,42.163 c 0.013,3.679 -2.671,6.65 -6.351,6.65 l -42.029,9.984 c -0.45,0 -0.759,-0.17 -1.186,-0.258 -2.861,9.762 -6.78,19.055 -11.686,27.747 l 21.235,34.378 c 2.604,2.603 2.609,6.831 0.006,9.411 l -29.81,29.816 c -2.603,2.614 -6.825,2.614 -9.404,0.023 l -34.969,-21.587 c -8.137,4.392 -16.78,7.93 -25.817,10.568 l -9.493,40.888 c 0,3.668 -2.971,7.434 -6.672,7.434 l -42.152,0 c -3.678,0 -6.674,-3.773 -6.674,-7.434 l -9.492,-40.496 c -9.533,-2.784 -18.639,-6.784 -27.16,-11.516 -0.321,0.673 -0.697,1.228 -1.252,1.784 l -36.876,22.716 c -2.603,2.614 -6.831,2.579 -9.434,-0.023 l -29.816,-29.84 c -2.603,-2.603 -2.603,-6.814 0,-9.405 l 22.768,-36.905 c 0.614,-0.614 1.334,-1.058 2.082,-1.38 -4.503,-8.229 -8.124,-16.996 -10.819,-26.156 -0.427,0.088 -0.824,0.258 -1.276,0.258 l -43.005,-9.96 c -3.678,0 -7.479,-3.018 -7.479,-6.697 l 0,-42.163 c 0,-3.691 3.801,-6.662 7.479,-6.662 l 42.584,-9.984 c 0.444,0 1.053,0.17 1.474,0.258 2.691,-9.147 6.404,-17.903 10.891,-26.12 l -17.093,-27.773 -42.649,0 c -2.566,0 -4.646,-2.08 -4.646,-4.646 l 0,-67.539 c 0,-2.565 2.08,-4.645 4.646,-4.645 l 351.389,0 c 2.566,0 4.646,2.08 4.646,4.645 l 0,67.539 c 0,2.566 -2.1052538,4.650333 -4.6586269,4.648166 z"
         id="path24"
         inkscape:connector-curvature="0"
         sodipodi:nodetypes="ccccccsccccccccccccsscccccccccccccsscccccssssssscc" />
    </g>
    <g
       transform="matrix(1.25,0,0,-1.25,465.64484,273.63589)"
       id="g26"
       style="fill:none;stroke-width:0.80000000000000004;stroke-miterlimit:4;stroke-dasharray:none;stroke:#000000;stroke-opacity:1">
      <path
         inkscape:connector-curvature="0"
         id="path28"
         style="fill:none;fill-opacity:1;fill-rule:nonzero;stroke:#000000;stroke-width:0.80000000000000004;stroke-miterlimit:4;stroke-dasharray:none;stroke-opacity:1"
         d="m 0,0 -38.577,65.648 c -0.85,1.446 -2.711,1.93 -4.157,1.08 L -58.317,57.57 c -1.446,-0.849 -1.929,-2.71 -1.08,-4.156 l 26.2,-44.587 c 0.857,-1.457 0.358,-3.334 -1.109,-4.174 l -37.273,-21.328 c -0.934,-0.534 -2.082,-0.534 -3.016,0 l -37.273,21.328 c -1.468,0.84 -1.967,2.717 -1.11,4.174 l 26.2,44.587 c 0.85,1.446 0.367,3.307 -1.079,4.156 l -15.584,9.158 c -1.446,0.85 -3.307,0.366 -4.157,-1.08 L -146.175,0 c -0.856,-1.458 -0.357,-3.334 1.11,-4.174 l 41.855,-23.95 c 0.327,-0.186 0.194,-0.685 -0.182,-0.685 l -12.382,0 c -1.598,0 -2.894,-1.296 -2.894,-2.894 l 0,-14.88 c 0,-1.598 1.296,-2.894 2.894,-2.894 l 10.323,0 c 0.203,0 0.367,-0.164 0.367,-0.367 l 0,-68.523 c 0,-2.596 2.863,-4.184 5.054,-2.793 7.617,4.837 16.909,7.683 26.943,7.683 10.087,0 19.425,-2.876 27.065,-7.761 2.134,-1.364 4.931,0.193 4.931,2.725 l 0,68.669 c 0,0.203 0.165,0.367 0.367,0.367 l 10.323,0 c 1.598,0 2.894,1.296 2.894,2.894 l 0,14.88 c 0,1.598 -1.296,2.894 -2.894,2.894 l -12.381,0 c -0.377,0 -0.509,0.499 -0.183,0.685 L -1.11,-4.174 C 0.358,-3.334 0.857,-1.458 0,0" />
    </g>
    <g
       transform="matrix(1.25,0,0,-1.25,237.66984,451.36339)"
       id="g30"
       style="fill:none;stroke-width:0.80000000000000004;stroke-miterlimit:4;stroke-dasharray:none;stroke:#000000;stroke-opacity:1">
      <path
         inkscape:connector-curvature="0"
         id="path32"
         style="fill:none;fill-opacity:1;fill-rule:nonzero;stroke:#000000;stroke-width:0.80000000000000004;stroke-miterlimit:4;stroke-dasharray:none;stroke-opacity:1"
         d="m 0,0 c 0.128,-0.515 0.193,-0.978 0.193,-1.389 l 0,-3.935 0,-31.478 0,-6.713 c 0,-0.412 -0.142,-0.759 -0.424,-1.042 -0.284,-0.283 -0.631,-0.424 -1.042,-0.424 l -10.724,0 c -0.413,0 -0.746,0.141 -1.004,0.424 -0.257,0.283 -0.385,0.63 -0.385,1.042 l 0,10.57 0,19.983 0,8.873 -8.642,0 0,-9.799 0,-23.84 0,-5.787 c 0,-0.412 -0.128,-0.759 -0.385,-1.042 -0.258,-0.283 -0.592,-0.424 -1.003,-0.424 l -9.721,0 c -0.413,0 -0.76,0.141 -1.042,0.424 -0.283,0.283 -0.424,0.63 -0.424,1.042 l 0,6.867 0,24.92 0,7.639 -8.642,0 0,-13.271 0,-18.825 0,-7.33 c 0,-0.978 -0.489,-1.466 -1.466,-1.466 l -10.647,0 c -0.977,0 -1.466,0.488 -1.466,1.466 l 0,10.801 0,33.64 0,6.635 c 0,0.411 0.141,0.758 0.424,1.042 0.283,0.282 0.63,0.424 1.042,0.424 l 4.475,0 36.725,0 3.858,0 c 0.411,0 0.887,-0.065 1.427,-0.193 0.54,-0.129 0.99,-0.27 1.351,-0.424 L -0.424,1.311 C -0.27,0.951 -0.129,0.513 0,0" />
    </g>
    <path
       style="fill:none;fill-opacity:1;fill-rule:nonzero;stroke:#000000;stroke-width:1;stroke-miterlimit:4;stroke-dasharray:none;stroke-opacity:1"
       d="m 286.71084,456.47477 -22.66375,0 0,34.81625 22.66375,0 z"
       id="path5238" />
    <path
       style="fill:none;fill-opacity:1;fill-rule:nonzero;stroke:#000000;stroke-width:1;stroke-miterlimit:4;stroke-dasharray:none;stroke-opacity:1"
       d="m 303.00959,449.72477 0.53,1.63875 0.24125,1.73625 0,1.8325 0,34.6225 0,5.015 -0.24125,1.73625 -0.53,1.63875 -8.8725,8.8725 -1.6875,0.57875 -1.785,0.19375 -2.025,0 -23.34,0 -5.2075,0 -1.735,-0.19375 -1.64,-0.57875 -8.8725,-8.8725 -0.57875,-1.63875 -0.1925,-1.73625 0,-2.025 0,-34.43 0,-5.015 0.1925,-1.73625 0.57875,-1.63875 8.8725,-8.87375 1.64,-0.53 1.735,-0.24125 4.1475,0 20.2525,0 6.1725,0 1.785,0.24125 1.6875,0.53 z"
       id="path34" />
    <g
       transform="matrix(1.25,0,0,-1.25,338.88722,456.47514)"
       id="g36"
       style="fill:none;stroke-width:0.80000000000000004;stroke-miterlimit:4;stroke-dasharray:none;stroke:#000000;stroke-opacity:1">
      <path
         style="fill:none;fill-opacity:1;fill-rule:nonzero;stroke:#000000;stroke-width:0.80000000000000004;stroke-miterlimit:4;stroke-dasharray:none;stroke-opacity:1"
         d="m 0,0 -6.635,0 0,-7.87 0,-13.81 0,-6.173 6.943,0 3.781,0 7.407,0 0,5.71 0,13.81 0,8.333 L 4.167,0 0,0 z"
         id="path5242" />
      <path
         style="fill:none;fill-opacity:1;fill-rule:nonzero;stroke:#000000;stroke-width:0.80000000000000004;stroke-miterlimit:4;stroke-dasharray:none;stroke-opacity:1"
         d="m 24.535,5.401 c 0.154,-0.36 0.295,-0.798 0.424,-1.312 0.128,-0.514 0.193,-0.977 0.193,-1.388 l 0,-2.701 0,-28.392 0,-2.084 c 0,-0.412 -0.065,-0.875 -0.193,-1.388 -0.129,-0.515 -0.27,-0.953 -0.424,-1.312 l -7.098,-7.098 c -0.36,-0.207 -0.81,-0.361 -1.35,-0.463 -0.541,-0.104 -1.017,-0.154 -1.428,-0.154 l -3.086,0 -24.921,0 -5.4,0 c -0.978,0 -1.466,0.488 -1.466,1.466 l 0,6.558 0,38.113 0,6.404 c 0,0.411 0.141,0.759 0.424,1.042 0.282,0.282 0.629,0.424 1.042,0.424 l 4.783,0 21.989,0 6.635,0 c 0.411,0 0.887,-0.065 1.428,-0.193 0.54,-0.128 0.99,-0.27 1.35,-0.424 l 7.098,-7.098 z"
         id="path38" />
    </g>
    <g
       transform="matrix(1.25,0,0,-1.25,444.98121,491.16452)"
       id="g40"
       style="fill:none;stroke-width:0.80000000000000004;stroke-miterlimit:4;stroke-dasharray:none;stroke:#000000;stroke-opacity:1">
      <path
         inkscape:connector-curvature="0"
         id="path42"
         style="fill:none;fill-opacity:1;fill-rule:nonzero;stroke:#000000;stroke-width:0.80000000000000004;stroke-miterlimit:4;stroke-dasharray:none;stroke-opacity:1"
         d="M 0,0 C 0.411,0 0.745,-0.142 1.003,-0.424 1.26,-0.707 1.389,-1.055 1.389,-1.466 l 0,-10.184 c 0,-0.412 -0.129,-0.76 -0.386,-1.042 C 0.745,-12.975 0.411,-13.116 0,-13.116 l -33.33,0 c -0.978,0 -1.466,0.488 -1.466,1.466 l 0,51.076 c 0,0.976 0.488,1.466 1.466,1.466 l 10.647,0 c 0.976,0 1.466,-0.49 1.466,-1.466 l 0,-38.037 c 0,-0.412 0.141,-0.746 0.424,-1.003 C -20.511,0.128 -20.164,0 -19.751,0 L 0,0 z" />
    </g>
    <path
       style="fill:none;fill-opacity:1;fill-rule:nonzero;stroke:#000000;stroke-width:1;stroke-miterlimit:4;stroke-dasharray:none;stroke-opacity:1"
       d="m 495.97709,455.09477 -22.76,0 0,17.07 22.76,0 z"
       id="path5246" />
    <path
       style="fill:none;fill-opacity:1;fill-rule:nonzero;stroke:#000000;stroke-width:1;stroke-miterlimit:4;stroke-dasharray:none;stroke-opacity:1"
       d="m 512.17959,449.59727 0.53,1.68875 0.24125,1.78375 0,1.06 0,0.86875 0,50.72875 -0.53,1.25375 -1.3025,0.4825 -13.405,0 -1.25375,-0.4825 -0.4825,-1.25375 0,-17.36 -0.53,-1.25375 -1.3025,-0.48125 -19.095,0 -1.3025,0.48125 -0.53,1.25375 0,17.36 -0.4825,1.25375 -1.25375,0.4825 -13.405,0 -1.3025,-0.4825 -0.53,-1.25375 0,-51.115 0,-1.5425 0,-0.29 0.28875,-1.63875 0.4825,-1.54375 8.8725,-8.8725 1.64,-0.53 1.73625,-0.24125 1.44625,0 5.49625,0 19.675,0 2.8925,0 1.06125,0 1.785,0.24125 1.6875,0.53 z"
       id="path44" />
    <path
       style="fill:none;fill-opacity:1;fill-rule:nonzero;stroke:#000000;stroke-width:1;stroke-miterlimit:4;stroke-dasharray:none;stroke-opacity:1"
       d="m 538.18084,492.80352 25.94375,0 0,-13.11625 -25.94375,0 z"
       id="path5252" />
    <path
       style="fill:none;fill-opacity:1;fill-rule:nonzero;stroke:#000000;stroke-width:1;stroke-miterlimit:4;stroke-dasharray:none;stroke-opacity:1"
       d="m 538.18084,466.76477 25.94375,0 0,-12.055 -25.94375,0 z"
       id="path5250" />
    <path
       style="fill:none;fill-opacity:1;fill-rule:nonzero;stroke:#000000;stroke-width:1;stroke-miterlimit:4;stroke-dasharray:none;stroke-opacity:1"
       d="m 578.78334,449.69477 0.53,1.6875 0.24125,1.78375 0,2.12125 0,0.965 0,7.61875 -0.3375,1.6875 -0.82,1.495 -4.14625,5.305 -0.435,1.44625 0.53125,1.35 3.95375,4.8225 0.8675,1.495 0.38625,1.6875 0,8.005 0,2.12125 0,1.25375 -0.24125,1.73625 -0.53,1.64 -8.87375,8.87125 -1.6875,0.58 -1.78375,0.1925 -2.21875,0 -9.5475,0 -29.99375,0 -1.8325,-1.8325 0,-63.845 0.53125,-1.3025 1.30125,-0.53 41.5675,0 0.1925,0 1.78375,0.24125 1.6875,0.53 z"
       id="path46" />
  </g>
</svg>
