  0
SECTION
  2
HEADER
  9
$ACADVER
  1
AC1014
  9
$HANDSEED
  5
FFFF
  9
$MEASUREMENT
 70
     1
  0
ENDSEC
  0
SECTION
  2
TABLES
  0
TABLE
  2
VPORT
  5
8
330
0
100
AcDbSymbolTable
 70
     4
  0
VPORT
  5
2E
330
8
100
AcDbSymbolTableRecord
100
AcDbViewportTableRecord
  2
*ACTIVE
 70
     0
 10
0.0
 20
0.0
 11
1.0
 21
1.0
 12
210.0
 22
148.5
 13
0.0
 23
0.0
 14
10.0
 24
10.0
 15
10.0
 25
10.0
 16
0.0
 26
0.0
 36
1.0
 17
0.0
 27
0.0
 37
0.0
 40
341.0
 41
1.24
 42
50.0
 43
0.0
 44
0.0
 50
0.0
 51
0.0
 71
     0
 72
   100
 73
     1
 74
     3
 75
     0
 76
     0
 77
     0
 78
     0
  0
ENDTAB
  0
TABLE
  2
LTYPE
  5
5
330
0
100
AcDbSymbolTable
 70
     1
  0
LTYPE
  5
14
330
5
100
AcDbSymbolTableRecord
100
AcDbLinetypeTableRecord
  2
BYBLOCK
 70
     0
  3

 72
    65
 73
     0
 40
0.0
  0
LTYPE
  5
15
330
5
100
AcDbSymbolTableRecord
100
AcDbLinetypeTableRecord
  2
BYLAYER
 70
     0
  3

 72
    65
 73
     0
 40
0.0
  0
LTYPE
  5
16
330
5
100
AcDbSymbolTableRecord
100
AcDbLinetypeTableRecord
  2
CONTINUOUS
 70
     0
  3
Solid line
 72
    65
 73
     0
 40
0.0
  0
ENDTAB
  0
TABLE
  2
LAYER
  5
2
100
AcDbSymbolTable
 70
2
  0
LAYER
  5
50
100
AcDbSymbolTableRecord
100
AcDbLayerTableRecord
  2
0
 70
0
  6
CONTINUOUS
  0
LAYER
  5
51
100
AcDbSymbolTableRecord
100
AcDbLayerTableRecord
  2
Layer_1
 70
0
  6
CONTINUOUS
  0
ENDTAB
  0
TABLE
  2
STYLE
  5
3
330
0
100
AcDbSymbolTable
 70
     1
  0
STYLE
  5
11
330
3
100
AcDbSymbolTableRecord
100
AcDbTextStyleTableRecord
  2
STANDARD
 70
     0
 40
0.0
 41
1.0
 50
0.0
 71
     0
 42
2.5
  3
txt
  4

  0
ENDTAB
  0
TABLE
  2
VIEW
  5
6
330
0
100
AcDbSymbolTable
 70
     0
  0
ENDTAB
  0
TABLE
  2
UCS
  5
7
330
0
100
AcDbSymbolTable
 70
     0
  0
ENDTAB
  0
TABLE
  2
APPID
  5
9
330
0
100
AcDbSymbolTable
 70
     2
  0
APPID
  5
12
330
9
100
AcDbSymbolTableRecord
100
AcDbRegAppTableRecord
  2
ACAD
 70
     0
  0
ENDTAB
  0
TABLE
  2
DIMSTYLE
  5
A
330
0
100
AcDbSymbolTable
 70
     1
  0
DIMSTYLE
105
27
330
A
100
AcDbSymbolTableRecord
100
AcDbDimStyleTableRecord
  2
ISO-25
 70
     0
  3

  4

  5

  6

  7

 40
1.0
 41
2.5
 42
0.625
 43
3.75
 44
1.25
 45
0.0
 46
0.0
 47
0.0
 48
0.0
140
2.5
141
2.5
142
0.0
143
0.03937007874016
144
1.0
145
0.0
146
1.0
147
0.625
 71
     0
 72
     0
 73
     0
 74
     0
 75
     0
 76
     0
 77
     1
 78
     8
170
     0
171
     3
172
     1
173
     0
174
     0
175
     0
176
     0
177
     0
178
     0
270
     2
271
     2
272
     2
273
     2
274
     3
340
11
275
     0
280
     0
281
     0
282
     0
283
     0
284
     8
285
     0
286
     0
287
     3
288
     0
  0
ENDTAB
  0
TABLE
  2
BLOCK_RECORD
  5
1
330
0
100
AcDbSymbolTable
 70
     1
  0
BLOCK_RECORD
  5
1F
330
1
100
AcDbSymbolTableRecord
100
AcDbBlockTableRecord
  2
*MODEL_SPACE
  0
BLOCK_RECORD
  5
1B
330
1
100
AcDbSymbolTableRecord
100
AcDbBlockTableRecord
  2
*PAPER_SPACE
  0
ENDTAB
  0
ENDSEC
  0
SECTION
  2
BLOCKS
  0
BLOCK
  5
20
330
1F
100
AcDbEntity
  8
0
100
AcDbBlockBegin
  2
*MODEL_SPACE
 70
     0
 10
0.0
 20
0.0
 30
0.0
  3
*MODEL_SPACE
  1

  0
ENDBLK
  5
21
330
1F
100
AcDbEntity
  8
0
100
AcDbBlockEnd
  0
BLOCK
  5
1C
330
1B
100
AcDbEntity
 67
     1
  8
0
100
AcDbBlockBegin
  2
*PAPER_SPACE
  1

  0
ENDBLK
  5
1D
330
1B
100
AcDbEntity
 67
     1
  8
0
100
AcDbBlockEnd
  0
ENDSEC
  0
SECTION
  2
ENTITIES
  0
SPLINE
  5
100
100
AcDbEntity
  8
Layer_1
 62
7
100
AcDbSpline
 70
8
 71
3
 72
8
 73
4
 74
0
 40
0
 40
0
 40
0
 40
0
 40
1
 40
1
 40
1
 40
1
 10
352.866286
 20
140.948677
 30
0.0
 10
352.866286
 20
140.948677
 30
0.0
 10
359.229286
 20
143.930677
 30
0.0
 10
359.229286
 20
147.621677
 30
0.0
  0
LWPOLYLINE
  5
101
100
AcDbEntity
  8
Layer_1
 62
7
100
AcDbPolyline
 90
6
 70
0
 10
356.543286
 20
77.340677
 30
0.0
 10
315.595286
 20
77.340677
 30
0.0
 10
298.772286
 20
104.604677
 30
0.0
 10
298.679286
 20
104.663677
 30
0.0
 10
309.727286
 20
131.222677
 30
0.0
 10
352.866286
 20
140.948677
 30
0.0
  0
SPLINE
  5
102
100
AcDbEntity
  8
Layer_1
 62
7
100
AcDbSpline
 70
8
 71
3
 72
8
 73
4
 74
0
 40
0
 40
0
 40
0
 40
0
 40
1
 40
1
 40
1
 40
1
 10
359.229286
 20
189.784678
 30
0.0
 10
359.242286
 20
193.463678
 30
0.0
 10
352.878286
 20
196.434678
 30
0.0
 10
352.878286
 20
196.434678
 30
0.0
  0
LWPOLYLINE
  5
103
100
AcDbEntity
  8
Layer_1
 62
7
100
AcDbPolyline
 90
2
 70
0
 10
359.229286
 20
147.621677
 30
0.0
 10
359.229286
 20
189.784678
 30
0.0
  0
SPLINE
  5
104
100
AcDbEntity
  8
Layer_1
 62
7
100
AcDbSpline
 70
8
 71
3
 72
8
 73
4
 74
0
 40
0
 40
0
 40
0
 40
0
 40
1
 40
1
 40
1
 40
1
 10
309.663286
 20
206.160678
 30
0.0
 10
309.663286
 20
206.160678
 30
0.0
 10
302.883286
 20
225.215678
 30
0.0
 10
297.977286
 20
233.907678
 30
0.0
  0
LWPOLYLINE
  5
105
100
AcDbEntity
  8
Layer_1
 62
7
100
AcDbPolyline
 90
2
 70
0
 10
352.878286
 20
196.434678
 30
0.0
 10
309.663286
 20
206.160678
 30
0.0
  0
SPLINE
  5
106
100
AcDbEntity
  8
Layer_1
 62
7
100
AcDbSpline
 70
8
 71
3
 72
8
 73
4
 74
0
 40
0
 40
0
 40
0
 40
0
 40
1
 40
1
 40
1
 40
1
 10
319.212286
 20
268.285678
 30
0.0
 10
321.816286
 20
270.888678
 30
0.0
 10
321.821286
 20
275.116678
 30
0.0
 10
319.218286
 20
277.696678
 30
0.0
  0
LWPOLYLINE
  5
107
100
AcDbEntity
  8
Layer_1
 62
7
100
AcDbPolyline
 90
2
 70
0
 10
297.977286
 20
233.907678
 30
0.0
 10
319.212286
 20
268.285678
 30
0.0
  0
SPLINE
  5
108
100
AcDbEntity
  8
Layer_1
 62
7
100
AcDbSpline
 70
8
 71
3
 72
8
 73
4
 74
0
 40
0
 40
0
 40
0
 40
0
 40
1
 40
1
 40
1
 40
1
 10
289.408286
 20
307.512678
 30
0.0
 10
286.805286
 20
310.126678
 30
0.0
 10
280.004286
 20
307.535678
 30
0.0
 10
280.004286
 20
307.535678
 30
0.0
  0
LWPOLYLINE
  5
109
100
AcDbEntity
  8
Layer_1
 62
7
100
AcDbPolyline
 90
2
 70
0
 10
319.218286
 20
277.696678
 30
0.0
 10
289.408286
 20
307.512678
 30
0.0
  0
SPLINE
  5
10a
100
AcDbEntity
  8
Layer_1
 62
7
100
AcDbSpline
 70
8
 71
3
 72
8
 73
4
 74
0
 40
0
 40
0
 40
0
 40
0
 40
1
 40
1
 40
1
 40
1
 10
209.725286
 20
337.404678
 30
0.0
 10
209.725286
 20
337.404678
 30
0.0
 10
206.754286
 20
344.838678
 30
0.0
 10
203.053290
 20
344.838678
 30
0.0
  0
LWPOLYLINE
  5
10b
100
AcDbEntity
  8
Layer_1
 62
7
100
AcDbPolyline
 90
4
 70
0
 10
280.004286
 20
307.535678
 30
0.0
 10
245.035286
 20
285.948678
 30
0.0
 10
219.218286
 20
296.516678
 30
0.0
 10
209.725286
 20
337.404678
 30
0.0
  0
SPLINE
  5
10c
100
AcDbEntity
  8
Layer_1
 62
7
100
AcDbSpline
 70
8
 71
3
 72
8
 73
4
 74
0
 40
0
 40
0
 40
0
 40
0
 40
1
 40
1
 40
1
 40
1
 10
160.901290
 20
344.838678
 30
0.0
 10
157.223290
 20
344.838678
 30
0.0
 10
154.227290
 20
337.404678
 30
0.0
 10
154.227290
 20
337.404678
 30
0.0
  0
LWPOLYLINE
  5
10d
100
AcDbEntity
  8
Layer_1
 62
7
100
AcDbPolyline
 90
2
 70
0
 10
203.053290
 20
344.838678
 30
0.0
 10
160.901290
 20
344.838678
 30
0.0
  0
SPLINE
  5
10e
100
AcDbEntity
  8
Layer_1
 62
7
100
AcDbSpline
 70
8
 71
3
 72
8
 73
4
 74
0
 40
0
 40
0
 40
0
 40
0
 40
1
 40
1
 40
1
 40
1
 10
117.575290
 20
285.392678
 30
0.0
 10
117.575290
 20
285.392678
 30
0.0
 10
92.031000
 20
302.140978
 30
0.0
 10
79.447290
 20
309.892678
 30
0.0
  0
SPLINE
  5
10f
100
AcDbEntity
  8
Layer_1
 62
7
100
AcDbSpline
 70
8
 71
3
 72
8
 73
4
 74
0
 40
0
 40
0
 40
0
 40
0
 40
1
 40
1
 40
1
 40
1
 10
79.447290
 20
309.892678
 30
0.0
 10
76.844290
 20
312.506678
 30
0.0
 10
72.616290
 20
312.471678
 30
0.0
 10
70.013290
 20
309.869678
 30
0.0
  0
LWPOLYLINE
  5
110
100
AcDbEntity
  8
Layer_1
 62
7
100
AcDbPolyline
 90
3
 70
0
 10
154.227290
 20
337.404678
 30
0.0
 10
144.735290
 20
296.908678
 30
0.0
 10
117.575290
 20
285.392678
 30
0.0
  0
SPLINE
  5
111
100
AcDbEntity
  8
Layer_1
 62
7
100
AcDbSpline
 70
8
 71
3
 72
8
 73
4
 74
0
 40
0
 40
0
 40
0
 40
0
 40
1
 40
1
 40
1
 40
1
 10
40.197290
 20
280.029678
 30
0.0
 10
37.594290
 20
277.426678
 30
0.0
 10
40.197290
 20
270.624678
 30
0.0
 10
40.197290
 20
270.624678
 30
0.0
  0
LWPOLYLINE
  5
112
100
AcDbEntity
  8
Layer_1
 62
7
100
AcDbPolyline
 90
2
 70
0
 10
70.013290
 20
309.869678
 30
0.0
 10
40.197290
 20
280.029678
 30
0.0
  0
SPLINE
  5
113
100
AcDbEntity
  8
Layer_1
 62
7
100
AcDbSpline
 70
8
 71
3
 72
8
 73
4
 74
0
 40
0
 40
0
 40
0
 40
0
 40
1
 40
1
 40
1
 40
1
 10
9.947290
 20
196.481678
 30
0.0
 10
9.947290
 20
196.481678
 30
0.0
 10
2.468290
 20
193.463678
 30
0.0
 10
2.468290
 20
189.784678
 30
0.0
  0
LWPOLYLINE
  5
114
100
AcDbEntity
  8
Layer_1
 62
7
100
AcDbPolyline
 90
4
 70
0
 10
40.197290
 20
270.624678
 30
0.0
 10
65.047290
 20
232.339678
 30
0.0
 10
54.228290
 20
206.183678
 30
0.0
 10
9.947290
 20
196.481678
 30
0.0
  0
SPLINE
  5
115
100
AcDbEntity
  8
Layer_1
 62
7
100
AcDbSpline
 70
8
 71
3
 72
8
 73
4
 74
0
 40
0
 40
0
 40
0
 40
0
 40
1
 40
1
 40
1
 40
1
 10
2.468290
 20
147.621677
 30
0.0
 10
2.468290
 20
143.930677
 30
0.0
 10
9.947290
 20
140.959677
 30
0.0
 10
9.947290
 20
140.959677
 30
0.0
  0
LWPOLYLINE
  5
116
100
AcDbEntity
  8
Layer_1
 62
7
100
AcDbPolyline
 90
2
 70
0
 10
2.468290
 20
189.784678
 30
0.0
 10
2.468290
 20
147.621677
 30
0.0
  0
SPLINE
  5
117
100
AcDbEntity
  8
Layer_1
 62
7
100
AcDbSpline
 70
8
 71
3
 72
8
 73
4
 74
0
 40
0
 40
0
 40
0
 40
0
 40
1
 40
1
 40
1
 40
1
 10
52.531290
 20
130.975677
 30
0.0
 10
52.531290
 20
130.975677
 30
0.0
 10
62.835080
 20
108.923068
 30
0.0
 10
64.896290
 20
105.113677
 30
0.0
  0
LWPOLYLINE
  5
118
100
AcDbEntity
  8
Layer_1
 62
7
100
AcDbPolyline
 90
2
 70
0
 10
9.947290
 20
140.959677
 30
0.0
 10
52.531290
 20
130.975677
 30
0.0
  0
SPLINE
  5
119
100
AcDbEntity
  8
Layer_1
 62
7
100
AcDbSpline
 70
8
 71
3
 72
8
 73
4
 74
0
 40
0
 40
0
 40
0
 40
0
 40
1
 40
1
 40
1
 40
1
 10
5.154290
 20
77.340677
 30
0.0
 10
2.588290
 20
77.340677
 30
0.0
 10
0.508290
 20
75.260677
 30
0.0
 10
0.508290
 20
72.694677
 30
0.0
  0
LWPOLYLINE
  5
11a
100
AcDbEntity
  8
Layer_1
 62
7
100
AcDbPolyline
 90
3
 70
0
 10
64.896290
 20
105.113677
 30
0.0
 10
47.803290
 20
77.340677
 30
0.0
 10
5.154290
 20
77.340677
 30
0.0
  0
SPLINE
  5
11b
100
AcDbEntity
  8
Layer_1
 62
7
100
AcDbSpline
 70
8
 71
3
 72
8
 73
4
 74
0
 40
0
 40
0
 40
0
 40
0
 40
1
 40
1
 40
1
 40
1
 10
0.508290
 20
5.155677
 30
0.0
 10
0.508290
 20
2.590677
 30
0.0
 10
2.588290
 20
0.510677
 30
0.0
 10
5.154290
 20
0.510677
 30
0.0
  0
LWPOLYLINE
  5
11c
100
AcDbEntity
  8
Layer_1
 62
7
100
AcDbPolyline
 90
2
 70
0
 10
0.508290
 20
72.694677
 30
0.0
 10
0.508290
 20
5.155677
 30
0.0
  0
SPLINE
  5
11d
100
AcDbEntity
  8
Layer_1
 62
7
100
AcDbSpline
 70
8
 71
3
 72
8
 73
4
 74
0
 40
0
 40
0
 40
0
 40
0
 40
1
 40
1
 40
1
 40
1
 10
356.543286
 20
0.510677
 30
0.0
 10
359.109286
 20
0.510677
 30
0.0
 10
361.189286
 20
2.590677
 30
0.0
 10
361.189286
 20
5.155677
 30
0.0
  0
LWPOLYLINE
  5
11e
100
AcDbEntity
  8
Layer_1
 62
7
100
AcDbPolyline
 90
2
 70
0
 10
5.154290
 20
0.510677
 30
0.0
 10
356.543286
 20
0.510677
 30
0.0
  0
SPLINE
  5
11f
100
AcDbEntity
  8
Layer_1
 62
7
100
AcDbSpline
 70
8
 71
3
 72
8
 73
4
 74
0
 40
0
 40
0
 40
0
 40
0
 40
1
 40
1
 40
1
 40
1
 10
361.189286
 20
72.694677
 30
0.0
 10
361.189286
 20
75.260677
 30
0.0
 10
359.109286
 20
77.340677
 30
0.0
 10
356.543286
 20
77.340677
 30
0.0
  0
LWPOLYLINE
  5
120
100
AcDbEntity
  8
Layer_1
 62
7
100
AcDbPolyline
 90
2
 70
0
 10
361.189286
 20
5.155677
 30
0.0
 10
361.189286
 20
72.694677
 30
0.0
  0
SPLINE
  5
121
100
AcDbEntity
  8
Layer_1
 62
7
100
AcDbSpline
 70
8
 71
3
 72
8
 73
4
 74
0
 40
0
 40
0
 40
0
 40
0
 40
1
 40
1
 40
1
 40
1
 10
215.358952
 20
264.849168
 30
0.0
 10
214.508952
 20
266.295168
 30
0.0
 10
212.647952
 20
266.779168
 30
0.0
 10
211.201952
 20
265.929168
 30
0.0
  0
LWPOLYLINE
  5
122
100
AcDbEntity
  8
Layer_1
 62
7
100
AcDbPolyline
 90
2
 70
0
 10
253.935952
 20
199.201168
 30
0.0
 10
215.358952
 20
264.849168
 30
0.0
  0
SPLINE
  5
123
100
AcDbEntity
  8
Layer_1
 62
7
100
AcDbSpline
 70
8
 71
3
 72
8
 73
4
 74
0
 40
0
 40
0
 40
0
 40
0
 40
1
 40
1
 40
1
 40
1
 10
195.618952
 20
256.771168
 30
0.0
 10
194.172952
 20
255.922168
 30
0.0
 10
193.689952
 20
254.061168
 30
0.0
 10
194.538952
 20
252.615168
 30
0.0
  0
LWPOLYLINE
  5
124
100
AcDbEntity
  8
Layer_1
 62
7
100
AcDbPolyline
 90
2
 70
0
 10
211.201952
 20
265.929168
 30
0.0
 10
195.618952
 20
256.771168
 30
0.0
  0
SPLINE
  5
125
100
AcDbEntity
  8
Layer_1
 62
7
100
AcDbSpline
 70
8
 71
3
 72
8
 73
4
 74
0
 40
0
 40
0
 40
0
 40
0
 40
1
 40
1
 40
1
 40
1
 10
220.738952
 20
208.028168
 30
0.0
 10
221.595952
 20
206.571168
 30
0.0
 10
221.096952
 20
204.694168
 30
0.0
 10
219.629952
 20
203.854168
 30
0.0
  0
LWPOLYLINE
  5
126
100
AcDbEntity
  8
Layer_1
 62
7
100
AcDbPolyline
 90
2
 70
0
 10
194.538952
 20
252.615168
 30
0.0
 10
220.738952
 20
208.028168
 30
0.0
  0
SPLINE
  5
127
100
AcDbEntity
  8
Layer_1
 62
7
100
AcDbSpline
 70
8
 71
3
 72
8
 73
4
 74
0
 40
0
 40
0
 40
0
 40
0
 40
1
 40
1
 40
1
 40
1
 10
182.356952
 20
182.526168
 30
0.0
 10
181.422952
 20
181.992168
 30
0.0
 10
180.274952
 20
181.992168
 30
0.0
 10
179.340952
 20
182.526168
 30
0.0
  0
LWPOLYLINE
  5
128
100
AcDbEntity
  8
Layer_1
 62
7
100
AcDbPolyline
 90
2
 70
0
 10
219.629952
 20
203.854168
 30
0.0
 10
182.356952
 20
182.526168
 30
0.0
  0
SPLINE
  5
129
100
AcDbEntity
  8
Layer_1
 62
7
100
AcDbSpline
 70
8
 71
3
 72
8
 73
4
 74
0
 40
0
 40
0
 40
0
 40
0
 40
1
 40
1
 40
1
 40
1
 10
142.067952
 20
203.854168
 30
0.0
 10
140.599952
 20
204.694168
 30
0.0
 10
140.100952
 20
206.571168
 30
0.0
 10
140.957952
 20
208.028168
 30
0.0
  0
LWPOLYLINE
  5
12a
100
AcDbEntity
  8
Layer_1
 62
7
100
AcDbPolyline
 90
2
 70
0
 10
179.340952
 20
182.526168
 30
0.0
 10
142.067952
 20
203.854168
 30
0.0
  0
SPLINE
  5
12b
100
AcDbEntity
  8
Layer_1
 62
7
100
AcDbSpline
 70
8
 71
3
 72
8
 73
4
 74
0
 40
0
 40
0
 40
0
 40
0
 40
1
 40
1
 40
1
 40
1
 10
167.157952
 20
252.615168
 30
0.0
 10
168.007952
 20
254.061168
 30
0.0
 10
167.524952
 20
255.922168
 30
0.0
 10
166.078952
 20
256.771168
 30
0.0
  0
LWPOLYLINE
  5
12c
100
AcDbEntity
  8
Layer_1
 62
7
100
AcDbPolyline
 90
2
 70
0
 10
140.957952
 20
208.028168
 30
0.0
 10
167.157952
 20
252.615168
 30
0.0
  0
SPLINE
  5
12d
100
AcDbEntity
  8
Layer_1
 62
7
100
AcDbSpline
 70
8
 71
3
 72
8
 73
4
 74
0
 40
0
 40
0
 40
0
 40
0
 40
1
 40
1
 40
1
 40
1
 10
150.494952
 20
265.929168
 30
0.0
 10
149.048952
 20
266.779168
 30
0.0
 10
147.187952
 20
266.295168
 30
0.0
 10
146.337952
 20
264.849168
 30
0.0
  0
LWPOLYLINE
  5
12e
100
AcDbEntity
  8
Layer_1
 62
7
100
AcDbPolyline
 90
2
 70
0
 10
166.078952
 20
256.771168
 30
0.0
 10
150.494952
 20
265.929168
 30
0.0
  0
SPLINE
  5
12f
100
AcDbEntity
  8
Layer_1
 62
7
100
AcDbSpline
 70
8
 71
3
 72
8
 73
4
 74
0
 40
0
 40
0
 40
0
 40
0
 40
1
 40
1
 40
1
 40
1
 10
107.760952
 20
199.201168
 30
0.0
 10
106.904952
 20
197.743168
 30
0.0
 10
107.403952
 20
195.867168
 30
0.0
 10
108.870952
 20
195.027168
 30
0.0
  0
LWPOLYLINE
  5
130
100
AcDbEntity
  8
Layer_1
 62
7
100
AcDbPolyline
 90
2
 70
0
 10
146.337952
 20
264.849168
 30
0.0
 10
107.760952
 20
199.201168
 30
0.0
  0
SPLINE
  5
131
100
AcDbEntity
  8
Layer_1
 62
7
100
AcDbSpline
 70
8
 71
3
 72
8
 73
4
 74
0
 40
0
 40
0
 40
0
 40
0
 40
1
 40
1
 40
1
 40
1
 10
150.725952
 20
171.077168
 30
0.0
 10
151.052952
 20
170.891168
 30
0.0
 10
150.919952
 20
170.392168
 30
0.0
 10
150.543952
 20
170.392168
 30
0.0
  0
LWPOLYLINE
  5
132
100
AcDbEntity
  8
Layer_1
 62
7
100
AcDbPolyline
 90
2
 70
0
 10
108.870952
 20
195.027168
 30
0.0
 10
150.725952
 20
171.077168
 30
0.0
  0
SPLINE
  5
133
100
AcDbEntity
  8
Layer_1
 62
7
100
AcDbSpline
 70
8
 71
3
 72
8
 73
4
 74
0
 40
0
 40
0
 40
0
 40
0
 40
1
 40
1
 40
1
 40
1
 10
138.161952
 20
170.392168
 30
0.0
 10
136.563952
 20
170.392168
 30
0.0
 10
135.267952
 20
169.096168
 30
0.0
 10
135.267952
 20
167.498168
 30
0.0
  0
LWPOLYLINE
  5
134
100
AcDbEntity
  8
Layer_1
 62
7
100
AcDbPolyline
 90
2
 70
0
 10
150.543952
 20
170.392168
 30
0.0
 10
138.161952
 20
170.392168
 30
0.0
  0
SPLINE
  5
135
100
AcDbEntity
  8
Layer_1
 62
7
100
AcDbSpline
 70
8
 71
3
 72
8
 73
4
 74
0
 40
0
 40
0
 40
0
 40
0
 40
1
 40
1
 40
1
 40
1
 10
135.267952
 20
152.618168
 30
0.0
 10
135.267952
 20
151.020168
 30
0.0
 10
136.563952
 20
149.724168
 30
0.0
 10
138.161952
 20
149.724168
 30
0.0
  0
LWPOLYLINE
  5
136
100
AcDbEntity
  8
Layer_1
 62
7
100
AcDbPolyline
 90
2
 70
0
 10
135.267952
 20
167.498168
 30
0.0
 10
135.267952
 20
152.618168
 30
0.0
  0
SPLINE
  5
137
100
AcDbEntity
  8
Layer_1
 62
7
100
AcDbSpline
 70
8
 71
3
 72
8
 73
4
 74
0
 40
0
 40
0
 40
0
 40
0
 40
1
 40
1
 40
1
 40
1
 10
148.484952
 20
149.724168
 30
0.0
 10
148.687952
 20
149.724168
 30
0.0
 10
148.851952
 20
149.560168
 30
0.0
 10
148.851952
 20
149.357168
 30
0.0
  0
LWPOLYLINE
  5
138
100
AcDbEntity
  8
Layer_1
 62
7
100
AcDbPolyline
 90
2
 70
0
 10
138.161952
 20
149.724168
 30
0.0
 10
148.484952
 20
149.724168
 30
0.0
  0
SPLINE
  5
139
100
AcDbEntity
  8
Layer_1
 62
7
100
AcDbSpline
 70
8
 71
3
 72
8
 73
4
 74
0
 40
0
 40
0
 40
0
 40
0
 40
1
 40
1
 40
1
 40
1
 10
148.851952
 20
80.834168
 30
0.0
 10
148.851952
 20
78.238168
 30
0.0
 10
151.714952
 20
76.650168
 30
0.0
 10
153.905952
 20
78.041168
 30
0.0
  0
SPLINE
  5
13a
100
AcDbEntity
  8
Layer_1
 62
7
100
AcDbSpline
 70
8
 71
3
 72
8
 73
4
 74
0
 40
0
 40
0
 40
0
 40
0
 40
1
 40
1
 40
1
 40
1
 10
153.905952
 20
78.041168
 30
0.0
 10
161.522952
 20
82.878168
 30
0.0
 10
170.814952
 20
85.724168
 30
0.0
 10
180.848952
 20
85.724168
 30
0.0
  0
SPLINE
  5
13b
100
AcDbEntity
  8
Layer_1
 62
7
100
AcDbSpline
 70
8
 71
3
 72
8
 73
4
 74
0
 40
0
 40
0
 40
0
 40
0
 40
1
 40
1
 40
1
 40
1
 10
180.848952
 20
85.724168
 30
0.0
 10
190.935952
 20
85.724168
 30
0.0
 10
200.273952
 20
82.848168
 30
0.0
 10
207.913952
 20
77.963168
 30
0.0
  0
SPLINE
  5
13c
100
AcDbEntity
  8
Layer_1
 62
7
100
AcDbSpline
 70
8
 71
3
 72
8
 73
4
 74
0
 40
0
 40
0
 40
0
 40
0
 40
1
 40
1
 40
1
 40
1
 10
207.913952
 20
77.963168
 30
0.0
 10
210.047952
 20
76.599168
 30
0.0
 10
212.844952
 20
78.156168
 30
0.0
 10
212.844952
 20
80.688168
 30
0.0
  0
LWPOLYLINE
  5
13d
100
AcDbEntity
  8
Layer_1
 62
7
100
AcDbPolyline
 90
2
 70
0
 10
148.851952
 20
149.357168
 30
0.0
 10
148.851952
 20
80.834168
 30
0.0
  0
SPLINE
  5
13e
100
AcDbEntity
  8
Layer_1
 62
7
100
AcDbSpline
 70
8
 71
3
 72
8
 73
4
 74
0
 40
0
 40
0
 40
0
 40
0
 40
1
 40
1
 40
1
 40
1
 10
212.844952
 20
149.357168
 30
0.0
 10
212.844952
 20
149.560168
 30
0.0
 10
213.009952
 20
149.724168
 30
0.0
 10
213.211952
 20
149.724168
 30
0.0
  0
LWPOLYLINE
  5
13f
100
AcDbEntity
  8
Layer_1
 62
7
100
AcDbPolyline
 90
2
 70
0
 10
212.844952
 20
80.688168
 30
0.0
 10
212.844952
 20
149.357168
 30
0.0
  0
SPLINE
  5
140
100
AcDbEntity
  8
Layer_1
 62
7
100
AcDbSpline
 70
8
 71
3
 72
8
 73
4
 74
0
 40
0
 40
0
 40
0
 40
0
 40
1
 40
1
 40
1
 40
1
 10
223.534952
 20
149.724168
 30
0.0
 10
225.132952
 20
149.724168
 30
0.0
 10
226.428952
 20
151.020168
 30
0.0
 10
226.428952
 20
152.618168
 30
0.0
  0
LWPOLYLINE
  5
141
100
AcDbEntity
  8
Layer_1
 62
7
100
AcDbPolyline
 90
2
 70
0
 10
213.211952
 20
149.724168
 30
0.0
 10
223.534952
 20
149.724168
 30
0.0
  0
SPLINE
  5
142
100
AcDbEntity
  8
Layer_1
 62
7
100
AcDbSpline
 70
8
 71
3
 72
8
 73
4
 74
0
 40
0
 40
0
 40
0
 40
0
 40
1
 40
1
 40
1
 40
1
 10
226.428952
 20
167.498168
 30
0.0
 10
226.428952
 20
169.096168
 30
0.0
 10
225.132952
 20
170.392168
 30
0.0
 10
223.534952
 20
170.392168
 30
0.0
  0
LWPOLYLINE
  5
143
100
AcDbEntity
  8
Layer_1
 62
7
100
AcDbPolyline
 90
2
 70
0
 10
226.428952
 20
152.618168
 30
0.0
 10
226.428952
 20
167.498168
 30
0.0
  0
SPLINE
  5
144
100
AcDbEntity
  8
Layer_1
 62
7
100
AcDbSpline
 70
8
 71
3
 72
8
 73
4
 74
0
 40
0
 40
0
 40
0
 40
0
 40
1
 40
1
 40
1
 40
1
 10
211.153952
 20
170.392168
 30
0.0
 10
210.776952
 20
170.392168
 30
0.0
 10
210.644952
 20
170.891168
 30
0.0
 10
210.970952
 20
171.077168
 30
0.0
  0
LWPOLYLINE
  5
145
100
AcDbEntity
  8
Layer_1
 62
7
100
AcDbPolyline
 90
2
 70
0
 10
223.534952
 20
170.392168
 30
0.0
 10
211.153952
 20
170.392168
 30
0.0
  0
SPLINE
  5
146
100
AcDbEntity
  8
Layer_1
 62
7
100
AcDbSpline
 70
8
 71
3
 72
8
 73
4
 74
0
 40
0
 40
0
 40
0
 40
0
 40
1
 40
1
 40
1
 40
1
 10
252.825952
 20
195.027168
 30
0.0
 10
254.293952
 20
195.867168
 30
0.0
 10
254.792952
 20
197.743168
 30
0.0
 10
253.935952
 20
199.201168
 30
0.0
  0
SPLINE
  5
147
100
AcDbEntity
  8
Layer_1
 62
7
100
AcDbSpline
 70
8
 71
3
 72
8
 73
4
 74
0
 40
0
 40
0
 40
0
 40
0
 40
1
 40
1
 40
1
 40
1
 10
71.555952
 20
57.019168
 30
0.0
 10
71.683952
 20
56.504168
 30
0.0
 10
71.748952
 20
56.041168
 30
0.0
 10
71.748952
 20
55.630168
 30
0.0
  0
LWPOLYLINE
  5
148
100
AcDbEntity
  8
Layer_1
 62
7
100
AcDbPolyline
 90
2
 70
0
 10
210.970952
 20
171.077168
 30
0.0
 10
252.825952
 20
195.027168
 30
0.0
  0
SPLINE
  5
149
100
AcDbEntity
  8
Layer_1
 62
7
100
AcDbSpline
 70
8
 71
3
 72
8
 73
4
 74
0
 40
0
 40
0
 40
0
 40
0
 40
1
 40
1
 40
1
 40
1
 10
71.748952
 20
13.504168
 30
0.0
 10
71.748952
 20
13.092168
 30
0.0
 10
71.606952
 20
12.745168
 30
0.0
 10
71.324952
 20
12.462168
 30
0.0
  0
SPLINE
  5
14a
100
AcDbEntity
  8
Layer_1
 62
7
100
AcDbSpline
 70
8
 71
3
 72
8
 73
4
 74
0
 40
0
 40
0
 40
0
 40
0
 40
1
 40
1
 40
1
 40
1
 10
71.324952
 20
12.462168
 30
0.0
 10
71.040952
 20
12.179168
 30
0.0
 10
70.693952
 20
12.038168
 30
0.0
 10
70.282952
 20
12.038168
 30
0.0
  0
LWPOLYLINE
  5
14b
100
AcDbEntity
  8
Layer_1
 62
7
100
AcDbPolyline
 90
4
 70
0
 10
71.748952
 20
55.630168
 30
0.0
 10
71.748952
 20
51.695168
 30
0.0
 10
71.748952
 20
20.217168
 30
0.0
 10
71.748952
 20
13.504168
 30
0.0
  0
SPLINE
  5
14c
100
AcDbEntity
  8
Layer_1
 62
7
100
AcDbSpline
 70
8
 71
3
 72
8
 73
4
 74
0
 40
0
 40
0
 40
0
 40
0
 40
1
 40
1
 40
1
 40
1
 10
59.558952
 20
12.038168
 30
0.0
 10
59.145952
 20
12.038168
 30
0.0
 10
58.812952
 20
12.179168
 30
0.0
 10
58.554952
 20
12.462168
 30
0.0
  0
SPLINE
  5
14d
100
AcDbEntity
  8
Layer_1
 62
7
100
AcDbSpline
 70
8
 71
3
 72
8
 73
4
 74
0
 40
0
 40
0
 40
0
 40
0
 40
1
 40
1
 40
1
 40
1
 10
58.554952
 20
12.462168
 30
0.0
 10
58.297952
 20
12.745168
 30
0.0
 10
58.169952
 20
13.092168
 30
0.0
 10
58.169952
 20
13.504168
 30
0.0
  0
LWPOLYLINE
  5
14e
100
AcDbEntity
  8
Layer_1
 62
7
100
AcDbPolyline
 90
2
 70
0
 10
70.282952
 20
12.038168
 30
0.0
 10
59.558952
 20
12.038168
 30
0.0
  0
SPLINE
  5
14f
100
AcDbEntity
  8
Layer_1
 62
7
100
AcDbSpline
 70
8
 71
3
 72
8
 73
4
 74
0
 40
0
 40
0
 40
0
 40
0
 40
1
 40
1
 40
1
 40
1
 10
49.527952
 20
13.504168
 30
0.0
 10
49.527952
 20
13.092168
 30
0.0
 10
49.399952
 20
12.745168
 30
0.0
 10
49.142952
 20
12.462168
 30
0.0
  0
SPLINE
  5
150
100
AcDbEntity
  8
Layer_1
 62
7
100
AcDbSpline
 70
8
 71
3
 72
8
 73
4
 74
0
 40
0
 40
0
 40
0
 40
0
 40
1
 40
1
 40
1
 40
1
 10
49.142952
 20
12.462168
 30
0.0
 10
48.884952
 20
12.179168
 30
0.0
 10
48.550952
 20
12.038168
 30
0.0
 10
48.139952
 20
12.038168
 30
0.0
  0
LWPOLYLINE
  5
151
100
AcDbEntity
  8
Layer_1
 62
7
100
AcDbPolyline
 90
8
 70
0
 10
58.169952
 20
13.504168
 30
0.0
 10
58.169952
 20
24.074168
 30
0.0
 10
58.169952
 20
44.057168
 30
0.0
 10
58.169952
 20
52.930168
 30
0.0
 10
49.527952
 20
52.930168
 30
0.0
 10
49.527952
 20
43.131168
 30
0.0
 10
49.527952
 20
19.291168
 30
0.0
 10
49.527952
 20
13.504168
 30
0.0
  0
SPLINE
  5
152
100
AcDbEntity
  8
Layer_1
 62
7
100
AcDbSpline
 70
8
 71
3
 72
8
 73
4
 74
0
 40
0
 40
0
 40
0
 40
0
 40
1
 40
1
 40
1
 40
1
 10
38.418952
 20
12.038168
 30
0.0
 10
38.005952
 20
12.038168
 30
0.0
 10
37.658952
 20
12.179168
 30
0.0
 10
37.376952
 20
12.462168
 30
0.0
  0
SPLINE
  5
153
100
AcDbEntity
  8
Layer_1
 62
7
100
AcDbSpline
 70
8
 71
3
 72
8
 73
4
 74
0
 40
0
 40
0
 40
0
 40
0
 40
1
 40
1
 40
1
 40
1
 10
37.376952
 20
12.462168
 30
0.0
 10
37.093952
 20
12.745168
 30
0.0
 10
36.952952
 20
13.092168
 30
0.0
 10
36.952952
 20
13.504168
 30
0.0
  0
LWPOLYLINE
  5
154
100
AcDbEntity
  8
Layer_1
 62
7
100
AcDbPolyline
 90
2
 70
0
 10
48.139952
 20
12.038168
 30
0.0
 10
38.418952
 20
12.038168
 30
0.0
  0
SPLINE
  5
155
100
AcDbEntity
  8
Layer_1
 62
7
100
AcDbSpline
 70
8
 71
3
 72
8
 73
4
 74
0
 40
0
 40
0
 40
0
 40
0
 40
1
 40
1
 40
1
 40
1
 10
28.310952
 20
13.504168
 30
0.0
 10
28.310952
 20
12.526168
 30
0.0
 10
27.821952
 20
12.038168
 30
0.0
 10
26.844952
 20
12.038168
 30
0.0
  0
LWPOLYLINE
  5
156
100
AcDbEntity
  8
Layer_1
 62
7
100
AcDbPolyline
 90
8
 70
0
 10
36.952952
 20
13.504168
 30
0.0
 10
36.952952
 20
20.371168
 30
0.0
 10
36.952952
 20
45.291168
 30
0.0
 10
36.952952
 20
52.930168
 30
0.0
 10
28.310952
 20
52.930168
 30
0.0
 10
28.310952
 20
39.659168
 30
0.0
 10
28.310952
 20
20.834168
 30
0.0
 10
28.310952
 20
13.504168
 30
0.0
  0
SPLINE
  5
157
100
AcDbEntity
  8
Layer_1
 62
7
100
AcDbSpline
 70
8
 71
3
 72
8
 73
4
 74
0
 40
0
 40
0
 40
0
 40
0
 40
1
 40
1
 40
1
 40
1
 10
16.197952
 20
12.038168
 30
0.0
 10
15.220952
 20
12.038168
 30
0.0
 10
14.731952
 20
12.526168
 30
0.0
 10
14.731952
 20
13.504168
 30
0.0
  0
LWPOLYLINE
  5
158
100
AcDbEntity
  8
Layer_1
 62
7
100
AcDbPolyline
 90
2
 70
0
 10
26.844952
 20
12.038168
 30
0.0
 10
16.197952
 20
12.038168
 30
0.0
  0
SPLINE
  5
159
100
AcDbEntity
  8
Layer_1
 62
7
100
AcDbSpline
 70
8
 71
3
 72
8
 73
4
 74
0
 40
0
 40
0
 40
0
 40
0
 40
1
 40
1
 40
1
 40
1
 10
14.731952
 20
64.580168
 30
0.0
 10
14.731952
 20
64.991168
 30
0.0
 10
14.872952
 20
65.338168
 30
0.0
 10
15.155952
 20
65.622168
 30
0.0
  0
SPLINE
  5
15a
100
AcDbEntity
  8
Layer_1
 62
7
100
AcDbSpline
 70
8
 71
3
 72
8
 73
4
 74
0
 40
0
 40
0
 40
0
 40
0
 40
1
 40
1
 40
1
 40
1
 10
15.155952
 20
65.622168
 30
0.0
 10
15.438952
 20
65.904168
 30
0.0
 10
15.785952
 20
66.046168
 30
0.0
 10
16.197952
 20
66.046168
 30
0.0
  0
LWPOLYLINE
  5
15b
100
AcDbEntity
  8
Layer_1
 62
7
100
AcDbPolyline
 90
4
 70
0
 10
14.731952
 20
13.504168
 30
0.0
 10
14.731952
 20
24.305168
 30
0.0
 10
14.731952
 20
57.945168
 30
0.0
 10
14.731952
 20
64.580168
 30
0.0
  0
SPLINE
  5
15c
100
AcDbEntity
  8
Layer_1
 62
7
100
AcDbSpline
 70
8
 71
3
 72
8
 73
4
 74
0
 40
0
 40
0
 40
0
 40
0
 40
1
 40
1
 40
1
 40
1
 10
61.255952
 20
66.046168
 30
0.0
 10
61.666952
 20
66.046168
 30
0.0
 10
62.142952
 20
65.981168
 30
0.0
 10
62.682952
 20
65.853168
 30
0.0
  0
SPLINE
  5
15d
100
AcDbEntity
  8
Layer_1
 62
7
100
AcDbSpline
 70
8
 71
3
 72
8
 73
4
 74
0
 40
0
 40
0
 40
0
 40
0
 40
1
 40
1
 40
1
 40
1
 10
62.682952
 20
65.853168
 30
0.0
 10
63.222952
 20
65.724168
 30
0.0
 10
63.672952
 20
65.583168
 30
0.0
 10
64.033952
 20
65.429168
 30
0.0
  0
LWPOLYLINE
  5
15e
100
AcDbEntity
  8
Layer_1
 62
7
100
AcDbPolyline
 90
4
 70
0
 10
16.197952
 20
66.046168
 30
0.0
 10
20.672952
 20
66.046168
 30
0.0
 10
57.397952
 20
66.046168
 30
0.0
 10
61.255952
 20
66.046168
 30
0.0
  0
SPLINE
  5
15f
100
AcDbEntity
  8
Layer_1
 62
7
100
AcDbSpline
 70
8
 71
3
 72
8
 73
4
 74
0
 40
0
 40
0
 40
0
 40
0
 40
1
 40
1
 40
1
 40
1
 10
71.131952
 20
58.330168
 30
0.0
 10
71.285952
 20
57.970168
 30
0.0
 10
71.426952
 20
57.532168
 30
0.0
 10
71.555952
 20
57.019168
 30
0.0
  0
LWPOLYLINE
  5
160
100
AcDbEntity
  8
Layer_1
 62
7
100
AcDbPolyline
 90
2
 70
0
 10
64.033952
 20
65.429168
 30
0.0
 10
71.131952
 20
58.330168
 30
0.0
  0
SPLINE
  5
161
100
AcDbEntity
  8
Layer_1
 62
7
100
AcDbSpline
 70
8
 71
3
 72
8
 73
4
 74
0
 40
0
 40
0
 40
0
 40
0
 40
1
 40
1
 40
1
 40
1
 10
123.827712
 20
58.330064
 30
0.0
 10
123.981712
 20
57.970064
 30
0.0
 10
124.122752
 20
57.533064
 30
0.0
 10
124.251712
 20
57.019064
 30
0.0
  0
SPLINE
  5
162
100
AcDbEntity
  8
Layer_1
 62
7
100
AcDbSpline
 70
8
 71
3
 72
8
 73
4
 74
0
 40
0
 40
0
 40
0
 40
0
 40
1
 40
1
 40
1
 40
1
 10
124.251712
 20
57.019064
 30
0.0
 10
124.379712
 20
56.504064
 30
0.0
 10
124.444752
 20
56.041064
 30
0.0
 10
124.444752
 20
55.630064
 30
0.0
  0
LWPOLYLINE
  5
163
100
AcDbEntity
  8
Layer_1
 62
7
100
AcDbPolyline
 90
6
 70
0
 10
110.788752
 20
52.930064
 30
0.0
 10
92.657712
 20
52.930064
 30
0.0
 10
92.657712
 20
25.077064
 30
0.0
 10
110.788752
 20
25.077064
 30
0.0
 10
110.788752
 20
52.930064
 30
0.0
 10
110.788752
 20
52.930064
 30
0.0
  0
SPLINE
  5
164
100
AcDbEntity
  8
Layer_1
 62
7
100
AcDbSpline
 70
8
 71
3
 72
8
 73
4
 74
0
 40
0
 40
0
 40
0
 40
0
 40
1
 40
1
 40
1
 40
1
 10
124.444752
 20
22.454064
 30
0.0
 10
124.444752
 20
22.042064
 30
0.0
 10
124.379952
 20
21.579064
 30
0.0
 10
124.251712
 20
21.065064
 30
0.0
  0
SPLINE
  5
165
100
AcDbEntity
  8
Layer_1
 62
7
100
AcDbSpline
 70
8
 71
3
 72
8
 73
4
 74
0
 40
0
 40
0
 40
0
 40
0
 40
1
 40
1
 40
1
 40
1
 10
124.251712
 20
21.065064
 30
0.0
 10
124.122752
 20
20.551064
 30
0.0
 10
123.981712
 20
20.113064
 30
0.0
 10
123.827712
 20
19.754064
 30
0.0
  0
LWPOLYLINE
  5
166
100
AcDbEntity
  8
Layer_1
 62
7
100
AcDbPolyline
 90
4
 70
0
 10
124.444752
 20
55.630064
 30
0.0
 10
124.444752
 20
54.164064
 30
0.0
 10
124.444752
 20
26.466064
 30
0.0
 10
124.444752
 20
22.454064
 30
0.0
  0
SPLINE
  5
167
100
AcDbEntity
  8
Layer_1
 62
7
100
AcDbSpline
 70
8
 71
3
 72
8
 73
4
 74
0
 40
0
 40
0
 40
0
 40
0
 40
1
 40
1
 40
1
 40
1
 10
116.729712
 20
12.656064
 30
0.0
 10
116.368752
 20
12.449064
 30
0.0
 10
115.918752
 20
12.295064
 30
0.0
 10
115.379712
 20
12.193064
 30
0.0
  0
SPLINE
  5
168
100
AcDbEntity
  8
Layer_1
 62
7
100
AcDbSpline
 70
8
 71
3
 72
8
 73
4
 74
0
 40
0
 40
0
 40
0
 40
0
 40
1
 40
1
 40
1
 40
1
 10
115.379712
 20
12.193064
 30
0.0
 10
114.838752
 20
12.089064
 30
0.0
 10
114.362752
 20
12.038064
 30
0.0
 10
113.951712
 20
12.038064
 30
0.0
  0
LWPOLYLINE
  5
169
100
AcDbEntity
  8
Layer_1
 62
7
100
AcDbPolyline
 90
2
 70
0
 10
123.827712
 20
19.754064
 30
0.0
 10
116.729712
 20
12.656064
 30
0.0
  0
SPLINE
  5
16a
100
AcDbEntity
  8
Layer_1
 62
7
100
AcDbSpline
 70
8
 71
3
 72
8
 73
4
 74
0
 40
0
 40
0
 40
0
 40
0
 40
1
 40
1
 40
1
 40
1
 10
89.493712
 20
12.038064
 30
0.0
 10
89.081712
 20
12.038064
 30
0.0
 10
88.618752
 20
12.089024
 30
0.0
 10
88.105712
 20
12.193064
 30
0.0
  0
SPLINE
  5
16b
100
AcDbEntity
  8
Layer_1
 62
7
100
AcDbSpline
 70
8
 71
3
 72
8
 73
4
 74
0
 40
0
 40
0
 40
0
 40
0
 40
1
 40
1
 40
1
 40
1
 10
88.105712
 20
12.193064
 30
0.0
 10
87.590752
 20
12.295064
 30
0.0
 10
87.152752
 20
12.449064
 30
0.0
 10
86.793712
 20
12.656064
 30
0.0
  0
LWPOLYLINE
  5
16c
100
AcDbEntity
  8
Layer_1
 62
7
100
AcDbPolyline
 90
4
 70
0
 10
113.951712
 20
12.038064
 30
0.0
 10
112.331712
 20
12.038064
 30
0.0
 10
93.659712
 20
12.038064
 30
0.0
 10
89.493712
 20
12.038064
 30
0.0
  0
SPLINE
  5
16d
100
AcDbEntity
  8
Layer_1
 62
7
100
AcDbSpline
 70
8
 71
3
 72
8
 73
4
 74
0
 40
0
 40
0
 40
0
 40
0
 40
1
 40
1
 40
1
 40
1
 10
79.695712
 20
19.754064
 30
0.0
 10
79.488752
 20
20.113064
 30
0.0
 10
79.334752
 20
20.551064
 30
0.0
 10
79.232752
 20
21.065064
 30
0.0
  0
SPLINE
  5
16e
100
AcDbEntity
  8
Layer_1
 62
7
100
AcDbSpline
 70
8
 71
3
 72
8
 73
4
 74
0
 40
0
 40
0
 40
0
 40
0
 40
1
 40
1
 40
1
 40
1
 10
79.232752
 20
21.065064
 30
0.0
 10
79.128752
 20
21.579064
 30
0.0
 10
79.078752
 20
22.042064
 30
0.0
 10
79.078752
 20
22.454064
 30
0.0
  0
LWPOLYLINE
  5
16f
100
AcDbEntity
  8
Layer_1
 62
7
100
AcDbPolyline
 90
2
 70
0
 10
86.793712
 20
12.656064
 30
0.0
 10
79.695712
 20
19.754064
 30
0.0
  0
SPLINE
  5
170
100
AcDbEntity
  8
Layer_1
 62
7
100
AcDbSpline
 70
8
 71
3
 72
8
 73
4
 74
0
 40
0
 40
0
 40
0
 40
0
 40
1
 40
1
 40
1
 40
1
 10
79.078752
 20
55.630064
 30
0.0
 10
79.078752
 20
56.041064
 30
0.0
 10
79.128352
 20
56.504064
 30
0.0
 10
79.232752
 20
57.019064
 30
0.0
  0
SPLINE
  5
171
100
AcDbEntity
  8
Layer_1
 62
7
100
AcDbSpline
 70
8
 71
3
 72
8
 73
4
 74
0
 40
0
 40
0
 40
0
 40
0
 40
1
 40
1
 40
1
 40
1
 10
79.232752
 20
57.019064
 30
0.0
 10
79.334752
 20
57.533064
 30
0.0
 10
79.488752
 20
57.970064
 30
0.0
 10
79.695712
 20
58.330064
 30
0.0
  0
LWPOLYLINE
  5
172
100
AcDbEntity
  8
Layer_1
 62
7
100
AcDbPolyline
 90
4
 70
0
 10
79.078752
 20
22.454064
 30
0.0
 10
79.078752
 20
24.074064
 30
0.0
 10
79.078752
 20
51.618064
 30
0.0
 10
79.078752
 20
55.630064
 30
0.0
  0
SPLINE
  5
173
100
AcDbEntity
  8
Layer_1
 62
7
100
AcDbSpline
 70
8
 71
3
 72
8
 73
4
 74
0
 40
0
 40
0
 40
0
 40
0
 40
1
 40
1
 40
1
 40
1
 10
86.793712
 20
65.429064
 30
0.0
 10
87.152752
 20
65.583064
 30
0.0
 10
87.590752
 20
65.724064
 30
0.0
 10
88.105712
 20
65.853064
 30
0.0
  0
SPLINE
  5
174
100
AcDbEntity
  8
Layer_1
 62
7
100
AcDbSpline
 70
8
 71
3
 72
8
 73
4
 74
0
 40
0
 40
0
 40
0
 40
0
 40
1
 40
1
 40
1
 40
1
 10
88.105712
 20
65.853064
 30
0.0
 10
88.618752
 20
65.981064
 30
0.0
 10
89.081712
 20
66.046064
 30
0.0
 10
89.493712
 20
66.046064
 30
0.0
  0
LWPOLYLINE
  5
175
100
AcDbEntity
  8
Layer_1
 62
7
100
AcDbPolyline
 90
2
 70
0
 10
79.695712
 20
58.330064
 30
0.0
 10
86.793712
 20
65.429064
 30
0.0
  0
SPLINE
  5
176
100
AcDbEntity
  8
Layer_1
 62
7
100
AcDbSpline
 70
8
 71
3
 72
8
 73
4
 74
0
 40
0
 40
0
 40
0
 40
0
 40
1
 40
1
 40
1
 40
1
 10
113.951712
 20
66.046064
 30
0.0
 10
114.362752
 20
66.046064
 30
0.0
 10
114.838752
 20
65.981024
 30
0.0
 10
115.379712
 20
65.853064
 30
0.0
  0
SPLINE
  5
177
100
AcDbEntity
  8
Layer_1
 62
7
100
AcDbSpline
 70
8
 71
3
 72
8
 73
4
 74
0
 40
0
 40
0
 40
0
 40
0
 40
1
 40
1
 40
1
 40
1
 10
115.379712
 20
65.853064
 30
0.0
 10
115.918752
 20
65.724064
 30
0.0
 10
116.368752
 20
65.583064
 30
0.0
 10
116.729712
 20
65.429064
 30
0.0
  0
LWPOLYLINE
  5
178
100
AcDbEntity
  8
Layer_1
 62
7
100
AcDbPolyline
 90
4
 70
0
 10
89.493712
 20
66.046064
 30
0.0
 10
92.811712
 20
66.046064
 30
0.0
 10
109.013712
 20
66.046064
 30
0.0
 10
113.951712
 20
66.046064
 30
0.0
  0
LWPOLYLINE
  5
179
100
AcDbEntity
  8
Layer_1
 62
7
100
AcDbPolyline
 90
3
 70
0
 10
116.729712
 20
65.429064
 30
0.0
 10
123.827712
 20
58.330064
 30
0.0
 10
123.827712
 20
58.330064
 30
0.0
  0
SPLINE
  5
17a
100
AcDbEntity
  8
Layer_1
 62
7
100
AcDbSpline
 70
8
 71
3
 72
8
 73
4
 74
0
 40
0
 40
0
 40
0
 40
0
 40
1
 40
1
 40
1
 40
1
 10
177.064792
 20
58.330768
 30
0.0
 10
177.218792
 20
57.970768
 30
0.0
 10
177.359792
 20
57.532768
 30
0.0
 10
177.488792
 20
57.018768
 30
0.0
  0
SPLINE
  5
17b
100
AcDbEntity
  8
Layer_1
 62
7
100
AcDbSpline
 70
8
 71
3
 72
8
 73
4
 74
0
 40
0
 40
0
 40
0
 40
0
 40
1
 40
1
 40
1
 40
1
 10
177.488792
 20
57.018768
 30
0.0
 10
177.616792
 20
56.504768
 30
0.0
 10
177.681792
 20
56.041768
 30
0.0
 10
177.681792
 20
55.630768
 30
0.0
  0
LWPOLYLINE
  5
17c
100
AcDbEntity
  8
Layer_1
 62
7
100
AcDbPolyline
 90
14
 70
0
 10
152.529792
 20
52.929768
 30
0.0
 10
145.894792
 20
52.929768
 30
0.0
 10
145.894792
 20
45.059768
 30
0.0
 10
145.894792
 20
31.249768
 30
0.0
 10
145.894792
 20
25.076768
 30
0.0
 10
152.837792
 20
25.076768
 30
0.0
 10
156.618792
 20
25.076768
 30
0.0
 10
164.025792
 20
25.076768
 30
0.0
 10
164.025792
 20
30.786768
 30
0.0
 10
164.025792
 20
44.596768
 30
0.0
 10
164.025792
 20
52.929768
 30
0.0
 10
156.696792
 20
52.929768
 30
0.0
 10
152.529792
 20
52.929768
 30
0.0
 10
152.529792
 20
52.929768
 30
0.0
  0
SPLINE
  5
17d
100
AcDbEntity
  8
Layer_1
 62
7
100
AcDbSpline
 70
8
 71
3
 72
8
 73
4
 74
0
 40
0
 40
0
 40
0
 40
0
 40
1
 40
1
 40
1
 40
1
 10
177.681792
 20
22.453768
 30
0.0
 10
177.681792
 20
22.041768
 30
0.0
 10
177.616792
 20
21.578768
 30
0.0
 10
177.488792
 20
21.065768
 30
0.0
  0
SPLINE
  5
17e
100
AcDbEntity
  8
Layer_1
 62
7
100
AcDbSpline
 70
8
 71
3
 72
8
 73
4
 74
0
 40
0
 40
0
 40
0
 40
0
 40
1
 40
1
 40
1
 40
1
 10
177.488792
 20
21.065768
 30
0.0
 10
177.359792
 20
20.550768
 30
0.0
 10
177.218792
 20
20.112768
 30
0.0
 10
177.064792
 20
19.753768
 30
0.0
  0
LWPOLYLINE
  5
17f
100
AcDbEntity
  8
Layer_1
 62
7
100
AcDbPolyline
 90
4
 70
0
 10
177.681792
 20
55.630768
 30
0.0
 10
177.681792
 20
52.929768
 30
0.0
 10
177.681792
 20
24.537768
 30
0.0
 10
177.681792
 20
22.453768
 30
0.0
  0
SPLINE
  5
180
100
AcDbEntity
  8
Layer_1
 62
7
100
AcDbSpline
 70
8
 71
3
 72
8
 73
4
 74
0
 40
0
 40
0
 40
0
 40
0
 40
1
 40
1
 40
1
 40
1
 10
169.966792
 20
12.655768
 30
0.0
 10
169.606792
 20
12.448768
 30
0.0
 10
169.156792
 20
12.294768
 30
0.0
 10
168.616792
 20
12.192768
 30
0.0
  0
SPLINE
  5
181
100
AcDbEntity
  8
Layer_1
 62
7
100
AcDbSpline
 70
8
 71
3
 72
8
 73
4
 74
0
 40
0
 40
0
 40
0
 40
0
 40
1
 40
1
 40
1
 40
1
 10
168.616792
 20
12.192768
 30
0.0
 10
168.075792
 20
12.088768
 30
0.0
 10
167.599792
 20
12.038768
 30
0.0
 10
167.188792
 20
12.038768
 30
0.0
  0
LWPOLYLINE
  5
182
100
AcDbEntity
  8
Layer_1
 62
7
100
AcDbPolyline
 90
2
 70
0
 10
177.064792
 20
19.753768
 30
0.0
 10
169.966792
 20
12.655768
 30
0.0
  0
SPLINE
  5
183
100
AcDbEntity
  8
Layer_1
 62
7
100
AcDbSpline
 70
8
 71
3
 72
8
 73
4
 74
0
 40
0
 40
0
 40
0
 40
0
 40
1
 40
1
 40
1
 40
1
 10
133.781792
 20
12.038768
 30
0.0
 10
132.803792
 20
12.038768
 30
0.0
 10
132.315792
 20
12.526768
 30
0.0
 10
132.315792
 20
13.504768
 30
0.0
  0
LWPOLYLINE
  5
184
100
AcDbEntity
  8
Layer_1
 62
7
100
AcDbPolyline
 90
4
 70
0
 10
167.188792
 20
12.038768
 30
0.0
 10
164.102792
 20
12.038768
 30
0.0
 10
139.181792
 20
12.038768
 30
0.0
 10
133.781792
 20
12.038768
 30
0.0
  0
SPLINE
  5
185
100
AcDbEntity
  8
Layer_1
 62
7
100
AcDbSpline
 70
8
 71
3
 72
8
 73
4
 74
0
 40
0
 40
0
 40
0
 40
0
 40
1
 40
1
 40
1
 40
1
 10
132.315792
 20
64.579768
 30
0.0
 10
132.315792
 20
64.990768
 30
0.0
 10
132.456792
 20
65.338768
 30
0.0
 10
132.739792
 20
65.621768
 30
0.0
  0
SPLINE
  5
186
100
AcDbEntity
  8
Layer_1
 62
7
100
AcDbSpline
 70
8
 71
3
 72
8
 73
4
 74
0
 40
0
 40
0
 40
0
 40
0
 40
1
 40
1
 40
1
 40
1
 10
132.739792
 20
65.621768
 30
0.0
 10
133.021792
 20
65.903768
 30
0.0
 10
133.368792
 20
66.045768
 30
0.0
 10
133.781792
 20
66.045768
 30
0.0
  0
LWPOLYLINE
  5
187
100
AcDbEntity
  8
Layer_1
 62
7
100
AcDbPolyline
 90
4
 70
0
 10
132.315792
 20
13.504768
 30
0.0
 10
132.315792
 20
20.062768
 30
0.0
 10
132.315792
 20
58.175768
 30
0.0
 10
132.315792
 20
64.579768
 30
0.0
  0
SPLINE
  5
188
100
AcDbEntity
  8
Layer_1
 62
7
100
AcDbSpline
 70
8
 71
3
 72
8
 73
4
 74
0
 40
0
 40
0
 40
0
 40
0
 40
1
 40
1
 40
1
 40
1
 10
167.188792
 20
66.045768
 30
0.0
 10
167.599792
 20
66.045768
 30
0.0
 10
168.075792
 20
65.980768
 30
0.0
 10
168.616792
 20
65.852768
 30
0.0
  0
SPLINE
  5
189
100
AcDbEntity
  8
Layer_1
 62
7
100
AcDbSpline
 70
8
 71
3
 72
8
 73
4
 74
0
 40
0
 40
0
 40
0
 40
0
 40
1
 40
1
 40
1
 40
1
 10
168.616792
 20
65.852768
 30
0.0
 10
169.156792
 20
65.724768
 30
0.0
 10
169.606792
 20
65.582768
 30
0.0
 10
169.966792
 20
65.428768
 30
0.0
  0
LWPOLYLINE
  5
18a
100
AcDbEntity
  8
Layer_1
 62
7
100
AcDbPolyline
 90
4
 70
0
 10
133.781792
 20
66.045768
 30
0.0
 10
138.564792
 20
66.045768
 30
0.0
 10
160.553792
 20
66.045768
 30
0.0
 10
167.188792
 20
66.045768
 30
0.0
  0
LWPOLYLINE
  5
18b
100
AcDbEntity
  8
Layer_1
 62
7
100
AcDbPolyline
 90
3
 70
0
 10
169.966792
 20
65.428768
 30
0.0
 10
177.064792
 20
58.330768
 30
0.0
 10
177.064792
 20
58.330768
 30
0.0
  0
SPLINE
  5
18c
100
AcDbEntity
  8
Layer_1
 62
7
100
AcDbSpline
 70
8
 71
3
 72
8
 73
4
 74
0
 40
0
 40
0
 40
0
 40
0
 40
1
 40
1
 40
1
 40
1
 10
204.074992
 20
12.062264
 30
0.0
 10
203.096992
 20
12.062264
 30
0.0
 10
202.608992
 20
12.550264
 30
0.0
 10
202.608992
 20
13.528264
 30
0.0
  0
LWPOLYLINE
  5
18d
100
AcDbEntity
  8
Layer_1
 62
7
100
AcDbPolyline
 90
2
 70
0
 10
223.017991
 20
12.062264
 30
0.0
 10
204.074992
 20
12.062264
 30
0.0
  0
SPLINE
  5
18e
100
AcDbEntity
  8
Layer_1
 62
7
100
AcDbSpline
 70
8
 71
3
 72
8
 73
4
 74
0
 40
0
 40
0
 40
0
 40
0
 40
1
 40
1
 40
1
 40
1
 10
202.608992
 20
64.604264
 30
0.0
 10
202.608992
 20
65.580264
 30
0.0
 10
203.096992
 20
66.070264
 30
0.0
 10
204.074992
 20
66.070264
 30
0.0
  0
LWPOLYLINE
  5
18f
100
AcDbEntity
  8
Layer_1
 62
7
100
AcDbPolyline
 90
2
 70
0
 10
202.608992
 20
13.528264
 30
0.0
 10
202.608992
 20
64.604264
 30
0.0
  0
LWPOLYLINE
  5
190
100
AcDbEntity
  8
Layer_1
 62
7
100
AcDbPolyline
 90
7
 70
0
 10
204.074992
 20
66.070264
 30
0.0
 10
207.865703
 20
66.070264
 30
0.0
 10
207.865836
 20
71.816677
 30
0.0
 10
190.890290
 20
71.816677
 30
0.0
 10
190.890290
 20
6.034677
 30
0.0
 10
223.017991
 20
6.034677
 30
0.0
 10
223.017991
 20
12.062264
 30
0.0
  0
LWPOLYLINE
  5
191
100
AcDbEntity
  8
Layer_1
 62
7
100
AcDbPolyline
 90
5
 70
0
 10
278.201712
 20
54.034064
 30
0.0
 10
259.993712
 20
54.034064
 30
0.0
 10
259.993712
 20
40.378064
 30
0.0
 10
278.201712
 20
40.378064
 30
0.0
 10
278.201712
 20
54.034064
 30
0.0
  0
SPLINE
  5
192
100
AcDbEntity
  8
Layer_1
 62
7
100
AcDbSpline
 70
8
 71
3
 72
8
 73
4
 74
0
 40
0
 40
0
 40
0
 40
0
 40
1
 40
1
 40
1
 40
1
 10
247.880752
 20
12.139064
 30
0.0
 10
247.467712
 20
12.139064
 30
0.0
 10
247.120752
 20
12.267064
 30
0.0
 10
246.838752
 20
12.525064
 30
0.0
  0
SPLINE
  5
193
100
AcDbEntity
  8
Layer_1
 62
7
100
AcDbSpline
 70
8
 71
3
 72
8
 73
4
 74
0
 40
0
 40
0
 40
0
 40
0
 40
1
 40
1
 40
1
 40
1
 10
246.838752
 20
12.525064
 30
0.0
 10
246.555712
 20
12.782064
 30
0.0
 10
246.414752
 20
13.116064
 30
0.0
 10
246.414752
 20
13.528064
 30
0.0
  0
LWPOLYLINE
  5
194
100
AcDbEntity
  8
Layer_1
 62
7
100
AcDbPolyline
 90
2
 70
0
 10
252.110384
 20
12.139064
 30
0.0
 10
247.880752
 20
12.139064
 30
0.0
  0
SPLINE
  5
195
100
AcDbEntity
  8
Layer_1
 62
7
100
AcDbSpline
 70
8
 71
3
 72
8
 73
4
 74
0
 40
0
 40
0
 40
0
 40
0
 40
1
 40
1
 40
1
 40
1
 10
246.414752
 20
55.886064
 30
0.0
 10
246.464352
 20
56.297064
 30
0.0
 10
246.542752
 20
56.734064
 30
0.0
 10
246.645712
 20
57.197064
 30
0.0
  0
SPLINE
  5
196
100
AcDbEntity
  8
Layer_1
 62
7
100
AcDbSpline
 70
8
 71
3
 72
8
 73
4
 74
0
 40
0
 40
0
 40
0
 40
0
 40
1
 40
1
 40
1
 40
1
 10
246.645712
 20
57.197064
 30
0.0
 10
246.747712
 20
57.660064
 30
0.0
 10
246.877712
 20
58.071064
 30
0.0
 10
247.031712
 20
58.432064
 30
0.0
  0
LWPOLYLINE
  5
197
100
AcDbEntity
  8
Layer_1
 62
7
100
AcDbPolyline
 90
4
 70
0
 10
246.414752
 20
13.528064
 30
0.0
 10
246.414752
 20
54.420064
 30
0.0
 10
246.414752
 20
55.654064
 30
0.0
 10
246.414752
 20
55.886064
 30
0.0
  0
SPLINE
  5
198
100
AcDbEntity
  8
Layer_1
 62
7
100
AcDbSpline
 70
8
 71
3
 72
8
 73
4
 74
0
 40
0
 40
0
 40
0
 40
0
 40
1
 40
1
 40
1
 40
1
 10
254.129712
 20
65.530064
 30
0.0
 10
254.488752
 20
65.684064
 30
0.0
 10
254.926752
 20
65.825064
 30
0.0
 10
255.441712
 20
65.954064
 30
0.0
  0
SPLINE
  5
199
100
AcDbEntity
  8
Layer_1
 62
7
100
AcDbSpline
 70
8
 71
3
 72
8
 73
4
 74
0
 40
0
 40
0
 40
0
 40
0
 40
1
 40
1
 40
1
 40
1
 10
255.441712
 20
65.954064
 30
0.0
 10
255.954752
 20
66.082064
 30
0.0
 10
256.417712
 20
66.147064
 30
0.0
 10
256.830752
 20
66.147064
 30
0.0
  0
LWPOLYLINE
  5
19a
100
AcDbEntity
  8
Layer_1
 62
7
100
AcDbPolyline
 90
2
 70
0
 10
247.031712
 20
58.432064
 30
0.0
 10
254.129712
 20
65.530064
 30
0.0
  0
SPLINE
  5
19b
100
AcDbEntity
  8
Layer_1
 62
7
100
AcDbSpline
 70
8
 71
3
 72
8
 73
4
 74
0
 40
0
 40
0
 40
0
 40
0
 40
1
 40
1
 40
1
 40
1
 10
214.721992
 20
66.070264
 30
0.0
 10
215.697992
 20
66.070264
 30
0.0
 10
216.187992
 20
65.580264
 30
0.0
 10
216.187992
 20
64.604264
 30
0.0
  0
LWPOLYLINE
  5
19c
100
AcDbEntity
  8
Layer_1
 62
7
100
AcDbPolyline
 90
8
 70
0
 10
256.830752
 20
66.147064
 30
0.0
 10
257.987712
 20
66.147064
 30
0.0
 10
262.384752
 20
66.147064
 30
0.0
 10
267.868768
 20
66.147064
 30
0.0
 10
267.868760
 20
71.816680
 30
0.0
 10
210.694264
 20
71.816680
 30
0.0
 10
210.492096
 20
66.070264
 30
0.0
 10
214.721992
 20
66.070264
 30
0.0
  0
SPLINE
  5
19d
100
AcDbEntity
  8
Layer_1
 62
7
100
AcDbSpline
 70
8
 71
3
 72
8
 73
4
 74
0
 40
0
 40
0
 40
0
 40
0
 40
1
 40
1
 40
1
 40
1
 10
216.187992
 20
26.567264
 30
0.0
 10
216.187992
 20
26.155264
 30
0.0
 10
216.328992
 20
25.821264
 30
0.0
 10
216.611992
 20
25.564264
 30
0.0
  0
SPLINE
  5
19e
100
AcDbEntity
  8
Layer_1
 62
7
100
AcDbSpline
 70
8
 71
3
 72
8
 73
4
 74
0
 40
0
 40
0
 40
0
 40
0
 40
1
 40
1
 40
1
 40
1
 10
216.611992
 20
25.564264
 30
0.0
 10
216.893992
 20
25.306264
 30
0.0
 10
217.240992
 20
25.178264
 30
0.0
 10
217.653992
 20
25.178264
 30
0.0
  0
LWPOLYLINE
  5
19f
100
AcDbEntity
  8
Layer_1
 62
7
100
AcDbPolyline
 90
2
 70
0
 10
216.187992
 20
64.604264
 30
0.0
 10
216.187992
 20
26.567264
 30
0.0
  0
SPLINE
  5
1a0
100
AcDbEntity
  8
Layer_1
 62
7
100
AcDbSpline
 70
8
 71
3
 72
8
 73
4
 74
0
 40
0
 40
0
 40
0
 40
0
 40
1
 40
1
 40
1
 40
1
 10
237.404992
 20
25.178264
 30
0.0
 10
237.815992
 20
25.178264
 30
0.0
 10
238.149992
 20
25.036264
 30
0.0
 10
238.407992
 20
24.754264
 30
0.0
  0
SPLINE
  5
1a1
100
AcDbEntity
  8
Layer_1
 62
7
100
AcDbSpline
 70
8
 71
3
 72
8
 73
4
 74
0
 40
0
 40
0
 40
0
 40
0
 40
1
 40
1
 40
1
 40
1
 10
238.407992
 20
24.754264
 30
0.0
 10
238.664992
 20
24.471264
 30
0.0
 10
238.793992
 20
24.123264
 30
0.0
 10
238.793992
 20
23.712264
 30
0.0
  0
LWPOLYLINE
  5
1a2
100
AcDbEntity
  8
Layer_1
 62
7
100
AcDbPolyline
 90
2
 70
0
 10
217.653992
 20
25.178264
 30
0.0
 10
237.404992
 20
25.178264
 30
0.0
  0
SPLINE
  5
1a3
100
AcDbEntity
  8
Layer_1
 62
7
100
AcDbSpline
 70
8
 71
3
 72
8
 73
4
 74
0
 40
0
 40
0
 40
0
 40
0
 40
1
 40
1
 40
1
 40
1
 10
238.793992
 20
13.528264
 30
0.0
 10
238.793992
 20
13.116264
 30
0.0
 10
238.664992
 20
12.768264
 30
0.0
 10
238.407992
 20
12.486264
 30
0.0
  0
SPLINE
  5
1a4
100
AcDbEntity
  8
Layer_1
 62
7
100
AcDbSpline
 70
8
 71
3
 72
8
 73
4
 74
0
 40
0
 40
0
 40
0
 40
0
 40
1
 40
1
 40
1
 40
1
 10
238.407992
 20
12.486264
 30
0.0
 10
238.149992
 20
12.203264
 30
0.0
 10
237.815992
 20
12.062264
 30
0.0
 10
237.404992
 20
12.062264
 30
0.0
  0
LWPOLYLINE
  5
1a5
100
AcDbEntity
  8
Layer_1
 62
7
100
AcDbPolyline
 90
2
 70
0
 10
238.793992
 20
23.712264
 30
0.0
 10
238.793992
 20
13.528264
 30
0.0
  0
LWPOLYLINE
  5
1a6
100
AcDbEntity
  8
Layer_1
 62
7
100
AcDbPolyline
 90
5
 70
0
 10
237.404992
 20
12.062264
 30
0.0
 10
225.442360
 20
12.062264
 30
0.0
 10
225.341344
 20
6.034680
 30
0.0
 10
252.134368
 20
6.034680
 30
0.0
 10
252.110384
 20
12.139064
 30
0.0
  0
SPLINE
  5
1a7
100
AcDbEntity
  8
Layer_1
 62
7
100
AcDbSpline
 70
8
 71
3
 72
8
 73
4
 74
0
 40
0
 40
0
 40
0
 40
0
 40
1
 40
1
 40
1
 40
1
 10
279.590752
 20
12.139064
 30
0.0
 10
279.177712
 20
12.139064
 30
0.0
 10
278.844752
 20
12.267064
 30
0.0
 10
278.587712
 20
12.525064
 30
0.0
  0
SPLINE
  5
1a8
100
AcDbEntity
  8
Layer_1
 62
7
100
AcDbSpline
 70
8
 71
3
 72
8
 73
4
 74
0
 40
0
 40
0
 40
0
 40
0
 40
1
 40
1
 40
1
 40
1
 10
278.587712
 20
12.525064
 30
0.0
 10
278.329712
 20
12.782064
 30
0.0
 10
278.201712
 20
13.116064
 30
0.0
 10
278.201712
 20
13.528064
 30
0.0
  0
LWPOLYLINE
  5
1a9
100
AcDbEntity
  8
Layer_1
 62
7
100
AcDbPolyline
 90
2
 70
0
 10
284.176208
 20
12.139064
 30
0.0
 10
279.590752
 20
12.139064
 30
0.0
  0
SPLINE
  5
1aa
100
AcDbEntity
  8
Layer_1
 62
7
100
AcDbSpline
 70
8
 71
3
 72
8
 73
4
 74
0
 40
0
 40
0
 40
0
 40
0
 40
1
 40
1
 40
1
 40
1
 10
278.201712
 20
27.416064
 30
0.0
 10
278.201712
 20
27.827064
 30
0.0
 10
278.059712
 20
28.161064
 30
0.0
 10
277.777712
 20
28.419064
 30
0.0
  0
SPLINE
  5
1ab
100
AcDbEntity
  8
Layer_1
 62
7
100
AcDbSpline
 70
8
 71
3
 72
8
 73
4
 74
0
 40
0
 40
0
 40
0
 40
0
 40
1
 40
1
 40
1
 40
1
 10
277.777712
 20
28.419064
 30
0.0
 10
277.494752
 20
28.676064
 30
0.0
 10
277.146752
 20
28.804064
 30
0.0
 10
276.735712
 20
28.804064
 30
0.0
  0
LWPOLYLINE
  5
1ac
100
AcDbEntity
  8
Layer_1
 62
7
100
AcDbPolyline
 90
2
 70
0
 10
278.201712
 20
13.528064
 30
0.0
 10
278.201712
 20
27.416064
 30
0.0
  0
SPLINE
  5
1ad
100
AcDbEntity
  8
Layer_1
 62
7
100
AcDbSpline
 70
8
 71
3
 72
8
 73
4
 74
0
 40
0
 40
0
 40
0
 40
0
 40
1
 40
1
 40
1
 40
1
 10
261.459712
 20
28.804064
 30
0.0
 10
261.046752
 20
28.804064
 30
0.0
 10
260.699712
 20
28.676064
 30
0.0
 10
260.417712
 20
28.419064
 30
0.0
  0
SPLINE
  5
1ae
100
AcDbEntity
  8
Layer_1
 62
7
100
AcDbSpline
 70
8
 71
3
 72
8
 73
4
 74
0
 40
0
 40
0
 40
0
 40
0
 40
1
 40
1
 40
1
 40
1
 10
260.417712
 20
28.419064
 30
0.0
 10
260.134752
 20
28.161064
 30
0.0
 10
259.993712
 20
27.827064
 30
0.0
 10
259.993712
 20
27.416064
 30
0.0
  0
LWPOLYLINE
  5
1af
100
AcDbEntity
  8
Layer_1
 62
7
100
AcDbPolyline
 90
2
 70
0
 10
276.735712
 20
28.804064
 30
0.0
 10
261.459712
 20
28.804064
 30
0.0
  0
SPLINE
  5
1b0
100
AcDbEntity
  8
Layer_1
 62
7
100
AcDbSpline
 70
8
 71
3
 72
8
 73
4
 74
0
 40
0
 40
0
 40
0
 40
0
 40
1
 40
1
 40
1
 40
1
 10
259.993712
 20
13.528064
 30
0.0
 10
259.993712
 20
13.116064
 30
0.0
 10
259.864752
 20
12.782064
 30
0.0
 10
259.607712
 20
12.525064
 30
0.0
  0
SPLINE
  5
1b1
100
AcDbEntity
  8
Layer_1
 62
7
100
AcDbSpline
 70
8
 71
3
 72
8
 73
4
 74
0
 40
0
 40
0
 40
0
 40
0
 40
1
 40
1
 40
1
 40
1
 10
259.607712
 20
12.525064
 30
0.0
 10
259.349712
 20
12.267064
 30
0.0
 10
259.015712
 20
12.139064
 30
0.0
 10
258.604752
 20
12.139064
 30
0.0
  0
LWPOLYLINE
  5
1b2
100
AcDbEntity
  8
Layer_1
 62
7
100
AcDbPolyline
 90
2
 70
0
 10
259.993712
 20
27.416064
 30
0.0
 10
259.993712
 20
13.528064
 30
0.0
  0
LWPOLYLINE
  5
1b3
100
AcDbEntity
  8
Layer_1
 62
7
100
AcDbPolyline
 90
5
 70
0
 10
258.604752
 20
12.139064
 30
0.0
 10
254.332720
 20
12.139064
 30
0.0
 10
254.277200
 20
6.034680
 30
0.0
 10
284.176184
 20
6.034680
 30
0.0
 10
284.176208
 20
12.139064
 30
0.0
  0
LWPOLYLINE
  5
1b4
100
AcDbEntity
  8
Layer_1
 62
7
100
AcDbPolyline
 90
5
 70
0
 10
311.964752
 20
23.867064
 30
0.0
 10
332.719712
 20
23.867064
 30
0.0
 10
332.719712
 20
34.360064
 30
0.0
 10
311.964752
 20
34.360064
 30
0.0
 10
311.964752
 20
23.867064
 30
0.0
  0
LWPOLYLINE
  5
1b5
100
AcDbEntity
  8
Layer_1
 62
7
100
AcDbPolyline
 90
5
 70
0
 10
311.964752
 20
44.698064
 30
0.0
 10
332.719712
 20
44.698064
 30
0.0
 10
332.719712
 20
54.342064
 30
0.0
 10
311.964752
 20
54.342064
 30
0.0
 10
311.964752
 20
44.698064
 30
0.0
  0
SPLINE
  5
1b6
100
AcDbEntity
  8
Layer_1
 62
7
100
AcDbSpline
 70
8
 71
3
 72
8
 73
4
 74
0
 40
0
 40
0
 40
0
 40
0
 40
1
 40
1
 40
1
 40
1
 10
301.162752
 20
12.062064
 30
0.0
 10
300.185712
 20
12.062064
 30
0.0
 10
299.696752
 20
12.550064
 30
0.0
 10
299.696752
 20
13.528064
 30
0.0
  0
LWPOLYLINE
  5
1b7
100
AcDbEntity
  8
Layer_1
 62
7
100
AcDbPolyline
 90
2
 70
0
 10
320.396696
 20
12.062064
 30
0.0
 10
301.162752
 20
12.062064
 30
0.0
  0
SPLINE
  5
1b8
100
AcDbEntity
  8
Layer_1
 62
7
100
AcDbSpline
 70
8
 71
3
 72
8
 73
4
 74
0
 40
0
 40
0
 40
0
 40
0
 40
1
 40
1
 40
1
 40
1
 10
299.696752
 20
64.604064
 30
0.0
 10
299.696752
 20
65.015064
 30
0.0
 10
299.838752
 20
65.362064
 30
0.0
 10
300.121712
 20
65.646064
 30
0.0
  0
SPLINE
  5
1b9
100
AcDbEntity
  8
Layer_1
 62
7
100
AcDbSpline
 70
8
 71
3
 72
8
 73
4
 74
0
 40
0
 40
0
 40
0
 40
0
 40
1
 40
1
 40
1
 40
1
 10
300.121712
 20
65.646064
 30
0.0
 10
300.403712
 20
65.928064
 30
0.0
 10
300.750752
 20
66.070064
 30
0.0
 10
301.162752
 20
66.070064
 30
0.0
  0
LWPOLYLINE
  5
1ba
100
AcDbEntity
  8
Layer_1
 62
7
100
AcDbPolyline
 90
2
 70
0
 10
299.696752
 20
13.528064
 30
0.0
 10
299.696752
 20
64.604064
 30
0.0
  0
SPLINE
  5
1bb
100
AcDbEntity
  8
Layer_1
 62
7
100
AcDbSpline
 70
8
 71
3
 72
8
 73
4
 74
0
 40
0
 40
0
 40
0
 40
0
 40
1
 40
1
 40
1
 40
1
 10
281.287688
 20
66.147064
 30
0.0
 10
281.698728
 20
66.147064
 30
0.0
 10
282.174728
 20
66.082104
 30
0.0
 10
282.715688
 20
65.954064
 30
0.0
  0
SPLINE
  5
1bc
100
AcDbEntity
  8
Layer_1
 62
7
100
AcDbSpline
 70
8
 71
3
 72
8
 73
4
 74
0
 40
0
 40
0
 40
0
 40
0
 40
1
 40
1
 40
1
 40
1
 10
282.715688
 20
65.954064
 30
0.0
 10
283.255688
 20
65.825064
 30
0.0
 10
283.704728
 20
65.684064
 30
0.0
 10
284.065688
 20
65.530064
 30
0.0
  0
LWPOLYLINE
  5
1bd
100
AcDbEntity
  8
Layer_1
 62
7
100
AcDbPolyline
 90
8
 70
0
 10
301.162752
 20
66.070064
 30
0.0
 10
320.178416
 20
66.070064
 30
0.0
 10
320.178416
 20
71.816680
 30
0.0
 10
270.293104
 20
71.816680
 30
0.0
 10
270.293104
 20
66.147064
 30
0.0
 10
278.124728
 20
66.147064
 30
0.0
 10
280.438728
 20
66.147064
 30
0.0
 10
281.287688
 20
66.147064
 30
0.0
  0
SPLINE
  5
1be
100
AcDbEntity
  8
Layer_1
 62
7
100
AcDbSpline
 70
8
 71
3
 72
8
 73
4
 74
0
 40
0
 40
0
 40
0
 40
0
 40
1
 40
1
 40
1
 40
1
 10
291.163688
 20
58.432064
 30
0.0
 10
291.317688
 20
58.071064
 30
0.0
 10
291.458728
 20
57.622064
 30
0.0
 10
291.587688
 20
57.081064
 30
0.0
  0
SPLINE
  5
1bf
100
AcDbEntity
  8
Layer_1
 62
7
100
AcDbSpline
 70
8
 71
3
 72
8
 73
4
 74
0
 40
0
 40
0
 40
0
 40
0
 40
1
 40
1
 40
1
 40
1
 10
291.587688
 20
57.081064
 30
0.0
 10
291.715688
 20
56.542064
 30
0.0
 10
291.780728
 20
56.065064
 30
0.0
 10
291.780728
 20
55.654064
 30
0.0
  0
LWPOLYLINE
  5
1c0
100
AcDbEntity
  8
Layer_1
 62
7
100
AcDbPolyline
 90
2
 70
0
 10
284.065688
 20
65.530064
 30
0.0
 10
291.163688
 20
58.432064
 30
0.0
  0
SPLINE
  5
1c1
100
AcDbEntity
  8
Layer_1
 62
7
100
AcDbSpline
 70
8
 71
3
 72
8
 73
4
 74
0
 40
0
 40
0
 40
0
 40
0
 40
1
 40
1
 40
1
 40
1
 10
291.780728
 20
13.528064
 30
0.0
 10
291.780728
 20
13.116064
 30
0.0
 10
291.638728
 20
12.782064
 30
0.0
 10
291.356728
 20
12.525064
 30
0.0
  0
SPLINE
  5
1c2
100
AcDbEntity
  8
Layer_1
 62
7
100
AcDbSpline
 70
8
 71
3
 72
8
 73
4
 74
0
 40
0
 40
0
 40
0
 40
0
 40
1
 40
1
 40
1
 40
1
 10
291.356728
 20
12.525064
 30
0.0
 10
291.073688
 20
12.267064
 30
0.0
 10
290.725688
 20
12.139064
 30
0.0
 10
290.314728
 20
12.139064
 30
0.0
  0
LWPOLYLINE
  5
1c3
100
AcDbEntity
  8
Layer_1
 62
7
100
AcDbPolyline
 90
4
 70
0
 10
291.780728
 20
55.654064
 30
0.0
 10
291.780728
 20
54.806064
 30
0.0
 10
291.780728
 20
54.111064
 30
0.0
 10
291.780728
 20
13.528064
 30
0.0
  0
LWPOLYLINE
  5
1c4
100
AcDbEntity
  8
Layer_1
 62
7
100
AcDbPolyline
 90
5
 70
0
 10
290.314728
 20
12.139064
 30
0.0
 10
285.991488
 20
12.139064
 30
0.0
 10
285.974128
 20
6.034680
 30
0.0
 10
320.295680
 20
6.034680
 30
0.0
 10
320.396696
 20
12.062064
 30
0.0
  0
SPLINE
  5
1c5
100
AcDbEntity
  8
Layer_1
 62
7
100
AcDbSpline
 70
8
 71
3
 72
8
 73
4
 74
0
 40
0
 40
0
 40
0
 40
0
 40
1
 40
1
 40
1
 40
1
 10
352.021232
 20
6.034680
 30
0.0
 10
353.577232
 20
6.034680
 30
0.0
 10
354.839232
 20
7.295680
 30
0.0
 10
354.839232
 20
8.852680
 30
0.0
  0
LWPOLYLINE
  5
1c6
100
AcDbEntity
  8
Layer_1
 62
7
100
AcDbPolyline
 90
2
 70
0
 10
322.417000
 20
6.034680
 30
0.0
 10
352.021232
 20
6.034680
 30
0.0
  0
SPLINE
  5
1c7
100
AcDbEntity
  8
Layer_1
 62
7
100
AcDbSpline
 70
8
 71
3
 72
8
 73
4
 74
0
 40
0
 40
0
 40
0
 40
0
 40
1
 40
1
 40
1
 40
1
 10
354.839232
 20
68.998680
 30
0.0
 10
354.839232
 20
70.554680
 30
0.0
 10
353.577232
 20
71.816680
 30
0.0
 10
352.021232
 20
71.816680
 30
0.0
  0
LWPOLYLINE
  5
1c8
100
AcDbEntity
  8
Layer_1
 62
7
100
AcDbPolyline
 90
2
 70
0
 10
354.839232
 20
8.852680
 30
0.0
 10
354.839232
 20
68.998680
 30
0.0
  0
SPLINE
  5
1c9
100
AcDbEntity
  8
Layer_1
 62
7
100
AcDbSpline
 70
8
 71
3
 72
8
 73
4
 74
0
 40
0
 40
0
 40
0
 40
0
 40
1
 40
1
 40
1
 40
1
 10
334.570752
 20
66.070064
 30
0.0
 10
334.981712
 20
66.070064
 30
0.0
 10
335.457712
 20
66.005024
 30
0.0
 10
335.997712
 20
65.877064
 30
0.0
  0
SPLINE
  5
1ca
100
AcDbEntity
  8
Layer_1
 62
7
100
AcDbSpline
 70
8
 71
3
 72
8
 73
4
 74
0
 40
0
 40
0
 40
0
 40
0
 40
1
 40
1
 40
1
 40
1
 10
335.997712
 20
65.877064
 30
0.0
 10
336.538752
 20
65.748064
 30
0.0
 10
336.987712
 20
65.607064
 30
0.0
 10
337.347712
 20
65.453064
 30
0.0
  0
LWPOLYLINE
  5
1cb
100
AcDbEntity
  8
Layer_1
 62
7
100
AcDbPolyline
 90
5
 70
0
 10
352.021232
 20
71.816680
 30
0.0
 10
322.198704
 20
71.816680
 30
0.0
 10
322.198728
 20
66.070064
 30
0.0
 10
334.416752
 20
66.070064
 30
0.0
 10
334.570752
 20
66.070064
 30
0.0
  0
SPLINE
  5
1cc
100
AcDbEntity
  8
Layer_1
 62
7
100
AcDbSpline
 70
8
 71
3
 72
8
 73
4
 74
0
 40
0
 40
0
 40
0
 40
0
 40
1
 40
1
 40
1
 40
1
 10
344.446752
 20
58.354064
 30
0.0
 10
344.600752
 20
57.994064
 30
0.0
 10
344.741712
 20
57.544064
 30
0.0
 10
344.870752
 20
57.004064
 30
0.0
  0
SPLINE
  5
1cd
100
AcDbEntity
  8
Layer_1
 62
7
100
AcDbSpline
 70
8
 71
3
 72
8
 73
4
 74
0
 40
0
 40
0
 40
0
 40
0
 40
1
 40
1
 40
1
 40
1
 10
344.870752
 20
57.004064
 30
0.0
 10
344.998752
 20
56.464064
 30
0.0
 10
345.063712
 20
55.988064
 30
0.0
 10
345.063712
 20
55.577064
 30
0.0
  0
LWPOLYLINE
  5
1ce
100
AcDbEntity
  8
Layer_1
 62
7
100
AcDbPolyline
 90
2
 70
0
 10
337.347712
 20
65.453064
 30
0.0
 10
344.446752
 20
58.354064
 30
0.0
  0
SPLINE
  5
1cf
100
AcDbEntity
  8
Layer_1
 62
7
100
AcDbSpline
 70
8
 71
3
 72
8
 73
4
 74
0
 40
0
 40
0
 40
0
 40
0
 40
1
 40
1
 40
1
 40
1
 10
345.063712
 20
47.013064
 30
0.0
 10
345.063712
 20
46.601064
 30
0.0
 10
344.973712
 20
46.151064
 30
0.0
 10
344.793712
 20
45.663064
 30
0.0
  0
SPLINE
  5
1d0
100
AcDbEntity
  8
Layer_1
 62
7
100
AcDbSpline
 70
8
 71
3
 72
8
 73
4
 74
0
 40
0
 40
0
 40
0
 40
0
 40
1
 40
1
 40
1
 40
1
 10
344.793712
 20
45.663064
 30
0.0
 10
344.612752
 20
45.173064
 30
0.0
 10
344.394752
 20
44.775064
 30
0.0
 10
344.137712
 20
44.467064
 30
0.0
  0
LWPOLYLINE
  5
1d1
100
AcDbEntity
  8
Layer_1
 62
7
100
AcDbPolyline
 90
4
 70
0
 10
345.063712
 20
55.577064
 30
0.0
 10
345.063712
 20
53.880064
 30
0.0
 10
345.063712
 20
53.108064
 30
0.0
 10
345.063712
 20
47.013064
 30
0.0
  0
SPLINE
  5
1d2
100
AcDbEntity
  8
Layer_1
 62
7
100
AcDbSpline
 70
8
 71
3
 72
8
 73
4
 74
0
 40
0
 40
0
 40
0
 40
0
 40
1
 40
1
 40
1
 40
1
 10
340.820752
 20
40.223064
 30
0.0
 10
340.561712
 20
39.915064
 30
0.0
 10
340.446752
 20
39.529064
 30
0.0
 10
340.472752
 20
39.066064
 30
0.0
  0
SPLINE
  5
1d3
100
AcDbEntity
  8
Layer_1
 62
7
100
AcDbSpline
 70
8
 71
3
 72
8
 73
4
 74
0
 40
0
 40
0
 40
0
 40
0
 40
1
 40
1
 40
1
 40
1
 10
340.472752
 20
39.066064
 30
0.0
 10
340.498352
 20
38.603064
 30
0.0
 10
340.639712
 20
38.243064
 30
0.0
 10
340.897712
 20
37.986064
 30
0.0
  0
LWPOLYLINE
  5
1d4
100
AcDbEntity
  8
Layer_1
 62
7
100
AcDbPolyline
 90
2
 70
0
 10
344.137712
 20
44.467064
 30
0.0
 10
340.820752
 20
40.223064
 30
0.0
  0
SPLINE
  5
1d5
100
AcDbEntity
  8
Layer_1
 62
7
100
AcDbSpline
 70
8
 71
3
 72
8
 73
4
 74
0
 40
0
 40
0
 40
0
 40
0
 40
1
 40
1
 40
1
 40
1
 10
344.060752
 20
34.128064
 30
0.0
 10
344.317712
 20
33.820064
 30
0.0
 10
344.548752
 20
33.421064
 30
0.0
 10
344.754752
 20
32.932064
 30
0.0
  0
SPLINE
  5
1d6
100
AcDbEntity
  8
Layer_1
 62
7
100
AcDbSpline
 70
8
 71
3
 72
8
 73
4
 74
0
 40
0
 40
0
 40
0
 40
0
 40
1
 40
1
 40
1
 40
1
 10
344.754752
 20
32.932064
 30
0.0
 10
344.959712
 20
32.443064
 30
0.0
 10
345.063712
 20
31.993064
 30
0.0
 10
345.063712
 20
31.582064
 30
0.0
  0
LWPOLYLINE
  5
1d7
100
AcDbEntity
  8
Layer_1
 62
7
100
AcDbPolyline
 90
2
 70
0
 10
340.897712
 20
37.986064
 30
0.0
 10
344.060752
 20
34.128064
 30
0.0
  0
SPLINE
  5
1d8
100
AcDbEntity
  8
Layer_1
 62
7
100
AcDbSpline
 70
8
 71
3
 72
8
 73
4
 74
0
 40
0
 40
0
 40
0
 40
0
 40
1
 40
1
 40
1
 40
1
 10
345.063712
 20
22.478064
 30
0.0
 10
345.063712
 20
22.066064
 30
0.0
 10
344.998912
 20
21.603064
 30
0.0
 10
344.870752
 20
21.089064
 30
0.0
  0
SPLINE
  5
1d9
100
AcDbEntity
  8
Layer_1
 62
7
100
AcDbSpline
 70
8
 71
3
 72
8
 73
4
 74
0
 40
0
 40
0
 40
0
 40
0
 40
1
 40
1
 40
1
 40
1
 10
344.870752
 20
21.089064
 30
0.0
 10
344.741712
 20
20.574064
 30
0.0
 10
344.600752
 20
20.137064
 30
0.0
 10
344.446752
 20
19.777064
 30
0.0
  0
LWPOLYLINE
  5
1da
100
AcDbEntity
  8
Layer_1
 62
7
100
AcDbPolyline
 90
4
 70
0
 10
345.063712
 20
31.582064
 30
0.0
 10
345.063712
 20
25.178064
 30
0.0
 10
345.063712
 20
23.481064
 30
0.0
 10
345.063712
 20
22.478064
 30
0.0
  0
SPLINE
  5
1db
100
AcDbEntity
  8
Layer_1
 62
7
100
AcDbSpline
 70
8
 71
3
 72
8
 73
4
 74
0
 40
0
 40
0
 40
0
 40
0
 40
1
 40
1
 40
1
 40
1
 10
337.347712
 20
12.680064
 30
0.0
 10
336.987712
 20
12.473064
 30
0.0
 10
336.538752
 20
12.319064
 30
0.0
 10
335.997712
 20
12.216064
 30
0.0
  0
SPLINE
  5
1dc
100
AcDbEntity
  8
Layer_1
 62
7
100
AcDbSpline
 70
8
 71
3
 72
8
 73
4
 74
0
 40
0
 40
0
 40
0
 40
0
 40
1
 40
1
 40
1
 40
1
 10
335.997712
 20
12.216064
 30
0.0
 10
335.457712
 20
12.113064
 30
0.0
 10
334.981712
 20
12.062064
 30
0.0
 10
334.570752
 20
12.062064
 30
0.0
  0
LWPOLYLINE
  5
1dd
100
AcDbEntity
  8
Layer_1
 62
7
100
AcDbPolyline
 90
2
 70
0
 10
344.446752
 20
19.777064
 30
0.0
 10
337.347712
 20
12.680064
 30
0.0
  0
SPLINE
  5
1de
100
AcDbEntity
  8
Layer_1
 62
7
100
AcDbSpline
 70
8
 71
3
 72
8
 73
4
 74
0
 40
0
 40
0
 40
0
 40
0
 40
1
 40
1
 40
1
 40
1
 10
332.795712
 20
12.062064
 30
0.0
 10
329.336144
 20
12.062064
 30
0.0
 10
325.876576
 20
12.062064
 30
0.0
 10
322.417000
 20
12.062064
 30
0.0
  0
LWPOLYLINE
  5
1df
100
AcDbEntity
  8
Layer_1
 62
7
100
AcDbPolyline
 90
2
 70
0
 10
334.570752
 20
12.062064
 30
0.0
 10
332.795712
 20
12.062064
 30
0.0
  0
LWPOLYLINE
  5
1e0
100
AcDbEntity
  8
Layer_1
 62
7
100
AcDbPolyline
 90
2
 70
0
 10
322.417000
 20
12.062064
 30
0.0
 10
322.417000
 20
6.034680
 30
0.0
  0
ENDSEC
  0
SECTION
  2
OBJECTS
  0
DICTIONARY
  5
C
330
0
100
AcDbDictionary
  3
ACAD_GROUP
350
D
  3
ACAD_MLINESTYLE
350
17
  0
DICTIONARY
  5
D
330
C
100
AcDbDictionary
  0
DICTIONARY
  5
1A
330
C
100
AcDbDictionary
  0
DICTIONARY
  5
17
330
C
100
AcDbDictionary
  3
STANDARD
350
18
  0
DICTIONARY
  5
19
330
C
100
AcDbDictionary
  0
ENDSEC
  0
EOF
